<svg xmlns="http://www.w3.org/2000/svg" height="511pt" version="1.1" viewBox="0 0 511.99911 511" width="511pt">
<g id="surface1">
<path d="M 472.449219 78.921875 C 455.636719 76.714844 437.570312 76.261719 415.621094 76.261719 C 412.015625 76.261719 408.410156 76.273438 404.828125 76.285156 C 401.351562 76.296875 397.953125 76.308594 394.605469 76.308594 C 388.796875 76.308594 384.0625 76.273438 379.707031 76.203125 C 350.121094 75.746094 319.976562 75.515625 290.109375 75.515625 C 251.429688 75.515625 212.542969 75.902344 174.527344 76.664062 C 136.210938 77.441406 97.269531 78.621094 58.785156 80.167969 L 58.667969 80.171875 C 51.59375 80.464844 43.578125 80.800781 36.496094 82.585938 C 28.289062 84.648438 22.933594 88.429688 22.175781 92.699219 C 21.113281 98.695312 29.277344 103.527344 37.308594 105.480469 C 44.996094 107.355469 53.648438 107.511719 61.15625 107.511719 C 62.214844 107.511719 445.652344 106.34375 445.652344 106.34375 C 454.003906 106.3125 462.640625 106.28125 470.777344 104.765625 C 484.191406 102.273438 490.050781 95.726562 489.910156 90.34375 C 489.753906 84.609375 483.226562 80.339844 472.449219 78.921875 Z M 472.449219 78.921875 " style=" stroke:none;fill-rule:nonzero;fill:rgb(57.647059%,32.156863%,32.156863%);fill-opacity:1;" />
<path d="M 461.351562 117.503906 L 48.210938 119.644531 C 47.152344 119.65625 46.085938 119.65625 45.011719 119.65625 C 44.996094 119.65625 44.980469 119.65625 44.96875 119.65625 C 38.660156 119.65625 31.347656 119.503906 24.390625 117.699219 L 20.917969 116.800781 L 20.644531 120.378906 C 11.140625 244.972656 10.535156 368.445312 18.785156 497.847656 L 18.960938 500.613281 L 437.460938 507.203125 C 438.449219 507.222656 439.480469 507.238281 440.535156 507.238281 C 445.867188 507.238281 451.96875 506.828125 456.792969 503.804688 C 465.566406 498.296875 467.519531 486.550781 468.320312 474.675781 L 492.664062 113.414062 L 488.496094 114.699219 C 479.652344 117.421875 469.933594 117.464844 461.351562 117.503906 Z M 472.089844 137.453125 L 443.929688 484.140625 C 443.90625 484.390625 443.722656 484.589844 443.484375 484.628906 L 52.144531 475.746094 C 46.460938 475.617188 37.871094 475.421875 32.472656 470.355469 C 26.539062 464.789062 26.339844 455.644531 26.617188 447.507812 L 36.007812 169.574219 C 36.070312 167.980469 35.976562 165.949219 35.878906 163.796875 L 35.867188 163.511719 C 35.488281 155.519531 35.015625 145.574219 40.027344 141.351562 C 42.613281 139.175781 46.722656 138.164062 52.953125 138.164062 C 55.394531 138.164062 57.910156 138.316406 60.117188 138.449219 L 60.359375 138.464844 C 62.0625 138.574219 63.667969 138.675781 65.011719 138.675781 L 324.683594 137.394531 C 326.394531 137.378906 330.511719 137.363281 336.324219 137.335938 L 345.972656 137.292969 C 401.457031 137.054688 468.257812 136.757812 471.472656 136.664062 L 471.597656 136.671875 C 471.882812 136.683594 472.109375 136.914062 472.109375 137.203125 C 472.109375 137.25 472.105469 137.300781 472.089844 137.453125 Z M 472.089844 137.453125 " style=" stroke:none;fill-rule:nonzero;fill:rgb(84.705882%,87.058824%,92.54902%);fill-opacity:1;" />
<path d="M 456.324219 145.394531 C 454.042969 145.40625 450.730469 145.425781 446.636719 145.453125 L 414.617188 145.613281 C 414.617188 145.613281 357.445312 145.863281 340.226562 145.945312 L 320.703125 146.023438 L 75.050781 147.226562 C 73.570312 147.214844 71.722656 147.117188 70.109375 147.019531 C 68.152344 146.902344 65.714844 146.753906 63.328125 146.753906 C 57.265625 146.753906 53.269531 147.730469 50.738281 149.828125 C 45.816406 153.933594 46.265625 163.34375 46.625 170.921875 L 46.636719 171.222656 C 46.730469 173.207031 46.816406 175.085938 46.761719 176.542969 L 37.863281 436.203125 C 37.601562 443.917969 37.804688 452.59375 43.566406 457.917969 C 48.40625 462.394531 55.292969 462.910156 62.515625 463.074219 L 434.089844 471.398438 L 460.945312 145.292969 L 457.605469 145.375 Z M 209.179688 216.53125 C 210.027344 216.316406 210.84375 216.207031 211.613281 216.207031 C 213.488281 216.207031 215.136719 216.859375 216.519531 218.144531 C 219.296875 220.71875 220.664062 225.75 219.84375 230.378906 C 218.84375 236.007812 213.550781 241.714844 208.269531 242.84375 C 207.628906 242.984375 206.988281 243.054688 206.359375 243.054688 C 203.535156 243.054688 201.128906 241.617188 199.199219 238.789062 C 197.695312 236.574219 197.191406 233.546875 197.808594 230.476562 C 198.941406 224.871094 203.609375 217.945312 209.179688 216.53125 Z M 193.523438 201.410156 C 190.9375 204.40625 188.261719 207.503906 186.632812 211.171875 C 184.613281 215.863281 184.269531 220.804688 183.902344 226.035156 L 183.894531 226.15625 C 183.796875 227.5625 183.699219 228.960938 183.570312 230.34375 C 182.816406 238.328125 180.570312 243.675781 176.703125 246.6875 L 176.597656 246.773438 C 172.207031 250.535156 166.292969 251.34375 160.035156 252.203125 C 153.527344 253.089844 146.800781 254.003906 142 258.582031 L 141.902344 258.679688 C 135.21875 265.664062 135.996094 276.144531 137.46875 287.109375 C 138.644531 298.097656 139.980469 310.554688 148.917969 317.84375 C 152.617188 320.851562 157.289062 322.714844 161.859375 324.542969 C 168.761719 327.289062 175.285156 329.886719 177.839844 336.160156 C 180.484375 343.820312 175.152344 351.265625 169.984375 358.476562 L 169.421875 359.261719 C 169.035156 359.800781 168.65625 360.328125 168.289062 360.851562 C 155.753906 378.742188 150.714844 401.367188 154.480469 422.960938 C 155.710938 429.480469 156.355469 436.4375 151.839844 438.742188 C 151.300781 438.890625 150.753906 438.964844 150.167969 438.964844 C 146.832031 438.964844 143.507812 436.308594 140.976562 433.988281 C 123.265625 417.863281 107.0625 399.878906 92.785156 380.488281 C 88.554688 374.929688 83.960938 368.367188 83.003906 360.886719 C 82.195312 353.03125 85.171875 345.222656 87.820312 338.277344 C 90.382812 331.121094 92.945312 323.726562 95.355469 316.757812 C 96.554688 313.261719 97.761719 309.777344 98.972656 306.300781 L 99.035156 306.09375 C 99.386719 304.78125 99.691406 303.601562 99.808594 302.539062 L 100.332031 299.707031 C 101.371094 294.144531 102.449219 288.394531 102.886719 282.585938 C 103.726562 273.648438 100.992188 264.09375 94.535156 253.363281 C 92.167969 249.449219 89.511719 245.652344 86.945312 241.984375 C 83.828125 237.53125 80.609375 232.929688 77.859375 228.019531 C 73.734375 220.914062 69.222656 210.027344 71.167969 198.433594 C 72.441406 189.171875 77.511719 180.554688 85.074219 174.789062 C 96.472656 166.109375 116.003906 163.929688 128.929688 162.484375 C 134.675781 161.84375 140.207031 161.519531 145.363281 161.519531 C 160.632812 161.519531 173.976562 164.34375 186.167969 170.152344 C 195.851562 174.769531 201.316406 181.203125 201.183594 187.824219 C 201.179688 187.882812 201.175781 187.9375 201.171875 187.988281 C 200.695312 193.132812 197.246094 197.109375 193.597656 201.324219 Z M 204.417969 272.246094 C 203.464844 272.246094 202.558594 272.101562 201.9375 271.851562 C 200.101562 271.113281 197.65625 268.421875 197.257812 266.058594 C 197.078125 265.003906 197.335938 264.191406 198.042969 263.574219 C 198.203125 263.433594 198.695312 263.003906 200.058594 263.003906 C 201.386719 263.003906 203.121094 263.421875 205.0625 264.210938 C 208.382812 265.570312 210.375 267.242188 210.390625 268.6875 C 210.398438 269.613281 209.949219 270.394531 209.042969 271.011719 C 207.914062 271.78125 206.1875 272.246094 204.417969 272.246094 Z M 298.101562 345.199219 C 296.105469 350.222656 293.105469 354.824219 290.203125 359.277344 L 290.117188 359.414062 C 287.703125 363.117188 285.210938 366.949219 283.285156 371.035156 C 276.429688 385.53125 277.039062 403.242188 284.882812 417.25 C 285.554688 418.457031 286.300781 419.667969 287.105469 420.964844 C 288.789062 423.714844 290.53125 426.554688 291.511719 429.601562 C 292.691406 433.289062 292.789062 438.679688 289.199219 441.726562 C 287.523438 443.148438 285.347656 443.835938 282.539062 443.835938 C 279.832031 443.835938 276.925781 443.179688 274.96875 442.6875 C 264.144531 439.972656 252.875 436.464844 243.792969 429.214844 C 234.042969 421.425781 228.921875 410.234375 230.429688 400 C 230.976562 396.253906 232.417969 392.511719 233.828125 388.847656 C 236.039062 383.132812 238.320312 377.21875 237.222656 371.019531 C 235.71875 362.617188 228.820312 356.980469 222.148438 351.523438 C 215.914062 346.433594 209.503906 340.195312 209.210938 332.539062 C 208.957031 326.136719 212.871094 319.730469 221.175781 312.960938 C 229.484375 306.1875 238.722656 300.605469 248.636719 296.363281 C 255.074219 293.597656 261.960938 291.039062 268.660156 291.039062 C 274.699219 291.039062 279.914062 293.148438 284.605469 297.480469 C 299.4375 311.195312 304.484375 329.035156 298.101562 345.199219 Z M 261.222656 276.613281 C 261.898438 274.03125 264.457031 271.828125 268.238281 270.574219 C 269.988281 269.996094 271.820312 269.691406 273.535156 269.691406 C 276.003906 269.691406 278.117188 270.300781 279.492188 271.40625 C 281.320312 272.867188 282.003906 274.386719 281.53125 275.921875 C 280.53125 279.175781 274.589844 282.367188 270.445312 282.703125 C 269.796875 282.753906 269.242188 282.777344 268.75 282.777344 C 266.699219 282.777344 265.132812 282.425781 263.8125 281.679688 C 262.160156 280.738281 260.6875 278.644531 261.222656 276.613281 Z M 339.433594 309.570312 C 338.121094 307.640625 336.976562 305.46875 335.855469 303.34375 C 333.433594 298.722656 330.925781 293.945312 326.378906 291.121094 C 321.800781 288.261719 316.328125 288.113281 310.96875 287.964844 C 309.851562 287.9375 308.734375 287.90625 307.636719 287.847656 C 303.132812 287.613281 295.195312 286.335938 292.613281 280.398438 C 290.492188 275.523438 293.414062 269.605469 297.234375 266.519531 C 300.566406 263.832031 304.652344 262.441406 307.84375 261.53125 L 315.269531 259.40625 L 308.359375 255.960938 C 303.191406 253.386719 297.386719 252.023438 291.5625 252.023438 C 288.410156 252.023438 285.292969 252.421875 282.296875 253.203125 C 275.910156 254.878906 270.386719 258.078125 264.535156 261.472656 L 264.433594 261.53125 C 262.796875 262.480469 260.9375 263.558594 259.144531 264.542969 C 254.335938 267.164062 247.078125 270.648438 239.597656 270.648438 C 238.152344 270.648438 236.730469 270.519531 235.371094 270.257812 C 230.878906 269.398438 226.546875 266.457031 224.0625 262.582031 C 222.144531 259.605469 221.496094 256.289062 222.242188 253.246094 C 223.011719 250.105469 225.023438 247.511719 227.152344 244.761719 C 229.152344 242.175781 231.21875 239.503906 232.21875 236.308594 C 234.183594 230.082031 231.683594 223.957031 229.269531 218.035156 L 226.492188 219.167969 L 229.230469 217.9375 C 227.777344 214.359375 226.277344 210.660156 225.769531 206.976562 C 224.269531 196.054688 231.8125 185.980469 239.949219 180.839844 C 248.90625 175.179688 259.949219 173.242188 270.550781 171.992188 C 283.304688 170.488281 296.34375 169.726562 309.296875 169.726562 C 316.066406 169.726562 322.914062 169.9375 329.65625 170.347656 C 347.304688 171.429688 365.082031 173.957031 382.484375 177.859375 C 383.152344 178.011719 383.828125 178.160156 384.507812 178.308594 L 385.464844 178.519531 C 393.511719 180.253906 402.632812 182.222656 408.722656 187.847656 C 417.242188 195.722656 422.0625 207.789062 421.949219 220.949219 C 421.835938 235.085938 416.144531 248.546875 406.730469 256.957031 C 403.871094 259.511719 400.65625 261.734375 397.550781 263.886719 C 394.136719 266.246094 390.605469 268.6875 387.441406 271.640625 C 381.769531 276.941406 376.574219 285.632812 379.003906 294.144531 C 379.625 296.339844 380.714844 298.378906 381.800781 300.410156 C 383.414062 303.425781 384.9375 306.273438 384.773438 309.410156 C 384.550781 313.667969 381.105469 317.644531 375.546875 320.050781 C 372.074219 321.554688 368.308594 322.316406 364.316406 322.316406 C 354.308594 322.316406 344.773438 317.429688 339.433594 309.570312 Z M 392.246094 337.707031 C 391.644531 340.128906 389.605469 342.566406 386.410156 342.566406 C 385.859375 342.566406 385.289062 342.496094 384.699219 342.355469 C 382.363281 341.808594 380.746094 340.371094 380.136719 338.300781 C 379.476562 336.054688 380.105469 333.523438 381.730469 331.847656 C 382.8125 330.738281 384.242188 330.148438 385.867188 330.148438 C 386.492188 330.148438 387.140625 330.234375 387.796875 330.40625 C 391.832031 331.46875 392.933594 334.9375 392.246094 337.707031 Z M 409.308594 419.46875 C 402.875 434.539062 386.890625 445.066406 370.4375 445.066406 C 370.03125 445.066406 369.621094 445.054688 369.1875 445.046875 C 364.621094 444.894531 358.183594 443.84375 353.453125 439.726562 C 348.96875 435.8125 347.183594 429.742188 349.109375 424.972656 C 350.503906 421.539062 353.445312 419.128906 356.566406 416.570312 L 356.976562 416.234375 C 357.363281 415.917969 357.746094 415.605469 358.097656 415.304688 C 363.066406 411.136719 365.398438 407.121094 365.226562 403.027344 C 365.105469 400.191406 363.773438 397.734375 362.484375 395.351562 C 361.402344 393.363281 360.378906 391.484375 360.039062 389.410156 C 358.988281 382.972656 364.992188 377.425781 370.457031 374.636719 C 376.90625 371.328125 383.167969 369.582031 388.5625 369.582031 C 395.296875 369.582031 400.699219 372.285156 404.191406 377.40625 C 413.078125 390.433594 414.992188 406.15625 409.308594 419.46875 Z M 411.007812 342.359375 C 410.78125 342.378906 410.558594 342.386719 410.339844 342.386719 C 408.25 342.386719 406.609375 341.515625 405.589844 339.863281 C 404.332031 337.835938 404.3125 335.027344 405.542969 333.027344 C 406.78125 331.015625 408.757812 330.59375 410.191406 330.59375 C 410.414062 330.59375 410.644531 330.601562 410.878906 330.621094 C 414.691406 330.953125 416.433594 333.953125 416.441406 336.59375 C 416.4375 338.554688 415.300781 341.976562 411.007812 342.359375 Z M 417.09375 311.082031 C 414.949219 313.957031 406.835938 322.296875 401.050781 322.296875 C 400.601562 322.296875 400.199219 322.246094 399.824219 322.140625 C 396.558594 321.246094 396.335938 313.671875 399.222656 301.871094 C 399.855469 299.265625 400.96875 295.457031 403.363281 292.464844 C 405.578125 289.691406 408.6875 288.03125 411.683594 288.03125 L 411.820312 288.035156 C 416.230469 288.117188 420.476562 292.234375 421.285156 297.214844 C 421.996094 301.609375 420.511719 306.53125 417.09375 311.082031 Z M 419.191406 276.824219 C 418.289062 277.191406 417.367188 277.386719 416.527344 277.386719 C 415.613281 277.386719 414.8125 277.160156 414.214844 276.738281 C 412.015625 275.175781 411.425781 272.617188 412.601562 269.707031 C 413.761719 266.84375 416.8125 263.796875 420.191406 263.796875 C 420.476562 263.796875 420.761719 263.816406 421.039062 263.859375 C 422.878906 264.144531 425.136719 265.011719 425.429688 267.507812 C 425.824219 270.824219 422.785156 275.351562 419.191406 276.824219 Z M 419.191406 276.824219 " style=" stroke:none;fill-rule:nonzero;fill:rgb(15.686275%,56.078431%,78.823529%);fill-opacity:1;" />
<path d="M 245.730469 27.640625 C 246.027344 27.640625 246.320312 27.628906 246.609375 27.605469 C 250.910156 27.289062 254.9375 24.980469 257.113281 21.582031 C 259.417969 17.992188 259.574219 13.238281 257.511719 9.765625 C 255.53125 6.417969 252.40625 4.574219 248.71875 4.574219 C 246.210938 4.574219 243.988281 5.402344 242.546875 6.109375 C 237.082031 8.820312 232.660156 15.113281 235.226562 21.421875 C 236.949219 25.71875 241.742188 27.640625 245.730469 27.640625 Z M 245.730469 27.640625 " style=" stroke:none;fill-rule:nonzero;fill:rgb(35.686275%,81.568627%,98.823529%);fill-opacity:1;" />
<path d="M 490.339844 70.675781 C 472.207031 66.648438 452.695312 65.824219 428.980469 65.824219 C 425.082031 65.824219 421.1875 65.84375 417.316406 65.867188 L 416.183594 65.871094 C 412.777344 65.886719 409.441406 65.898438 406.148438 65.898438 C 399.683594 65.898438 394.71875 65.84375 390.046875 65.71875 C 357.972656 64.867188 325.3125 64.4375 292.976562 64.4375 C 251.203125 64.4375 209.066406 65.152344 167.738281 66.566406 C 126.28125 67.984375 84.089844 70.148438 42.261719 73.007812 C 34.667969 73.53125 26.0625 74.128906 18.558594 77.339844 C 10.511719 80.785156 4.855469 87.351562 4.15625 94.0625 C 3.449219 100.785156 7.925781 110.183594 19.421875 114.9375 C 27.578125 118.304688 36.882812 118.585938 44.960938 118.585938 C 46.058594 118.585938 47.148438 118.582031 48.214844 118.574219 L 461.34375 116.433594 C 470.359375 116.394531 479.6875 116.351562 488.429688 113.597656 C 498.507812 110.421875 508.433594 100.914062 507.90625 88.886719 C 507.519531 79.847656 500.953125 73.039062 490.339844 70.675781 Z M 470.425781 102.84375 C 462.402344 104.324219 453.792969 104.355469 445.460938 104.386719 L 61.320312 105.554688 C 53.863281 105.554688 45.277344 105.402344 37.765625 103.570312 C 30.367188 101.773438 23.300781 97.578125 24.101562 93.039062 C 24.703125 89.660156 29.753906 86.300781 36.972656 84.484375 C 43.898438 82.738281 51.851562 82.414062 58.871094 82.132812 C 97.164062 80.585938 136.089844 79.40625 174.570312 78.625 C 212.65625 77.859375 251.503906 77.46875 290.035156 77.46875 C 319.890625 77.46875 350.050781 77.703125 379.683594 78.164062 C 384.050781 78.234375 388.796875 78.269531 394.625 78.269531 C 397.964844 78.269531 401.363281 78.257812 404.839844 78.246094 C 408.410156 78.234375 412.003906 78.222656 415.601562 78.222656 C 437.484375 78.222656 455.484375 78.675781 472.191406 80.871094 C 481.789062 82.125 487.824219 85.773438 487.949219 90.398438 C 488.097656 95.777344 480.886719 100.898438 470.425781 102.84375 Z M 470.425781 102.84375 " style=" stroke:none;fill-rule:nonzero;fill:rgb(68.627451%,47.45098%,47.45098%);fill-opacity:1;" />
<path d="M 420.21875 261.835938 C 415.925781 261.835938 412.21875 265.429688 410.773438 268.988281 C 409.265625 272.746094 410.132812 276.242188 413.074219 278.324219 C 414.015625 278.996094 415.199219 279.347656 416.5 279.347656 C 417.890625 279.347656 419.128906 278.964844 419.925781 278.640625 C 424.316406 276.847656 427.867188 271.433594 427.375 267.238281 C 427.007812 264.347656 424.863281 262.460938 421.429688 261.945312 C 421.03125 261.871094 420.625 261.835938 420.21875 261.835938 Z M 420.21875 261.835938 " style=" stroke:none;fill-rule:nonzero;fill:rgb(58.039216%,77.647059%,40.784314%);fill-opacity:1;" />
<path d="M 227.464844 218.769531 C 229.84375 224.632812 232.089844 230.167969 230.347656 235.71875 C 229.445312 238.597656 227.492188 241.121094 225.609375 243.558594 C 223.445312 246.347656 221.210938 249.234375 220.335938 252.785156 C 219.222656 257.363281 220.851562 261.222656 222.414062 263.640625 C 225.167969 267.945312 229.992188 271.21875 235.007812 272.179688 C 236.507812 272.46875 238.0625 272.613281 239.636719 272.613281 C 245.578125 272.613281 252.265625 270.535156 260.070312 266.261719 C 261.664062 265.398438 263.253906 264.476562 264.792969 263.585938 L 265.429688 263.21875 C 270.929688 260.023438 276.613281 256.71875 282.800781 255.097656 C 285.625 254.359375 288.570312 253.984375 291.550781 253.984375 C 297.972656 253.984375 304.363281 255.742188 309.78125 258.96875 C 305.066406 260.1875 300.035156 261.75 296.011719 264.996094 C 291.507812 268.621094 288.277344 275.34375 290.820312 281.175781 C 293.035156 286.300781 298.972656 289.367188 307.558594 289.8125 C 308.683594 289.863281 309.824219 289.894531 310.988281 289.925781 C 316.246094 290.070312 321.214844 290.207031 325.347656 292.78125 C 329.4375 295.324219 331.714844 299.660156 334.125 304.246094 C 335.191406 306.28125 336.398438 308.585938 337.808594 310.671875 C 343.496094 319.035156 353.722656 324.230469 364.503906 324.230469 C 368.707031 324.230469 372.6875 323.429688 376.332031 321.847656 C 381.15625 319.761719 386.425781 315.425781 386.738281 309.503906 C 386.917969 305.84375 385.210938 302.636719 383.511719 299.453125 C 382.453125 297.476562 381.453125 295.605469 380.886719 293.605469 C 378.703125 285.933594 383.535156 277.972656 388.789062 273.074219 C 391.8125 270.242188 395.296875 267.832031 398.671875 265.496094 L 398.871094 265.359375 C 401.964844 263.210938 405.164062 260.988281 408.039062 258.421875 C 417.859375 249.636719 423.792969 235.636719 423.910156 220.96875 C 424.027344 207.261719 418.976562 194.664062 410.054688 186.410156 C 403.582031 180.421875 394.199219 178.394531 385.886719 176.601562 C 384.886719 176.382812 383.894531 176.164062 382.925781 175.945312 C 365.398438 172.019531 347.515625 169.476562 329.773438 168.386719 C 322.996094 167.976562 316.109375 167.765625 309.308594 167.765625 C 296.261719 167.765625 283.144531 168.53125 270.316406 170.042969 C 257.796875 171.519531 247.664062 173.640625 238.90625 179.175781 C 230.242188 184.65625 222.21875 195.460938 223.828125 207.25 C 224.375 211.25 226.011719 215.230469 227.464844 218.769531 Z M 227.464844 218.769531 " style=" stroke:none;fill-rule:nonzero;fill:rgb(58.039216%,77.647059%,40.784314%);fill-opacity:1;" />
<path d="M 423.21875 296.894531 C 422.253906 290.933594 417.265625 286.175781 411.800781 286.066406 L 411.660156 286.066406 C 408.097656 286.066406 404.425781 288 401.835938 291.242188 C 399.839844 293.734375 398.402344 296.96875 397.316406 301.410156 C 393.128906 318.507812 396.085938 323.144531 399.304688 324.027344 C 399.84375 324.175781 400.425781 324.25 401.03125 324.25 C 404.273438 324.25 407.894531 322.09375 410.367188 320.28125 C 413.875 317.703125 417.0625 314.394531 418.664062 312.257812 C 420.832031 309.382812 424.300781 303.558594 423.21875 296.894531 Z M 423.21875 296.894531 " style=" stroke:none;fill-rule:nonzero;fill:rgb(58.039216%,77.647059%,40.784314%);fill-opacity:1;" />
<path d="M 418.398438 336.582031 C 418.382812 333.078125 416.078125 329.109375 411.085938 328.667969 C 410.773438 328.640625 410.492188 328.636719 410.199219 328.636719 C 407.460938 328.636719 405.214844 329.828125 403.871094 332.007812 C 402.269531 334.621094 402.292969 338.277344 403.921875 340.910156 C 405.300781 343.128906 407.585938 344.347656 410.355469 344.347656 C 410.621094 344.347656 410.894531 344.339844 411.199219 344.3125 C 416.144531 343.863281 418.398438 339.996094 418.398438 336.582031 Z M 418.398438 336.582031 " style=" stroke:none;fill-rule:nonzero;fill:rgb(58.039216%,77.647059%,40.784314%);fill-opacity:1;" />
<path d="M 356.835938 413.800781 C 356.332031 414.226562 355.820312 414.648438 355.320312 415.0625 C 352.144531 417.65625 348.863281 420.339844 347.296875 424.230469 C 345.097656 429.683594 347.140625 436.816406 352.15625 441.195312 C 357.34375 445.714844 364.246094 446.847656 369.125 447.003906 C 369.535156 447.015625 369.945312 447.023438 370.359375 447.023438 C 387.621094 447.023438 404.378906 436.003906 411.105469 420.230469 C 416.964844 406.511719 414.933594 389.675781 405.808594 376.292969 C 401.960938 370.65625 396.054688 367.675781 388.71875 367.675781 C 385.214844 367.675781 381.371094 368.347656 377.289062 369.671875 C 373.980469 370.746094 371.261719 372.011719 369.558594 372.882812 C 363.503906 375.988281 356.875 382.261719 358.109375 389.730469 C 358.5 392.125 359.648438 394.242188 360.761719 396.296875 C 362 398.570312 363.167969 400.71875 363.269531 403.117188 C 363.410156 406.554688 361.308594 410.046875 356.835938 413.800781 Z M 356.835938 413.800781 " style=" stroke:none;fill-rule:nonzero;fill:rgb(58.039216%,77.647059%,40.784314%);fill-opacity:1;" />
<path d="M 384.257812 344.265625 C 384.957031 344.429688 385.65625 344.511719 386.335938 344.511719 C 390.070312 344.511719 393.207031 341.96875 394.140625 338.191406 C 395.0625 334.503906 393.621094 329.902344 388.277344 328.507812 C 387.441406 328.292969 386.621094 328.183594 385.839844 328.183594 C 383.703125 328.183594 381.738281 329.007812 380.328125 330.484375 C 378.222656 332.652344 377.40625 335.933594 378.25 338.863281 C 378.722656 340.464844 380.132812 343.296875 384.257812 344.265625 Z M 384.257812 344.265625 " style=" stroke:none;fill-rule:nonzero;fill:rgb(58.039216%,77.647059%,40.784314%);fill-opacity:1;" />
<path d="M 291.84375 360.355469 C 294.941406 355.601562 297.867188 351.113281 299.917969 345.917969 C 306.609375 328.972656 301.382812 310.328125 285.933594 296.039062 C 280.875 291.367188 275.253906 289.09375 268.75 289.09375 C 263.046875 289.09375 256.800781 290.730469 247.855469 294.558594 C 237.757812 298.890625 228.363281 304.566406 219.929688 311.441406 C 211.125 318.636719 206.972656 325.5625 207.242188 332.609375 C 207.566406 341.023438 214 347.394531 220.910156 353.035156 C 227.007812 358.019531 233.921875 363.667969 235.285156 371.363281 C 236.300781 377.007812 234.210938 382.414062 232 388.136719 C 230.636719 391.679688 229.085938 395.695312 228.492188 399.71875 C 226.90625 410.472656 232.433594 422.648438 242.566406 430.738281 C 251.921875 438.214844 263.4375 441.8125 274.488281 444.585938 C 276.730469 445.148438 279.664062 445.792969 282.507812 445.792969 C 285.773438 445.792969 288.453125 444.925781 290.472656 443.210938 C 294.800781 439.53125 294.742188 433.257812 293.375 428.996094 C 292.324219 425.730469 290.605469 422.925781 288.785156 419.957031 L 288.726562 419.863281 C 287.90625 418.539062 287.226562 417.421875 286.585938 416.292969 C 279.058594 402.824219 278.472656 385.804688 285.0625 371.867188 C 286.984375 367.800781 289.5625 363.84375 291.84375 360.355469 Z M 291.84375 360.355469 " style=" stroke:none;fill-rule:nonzero;fill:rgb(58.039216%,77.647059%,40.784314%);fill-opacity:1;" />
<path d="M 268.753906 284.730469 C 269.328125 284.730469 269.941406 284.707031 270.589844 284.65625 C 274.898438 284.308594 282.03125 280.957031 283.394531 276.542969 C 283.828125 275.207031 284.058594 272.5625 280.714844 269.875 C 278.996094 268.496094 276.449219 267.734375 273.550781 267.734375 C 271.589844 267.734375 269.539062 268.074219 267.628906 268.714844 C 263.203125 270.175781 260.179688 272.878906 259.328125 276.113281 C 258.53125 279.113281 260.488281 282.039062 262.84375 283.386719 C 264.441406 284.292969 266.375 284.730469 268.753906 284.730469 Z M 268.753906 284.730469 " style=" stroke:none;fill-rule:nonzero;fill:rgb(58.039216%,77.647059%,40.784314%);fill-opacity:1;" />
<path d="M 195.890625 230.078125 C 195.160156 233.671875 195.777344 237.25 197.578125 239.890625 C 200.453125 244.121094 203.945312 245.011719 206.367188 245.011719 C 207.125 245.011719 207.90625 244.925781 208.6875 244.757812 C 214.761719 243.460938 220.632812 237.164062 221.773438 230.726562 C 222.714844 225.394531 221.140625 219.761719 217.855469 216.714844 C 216.132812 215.101562 213.960938 214.25 211.574219 214.25 C 210.648438 214.25 209.679688 214.378906 208.6875 214.628906 C 202.304688 216.253906 197.167969 223.761719 195.890625 230.078125 Z M 195.890625 230.078125 " style=" stroke:none;fill-rule:nonzero;fill:rgb(58.039216%,77.647059%,40.784314%);fill-opacity:1;" />
<path d="M 212.347656 268.667969 C 212.3125 265.683594 208.769531 263.613281 205.808594 262.398438 C 203.628906 261.507812 201.636719 261.03125 200.046875 261.03125 C 198.660156 261.03125 197.546875 261.394531 196.804688 262.054688 C 195.546875 263.105469 195.023438 264.644531 195.320312 266.367188 C 195.839844 269.480469 198.832031 272.714844 201.203125 273.671875 C 202.304688 274.109375 203.535156 274.203125 204.375 274.203125 C 205.421875 274.203125 208.070312 274.050781 210.160156 272.628906 C 212.023438 271.34375 212.378906 269.742188 212.347656 268.667969 Z M 212.347656 268.667969 " style=" stroke:none;fill-rule:nonzero;fill:rgb(58.039216%,77.647059%,40.784314%);fill-opacity:1;" />
<path d="M 85.339844 243.105469 L 85.457031 243.269531 C 87.96875 246.863281 90.566406 250.578125 92.859375 254.382812 C 99.089844 264.734375 101.730469 273.890625 100.925781 282.425781 C 100.515625 288.054688 99.464844 293.683594 98.449219 299.121094 L 97.871094 302.207031 L 97.859375 302.308594 C 97.738281 303.324219 97.449219 304.445312 97.164062 305.53125 C 97.15625 305.550781 97.148438 305.570312 97.144531 305.59375 C 96.300781 308.011719 95.460938 310.429688 94.621094 312.855469 L 93.492188 316.125 C 91.195312 322.777344 88.589844 330.320312 85.972656 337.59375 C 83.261719 344.707031 80.1875 352.769531 81.050781 361.117188 C 82.074219 369.082031 86.851562 375.917969 91.21875 381.660156 C 105.53125 401.113281 121.832031 419.207031 139.652344 435.421875 C 142.433594 437.980469 146.144531 440.921875 150.199219 440.921875 C 150.882812 440.921875 151.558594 440.835938 152.210938 440.671875 L 152.554688 440.582031 L 152.863281 440.417969 C 159.121094 437.125 157.355469 427.660156 156.410156 422.609375 C 152.742188 401.5625 157.65625 379.460938 169.890625 361.984375 C 170.4375 361.207031 171 360.414062 171.574219 359.613281 C 176.785156 352.335938 182.695312 344.089844 179.699219 335.53125 L 179.648438 335.402344 C 176.832031 328.40625 169.59375 325.515625 162.550781 322.703125 C 158.160156 320.949219 153.621094 319.140625 150.152344 316.316406 C 141.847656 309.554688 140.503906 297.039062 139.425781 286.980469 L 139.410156 286.863281 C 138.34375 278.941406 136.734375 266.976562 143.335938 260.019531 C 147.71875 255.871094 153.800781 255.03125 160.289062 254.136719 C 166.574219 253.285156 173.074219 252.402344 177.90625 248.234375 L 177.9375 248.210938 C 182.222656 244.863281 184.703125 239.078125 185.523438 230.527344 C 185.628906 229.398438 185.710938 228.273438 185.789062 227.140625 L 185.855469 226.203125 C 186.195312 221.355469 186.546875 216.339844 188.425781 211.957031 C 189.949219 208.539062 192.546875 205.535156 195.101562 202.574219 C 198.789062 198.308594 202.597656 193.894531 203.125 188.148438 L 203.136719 187.957031 C 203.425781 177.347656 191.949219 170.734375 187.007812 168.386719 C 174.546875 162.449219 160.921875 159.566406 145.351562 159.566406 C 140.121094 159.566406 134.523438 159.894531 128.707031 160.546875 C 115.566406 162.011719 95.707031 164.226562 83.890625 173.230469 C 75.929688 179.296875 70.597656 188.34375 69.242188 198.074219 L 69.1875 198.304688 L 69.1875 198.417969 C 67.25 210.40625 71.914062 221.671875 76.160156 228.992188 C 78.980469 234.027344 82.359375 238.847656 85.339844 243.105469 Z M 85.339844 243.105469 " style=" stroke:none;fill-rule:nonzero;fill:rgb(58.039216%,77.647059%,40.784314%);fill-opacity:1;" />
<path d="M 52.171875 474.675781 L 442.910156 483.550781 L 470.984375 137.757812 L 467.703125 137.785156 C 465.324219 137.804688 461.929688 137.824219 457.75 137.84375 C 449.203125 137.894531 437.363281 137.953125 424.242188 138.015625 C 403.664062 138.117188 379.914062 138.21875 360.675781 138.300781 L 336.371094 138.40625 C 330.527344 138.433594 326.390625 138.453125 324.675781 138.464844 L 65.359375 139.734375 C 63.753906 139.734375 61.859375 139.628906 60.0625 139.519531 C 57.679688 139.375 55.34375 139.246094 52.949219 139.246094 C 46.886719 139.246094 43.113281 140.148438 40.71875 142.167969 C 36.460938 145.75 36.496094 154.28125 36.933594 163.457031 C 37.035156 165.613281 37.136719 167.84375 37.082031 169.59375 L 27.679688 447.546875 C 27.40625 455.820312 27.609375 464.335938 33.207031 469.574219 C 37.917969 473.996094 44.867188 474.511719 52.171875 474.675781 Z M 39.816406 436.269531 L 48.726562 176.605469 C 48.777344 175.066406 48.6875 173.148438 48.589844 171.113281 L 48.574219 170.84375 C 48.234375 163.703125 47.816406 154.816406 51.992188 151.335938 C 54.152344 149.546875 57.730469 148.714844 63.261719 148.714844 C 65.546875 148.714844 67.90625 148.855469 70 148.980469 C 72.039062 149.09375 73.59375 149.175781 75.023438 149.183594 L 320.710938 147.984375 L 340.242188 147.90625 C 373.511719 147.761719 449.304688 147.4375 458.804688 147.328125 L 432.285156 469.394531 L 62.554688 461.117188 C 55.996094 460.96875 49.230469 460.488281 44.894531 456.480469 C 40.332031 452.265625 39.746094 445.355469 39.746094 439.804688 C 39.75 438.617188 39.777344 437.433594 39.816406 436.269531 Z M 39.816406 436.269531 " style=" stroke:none;fill-rule:nonzero;fill:rgb(74.901961%,78.039216%,84.705882%);fill-opacity:1;" />
<path d="M 511.976562 88.714844 C 511.5 77.71875 503.742188 69.492188 491.222656 66.707031 C 467.976562 61.539062 442.214844 61.667969 417.292969 61.792969 C 407.84375 61.839844 398.914062 61.886719 390.15625 61.652344 C 381.65625 61.425781 373.136719 61.238281 364.609375 61.074219 C 364.316406 60.636719 363.933594 60.25 363.449219 59.96875 C 330.753906 41.191406 296.585938 24.203125 261.886719 9.445312 C 261.636719 8.839844 261.347656 8.246094 261.007812 7.679688 C 256.820312 0.628906 248.675781 -1.472656 240.742188 2.460938 C 236.84375 4.394531 233.386719 7.796875 231.628906 11.894531 C 217.871094 20.441406 203.234375 29.019531 189.082031 37.320312 C 174.851562 45.660156 160.140625 54.285156 146.277344 62.898438 C 146.078125 63.023438 145.894531 63.167969 145.730469 63.320312 C 111.179688 64.707031 76.40625 66.589844 42.058594 68.945312 C 34.117188 69.488281 25.121094 70.105469 16.960938 73.597656 C 7.429688 77.675781 0.96875 85.359375 0.105469 93.640625 C -1.0625 104.851562 7.722656 114.054688 16.757812 118.207031 C 16.742188 118.316406 16.710938 118.414062 16.703125 118.523438 C 6.992188 244.839844 6.414062 370.066406 14.933594 501.367188 C 15.050781 503.207031 16.5625 504.644531 18.402344 504.671875 L 437.394531 511.273438 C 438.441406 511.289062 439.527344 511.308594 440.644531 511.308594 C 446.550781 511.308594 453.253906 510.828125 458.960938 507.242188 C 469.277344 500.765625 471.503906 487.890625 472.378906 474.941406 L 496.613281 115.28125 C 496.632812 114.996094 496.609375 114.71875 496.5625 114.449219 C 506.324219 108.878906 512.425781 99.066406 511.976562 88.714844 Z M 243.882812 8.796875 C 244.738281 8.371094 246.621094 7.578125 248.71875 7.578125 C 250.855469 7.578125 253.21875 8.402344 254.933594 11.292969 C 256.410156 13.78125 256.269531 17.347656 254.589844 19.960938 C 252.90625 22.582031 249.765625 24.367188 246.390625 24.617188 C 243.265625 24.84375 239.261719 23.417969 238.007812 20.308594 C 236.121094 15.65625 239.628906 10.902344 243.882812 8.796875 Z M 192.65625 43.417969 C 205.289062 36.011719 218.304688 28.378906 230.769531 20.730469 C 230.9375 21.46875 231.148438 22.210938 231.449219 22.957031 C 233.585938 28.238281 239.304688 31.714844 245.632812 31.714844 C 246.054688 31.714844 246.484375 31.699219 246.910156 31.667969 C 252.457031 31.257812 257.675781 28.234375 260.539062 23.78125 C 261.753906 21.886719 262.515625 19.75 262.835938 17.5625 C 292.726562 30.425781 322.183594 44.945312 350.613281 60.84375 C 289.671875 59.890625 228.285156 60.425781 167.597656 62.5 C 165.070312 62.585938 162.53125 62.683594 160 62.773438 C 170.765625 56.253906 181.847656 49.753906 192.65625 43.417969 Z M 465.324219 474.472656 C 464.578125 485.550781 462.835938 496.46875 455.199219 501.261719 C 450.191406 504.40625 443.160156 504.300781 437.503906 504.207031 L 21.777344 497.660156 C 13.535156 368.414062 14.148438 245.015625 23.636719 120.605469 C 30.703125 122.433594 38.078125 122.660156 44.964844 122.660156 C 46.070312 122.660156 47.160156 122.652344 48.234375 122.648438 L 461.367188 120.507812 C 470.179688 120.464844 480.15625 120.40625 489.375 117.5625 Z M 487.523438 110.738281 C 479.246094 113.347656 470.140625 113.394531 461.328125 113.4375 L 48.199219 115.578125 C 39.234375 115.625 29.070312 115.675781 20.570312 112.167969 C 13.285156 109.15625 6.332031 102.078125 7.136719 94.375 C 7.722656 88.726562 12.671875 83.121094 19.738281 80.097656 C 26.800781 77.074219 35.160156 76.503906 42.539062 75.996094 C 84.066406 73.148438 126.226562 70.984375 167.839844 69.566406 C 241.535156 67.046875 316.269531 66.765625 389.96875 68.71875 C 398.835938 68.953125 407.820312 68.910156 417.328125 68.863281 C 441.859375 68.738281 467.21875 68.613281 489.6875 73.609375 C 499.03125 75.6875 504.578125 81.304688 504.914062 89.019531 C 505.367188 99.539062 496.511719 107.90625 487.523438 110.738281 Z M 487.523438 110.738281 " style=" stroke:none;fill-rule:nonzero;fill:rgb(0%,0%,0%);fill-opacity:1;" />
<path d="M 472.578125 77.890625 C 451.359375 75.109375 427.707031 75.179688 404.832031 75.246094 C 396.089844 75.269531 387.835938 75.296875 379.726562 75.171875 C 311.636719 74.105469 242.59375 74.257812 174.511719 75.632812 C 136.050781 76.40625 97.101562 77.585938 58.75 79.136719 C 51.585938 79.425781 43.464844 79.753906 36.238281 81.574219 C 27.621094 83.75 21.980469 87.84375 21.152344 92.519531 C 19.972656 99.207031 28.289062 104.355469 37.058594 106.488281 C 44.765625 108.367188 53.394531 108.554688 61.316406 108.554688 C 62.320312 108.554688 63.316406 108.550781 64.296875 108.550781 L 445.46875 107.386719 C 453.929688 107.359375 462.679688 107.332031 470.964844 105.792969 C 483.105469 103.535156 491.136719 97.316406 490.949219 90.316406 C 490.78125 84.023438 483.914062 79.378906 472.578125 77.890625 Z M 470.226562 101.820312 C 462.300781 103.292969 453.738281 103.320312 445.460938 103.34375 L 64.285156 104.507812 C 55.816406 104.53125 46.222656 104.5625 38.015625 102.5625 C 30.199219 100.660156 24.542969 96.558594 25.132812 93.222656 C 25.648438 90.292969 30.511719 87.1875 37.226562 85.492188 C 44.046875 83.773438 51.945312 83.453125 58.910156 83.171875 C 97.238281 81.621094 136.160156 80.441406 174.589844 79.667969 C 212.910156 78.898438 251.523438 78.511719 290.109375 78.511719 C 320.035156 78.511719 349.945312 78.742188 379.660156 79.207031 C 387.808594 79.335938 396.082031 79.3125 404.84375 79.285156 C 427.589844 79.21875 451.101562 79.148438 472.054688 81.894531 C 481.109375 83.082031 486.800781 86.351562 486.910156 90.425781 C 487.019531 94.523438 481.324219 99.757812 470.226562 101.820312 Z M 470.226562 101.820312 " style=" stroke:none;fill-rule:nonzero;fill:rgb(0%,0%,0%);fill-opacity:1;" />
<path d="M 471.714844 133.671875 C 471.585938 133.664062 471.457031 133.667969 471.328125 133.675781 C 467.914062 133.769531 385.632812 134.125 345.960938 134.296875 C 335.089844 134.34375 327.210938 134.378906 324.65625 134.390625 L 65.320312 135.671875 C 63.972656 135.691406 62.179688 135.570312 60.308594 135.457031 C 52.84375 135.011719 43.5625 134.453125 38.097656 139.054688 C 31.949219 144.230469 32.457031 155 32.863281 163.652344 C 32.96875 165.847656 33.066406 167.921875 33.011719 169.457031 L 23.613281 447.410156 C 23.316406 456.207031 23.574219 466.132812 30.421875 472.546875 C 36.660156 478.394531 45.941406 478.605469 52.078125 478.746094 L 443.316406 487.628906 C 443.34375 487.632812 443.371094 487.632812 443.398438 487.632812 C 445.234375 487.632812 446.769531 486.222656 446.921875 484.382812 L 475.074219 137.695312 C 475.097656 137.523438 475.105469 137.355469 475.105469 137.203125 C 475.105469 135.304688 473.609375 133.746094 471.714844 133.671875 Z M 440.144531 480.484375 L 52.238281 471.679688 C 45.539062 471.527344 39.195312 471.082031 35.253906 467.390625 C 30.566406 462.996094 30.425781 455.226562 30.679688 447.648438 C 30.679688 447.648438 30.679688 447.648438 30.679688 447.644531 L 40.078125 169.695312 C 40.140625 167.878906 40.035156 165.660156 39.925781 163.316406 C 39.625 156.972656 39.175781 147.386719 42.652344 144.460938 C 44.757812 142.6875 48.785156 142.242188 52.949219 142.242188 C 55.324219 142.242188 57.746094 142.386719 59.882812 142.515625 C 61.871094 142.636719 63.714844 142.738281 65.355469 142.738281 L 324.691406 141.460938 C 327.246094 141.449219 335.121094 141.414062 345.992188 141.367188 C 366.617188 141.277344 398.015625 141.140625 424.257812 141.015625 C 437.382812 140.953125 449.214844 140.894531 457.769531 140.847656 C 461.953125 140.820312 465.351562 140.800781 467.734375 140.78125 Z M 440.144531 480.484375 " style=" stroke:none;fill-rule:nonzero;fill:rgb(0%,0%,0%);fill-opacity:1;" />
<path d="M 320.699219 144.988281 L 75.007812 146.179688 C 73.625 146.175781 71.96875 146.085938 70.171875 145.980469 C 63.34375 145.574219 54.851562 145.070312 50.082031 149.03125 C 44.746094 153.460938 45.210938 163.175781 45.582031 170.980469 C 45.683594 173.058594 45.777344 175.023438 45.726562 176.503906 L 36.820312 436.164062 C 36.550781 444.105469 36.769531 453.050781 42.859375 458.679688 C 47.96875 463.402344 55.359375 463.953125 62.488281 464.113281 L 433.140625 472.414062 C 433.15625 472.414062 433.171875 472.414062 433.183594 472.414062 C 434.234375 472.414062 435.109375 471.609375 435.195312 470.5625 L 461.871094 146.683594 C 461.886719 146.570312 461.894531 146.453125 461.894531 146.328125 C 461.894531 145.246094 461.039062 144.355469 459.957031 144.3125 C 459.871094 144.308594 459.792969 144.3125 459.714844 144.316406 C 456.929688 144.402344 375.222656 144.753906 340.222656 144.902344 C 330.265625 144.945312 323.066406 144.976562 320.699219 144.988281 Z M 414.628906 148.613281 C 427.15625 148.554688 438.472656 148.496094 446.652344 148.453125 C 450.746094 148.429688 454.054688 148.40625 456.34375 148.390625 C 456.835938 148.386719 457.28125 148.382812 457.679688 148.378906 L 431.328125 468.332031 L 62.578125 460.078125 C 55.960938 459.929688 49.679688 459.484375 45.601562 455.714844 C 40.761719 451.242188 40.617188 443.351562 40.855469 436.304688 L 49.761719 176.640625 C 49.816406 174.996094 49.71875 172.953125 49.617188 170.789062 C 49.304688 164.246094 48.875 155.28125 52.660156 152.140625 C 56.199219 149.199219 64.136719 149.671875 69.929688 150.015625 C 71.792969 150.125 73.554688 150.214844 75.027344 150.222656 L 320.71875 149.027344 C 323.085938 149.015625 330.285156 148.984375 340.242188 148.941406 C 359.660156 148.859375 389.570312 148.730469 414.628906 148.613281 Z M 414.628906 148.613281 " style=" stroke:none;fill-rule:nonzero;fill:rgb(0%,0%,0%);fill-opacity:1;" />
<path d="M 170.746094 362.578125 C 171.289062 361.800781 171.855469 361.011719 172.425781 360.214844 C 177.785156 352.730469 183.859375 344.246094 180.648438 335.105469 C 177.636719 327.601562 170.179688 324.628906 162.96875 321.753906 C 158.644531 320.027344 154.167969 318.242188 150.808594 315.511719 C 142.832031 309.007812 141.566406 297.226562 140.449219 286.777344 C 139.066406 276.503906 138.3125 266.773438 144.070312 260.75 C 148.164062 256.851562 154.125 256.035156 160.4375 255.171875 C 166.855469 254.292969 173.492188 253.386719 178.542969 249.058594 C 183.09375 245.519531 185.714844 239.492188 186.558594 230.628906 C 186.691406 229.21875 186.789062 227.792969 186.890625 226.367188 C 187.234375 221.355469 187.5625 216.621094 189.386719 212.355469 C 190.84375 209.101562 193.398438 206.144531 195.867188 203.289062 C 199.683594 198.871094 203.632812 194.304688 204.167969 188.167969 C 204.171875 188.132812 204.171875 188.09375 204.175781 188.058594 C 204.425781 180.140625 198.328125 172.628906 187.453125 167.445312 C 170.621094 159.429688 151.917969 156.90625 128.601562 159.507812 C 115.34375 160.988281 95.304688 163.222656 83.261719 172.402344 C 75.0625 178.648438 69.574219 187.988281 68.199219 198.027344 C 66.117188 210.421875 70.902344 222.011719 75.269531 229.523438 C 78.046875 234.5 81.320312 239.179688 84.488281 243.703125 C 87.027344 247.335938 89.660156 251.09375 91.964844 254.921875 C 98.078125 265.070312 100.675781 274.015625 99.894531 282.3125 C 99.472656 288.035156 98.402344 293.734375 97.363281 299.25 L 96.851562 302 C 96.84375 302.046875 96.835938 302.09375 96.832031 302.140625 C 96.722656 303.097656 96.445312 304.164062 96.140625 305.316406 C 94.925781 308.796875 93.71875 312.289062 92.511719 315.789062 C 90.070312 322.847656 87.550781 330.148438 84.992188 337.265625 C 82.246094 344.472656 79.132812 352.640625 80.015625 361.199219 C 81.074219 369.46875 85.941406 376.445312 90.398438 382.308594 C 104.773438 401.832031 121.117188 419.96875 138.960938 436.203125 C 141.984375 438.984375 145.859375 441.972656 150.164062 441.972656 C 151.015625 441.972656 151.882812 441.855469 152.765625 441.597656 C 152.871094 441.566406 152.976562 441.527344 153.074219 441.476562 C 160.339844 437.96875 158.371094 427.445312 157.429688 422.410156 C 153.808594 401.636719 158.660156 379.828125 170.746094 362.578125 Z M 153.460938 423.125 C 154.660156 429.558594 155.246094 435.773438 151.472656 437.761719 C 148.113281 438.621094 144.492188 435.800781 141.691406 433.21875 C 124.035156 417.160156 107.875 399.222656 93.636719 379.886719 C 89.476562 374.414062 84.957031 367.964844 84.03125 360.734375 C 83.253906 353.179688 86.183594 345.488281 88.785156 338.667969 C 91.363281 331.492188 93.890625 324.179688 96.332031 317.105469 C 97.546875 313.589844 98.761719 310.074219 99.984375 306.570312 C 100 306.523438 100.019531 306.449219 100.035156 306.398438 C 100.359375 305.179688 100.691406 303.914062 100.839844 302.667969 L 101.339844 299.996094 C 102.394531 294.371094 103.484375 288.554688 103.921875 282.648438 C 104.78125 273.503906 102.003906 263.753906 95.425781 252.835938 C 93.050781 248.890625 90.382812 245.074219 87.800781 241.386719 C 84.691406 236.945312 81.476562 232.351562 78.78125 227.527344 C 74.726562 220.550781 70.292969 209.882812 72.1875 198.671875 C 72.191406 198.648438 72.195312 198.628906 72.199219 198.605469 C 73.425781 189.605469 78.347656 181.222656 85.710938 175.617188 C 96.867188 167.113281 116.234375 164.953125 129.050781 163.523438 C 151.59375 161.007812 169.597656 163.414062 185.71875 171.09375 C 190.136719 173.199219 200.375 179.042969 200.140625 187.875 C 199.699219 192.679688 196.351562 196.550781 192.8125 200.648438 C 190.152344 203.726562 187.398438 206.910156 185.6875 210.738281 C 183.582031 215.660156 183.214844 220.964844 182.859375 226.089844 C 182.765625 227.480469 182.671875 228.871094 182.539062 230.246094 C 181.804688 237.964844 179.675781 243.082031 176.035156 245.894531 C 176.007812 245.914062 175.980469 245.9375 175.949219 245.964844 C 171.796875 249.542969 166.015625 250.332031 159.890625 251.171875 C 153.222656 252.082031 146.324219 253.027344 141.21875 257.894531 C 133.570312 265.890625 135.300781 278.785156 136.441406 287.261719 C 137.578125 297.878906 138.992188 311.09375 148.261719 318.644531 C 152.101562 321.765625 156.867188 323.667969 161.476562 325.503906 C 168.191406 328.183594 174.535156 330.710938 176.871094 336.527344 C 179.351562 343.605469 174.164062 350.855469 169.144531 357.867188 C 168.5625 358.675781 167.992188 359.472656 167.441406 360.261719 C 154.742188 378.382812 149.648438 401.285156 153.460938 423.125 Z M 153.460938 423.125 " style=" stroke:none;fill-rule:nonzero;fill:rgb(0%,0%,0%);fill-opacity:1;" />
<path d="M 270.195312 169.015625 C 259.246094 170.304688 247.808594 172.324219 238.351562 178.300781 C 229.402344 183.957031 221.121094 195.144531 222.800781 207.390625 C 223.359375 211.464844 224.945312 215.363281 226.484375 219.132812 C 228.804688 224.824219 230.992188 230.199219 229.359375 235.410156 C 228.515625 238.097656 226.699219 240.441406 224.78125 242.921875 C 222.554688 245.800781 220.25 248.777344 219.328125 252.535156 C 218.386719 256.378906 219.171875 260.523438 221.535156 264.203125 C 224.453125 268.742188 229.535156 272.191406 234.808594 273.199219 C 244.589844 275.070312 254.199219 270.65625 260.578125 267.171875 C 262.386719 266.183594 264.191406 265.132812 265.941406 264.117188 C 271.644531 260.808594 277.03125 257.683594 283.0625 256.101562 C 291.019531 254.019531 299.675781 254.980469 307.015625 258.640625 C 302.957031 259.808594 298.820312 261.386719 295.347656 264.1875 C 290.546875 268.0625 287.117188 275.285156 289.859375 281.59375 C 293.085938 289.015625 302.28125 290.574219 307.480469 290.84375 C 308.617188 290.902344 309.773438 290.933594 310.933594 290.964844 C 316.058594 291.105469 320.898438 291.234375 324.789062 293.660156 C 328.640625 296.058594 330.855469 300.273438 333.199219 304.734375 C 334.347656 306.914062 335.535156 309.171875 336.945312 311.25 C 343.015625 320.179688 353.691406 325.320312 364.347656 325.316406 C 368.578125 325.316406 372.808594 324.507812 376.742188 322.804688 C 383.363281 319.933594 387.488281 314.984375 387.765625 309.5625 C 387.972656 305.59375 386.175781 302.234375 384.4375 298.988281 C 383.402344 297.050781 382.421875 295.222656 381.882812 293.324219 C 379.832031 286.101562 384.464844 278.519531 389.488281 273.832031 C 392.453125 271.066406 395.753906 268.777344 399.253906 266.355469 C 402.441406 264.148438 405.738281 261.863281 408.722656 259.195312 C 418.753906 250.234375 424.820312 235.945312 424.949219 220.976562 C 425.070312 206.976562 419.894531 194.097656 410.753906 185.644531 C 404.070312 179.460938 394.523438 177.398438 386.097656 175.578125 C 385.097656 175.363281 384.113281 175.152344 383.144531 174.933594 C 365.570312 170.996094 347.636719 168.445312 329.832031 167.355469 C 309.933594 166.136719 289.863281 166.695312 270.195312 169.015625 Z M 329.589844 171.390625 C 347.179688 172.46875 364.902344 174.988281 382.265625 178.878906 C 383.242188 179.097656 384.238281 179.3125 385.25 179.53125 C 393.164062 181.242188 402.140625 183.179688 408.015625 188.609375 C 416.320312 196.292969 421.023438 208.078125 420.914062 220.945312 C 420.796875 234.792969 415.234375 247.96875 406.035156 256.1875 C 403.238281 258.6875 400.042969 260.898438 396.953125 263.035156 C 393.492188 265.433594 389.914062 267.914062 386.734375 270.882812 C 380.839844 276.382812 375.449219 285.457031 378 294.429688 C 378.65625 296.746094 379.785156 298.855469 380.878906 300.894531 C 382.421875 303.78125 383.882812 306.507812 383.734375 309.355469 C 383.5 313.890625 379.140625 317.363281 375.136719 319.097656 C 363.222656 324.261719 347.589844 319.722656 340.289062 308.980469 C 339.003906 307.089844 337.871094 304.9375 336.777344 302.851562 C 334.28125 298.109375 331.703125 293.207031 326.925781 290.230469 C 322.101562 287.226562 316.480469 287.074219 311.042969 286.925781 C 309.914062 286.898438 308.792969 286.867188 307.6875 286.808594 C 303.425781 286.589844 295.921875 285.410156 293.5625 279.984375 C 291.648438 275.578125 294.359375 270.175781 297.886719 267.332031 C 302.027344 263.988281 307.695312 262.574219 312.695312 261.324219 C 313.464844 261.128906 314.050781 260.503906 314.195312 259.722656 C 314.335938 258.945312 314.007812 258.152344 313.355469 257.699219 C 306.980469 253.300781 299.265625 250.980469 291.546875 250.980469 C 288.34375 250.980469 285.144531 251.378906 282.039062 252.195312 C 275.476562 253.914062 269.597656 257.324219 263.914062 260.625 C 262.1875 261.628906 260.402344 262.664062 258.644531 263.625 C 249.375 268.6875 242.039062 270.472656 235.566406 269.230469 C 231.347656 268.421875 227.273438 265.660156 224.9375 262.023438 C 223.691406 260.082031 222.386719 257.027344 223.253906 253.496094 C 223.96875 250.570312 225.914062 248.058594 227.976562 245.394531 C 230.027344 242.738281 232.152344 239.996094 233.214844 236.617188 C 235.28125 230.019531 232.710938 223.710938 230.222656 217.605469 C 228.78125 214.070312 227.289062 210.410156 226.800781 206.839844 C 225.367188 196.371094 232.652344 186.679688 240.507812 181.714844 C 248.796875 176.472656 258.558594 174.449219 270.667969 173.023438 C 290.101562 170.734375 309.921875 170.183594 329.589844 171.390625 Z M 329.589844 171.390625 " style=" stroke:none;fill-rule:nonzero;fill:rgb(0%,0%,0%);fill-opacity:1;" />
<path d="M 289.613281 419.328125 C 288.898438 418.167969 288.160156 416.96875 287.496094 415.78125 C 280.125 402.613281 279.550781 385.957031 286 372.3125 C 287.863281 368.367188 290.328125 364.578125 292.714844 360.914062 C 295.710938 356.320312 298.804688 351.570312 300.886719 346.300781 C 307.746094 328.9375 302.417969 309.863281 286.640625 295.277344 C 274.039062 283.628906 259.800781 288.304688 247.449219 293.601562 C 237.261719 297.96875 227.785156 303.699219 219.28125 310.636719 C 210.195312 318.050781 205.917969 325.253906 206.207031 332.65625 C 206.550781 341.5 213.496094 348.328125 220.25 353.84375 C 226.5 358.949219 232.964844 364.230469 234.269531 371.539062 C 235.222656 376.902344 233.1875 382.179688 231.035156 387.765625 C 229.574219 391.554688 228.066406 395.46875 227.460938 399.566406 C 225.800781 410.847656 231.339844 423.101562 241.917969 431.554688 C 251.425781 439.148438 263.070312 442.789062 274.238281 445.597656 C 276.925781 446.269531 279.785156 446.835938 282.542969 446.835938 C 285.664062 446.835938 288.65625 446.113281 291.136719 444.011719 C 295.859375 440.007812 295.828125 433.253906 294.367188 428.683594 C 293.269531 425.261719 291.410156 422.246094 289.613281 419.328125 Z M 288.523438 440.929688 C 285.242188 443.710938 279.957031 442.867188 275.21875 441.679688 C 264.496094 438.984375 253.34375 435.511719 244.4375 428.398438 C 235.121094 420.953125 230.023438 409.867188 231.453125 400.152344 C 231.992188 396.503906 233.421875 392.800781 234.800781 389.21875 C 237.058594 383.363281 239.394531 377.304688 238.242188 370.832031 C 236.675781 362.050781 229.304688 356.03125 222.792969 350.710938 C 216.441406 345.519531 210.523438 339.722656 210.238281 332.5 C 210.003906 326.449219 213.796875 320.324219 221.832031 313.769531 C 230.042969 307.070312 239.199219 301.535156 249.039062 297.316406 C 256.425781 294.152344 262.878906 292.09375 268.742188 292.09375 C 274.21875 292.09375 279.179688 293.890625 283.894531 298.246094 C 298.402344 311.65625 303.351562 329.066406 297.128906 344.816406 C 295.195312 349.707031 292.347656 354.082031 289.332031 358.714844 C 286.871094 362.488281 284.328125 366.398438 282.347656 370.589844 C 275.351562 385.394531 275.972656 403.46875 283.972656 417.757812 C 284.675781 419.015625 285.4375 420.253906 286.175781 421.449219 C 287.921875 424.285156 289.574219 426.964844 290.515625 429.914062 C 291.6875 433.566406 291.523438 438.386719 288.523438 440.929688 Z M 288.523438 440.929688 " style=" stroke:none;fill-rule:nonzero;fill:rgb(0%,0%,0%);fill-opacity:1;" />
<path d="M 369.089844 371.960938 C 362.726562 375.21875 355.765625 381.871094 357.082031 389.898438 C 357.5 392.453125 358.691406 394.65625 359.847656 396.785156 C 361.027344 398.964844 362.140625 401.023438 362.230469 403.160156 C 362.359375 406.25 360.378906 409.472656 356.171875 413.007812 C 355.675781 413.425781 355.167969 413.839844 354.660156 414.253906 C 351.386719 416.933594 348.003906 419.703125 346.332031 423.847656 C 343.933594 429.789062 346.046875 437.246094 351.476562 441.980469 C 356.886719 446.695312 364.039062 447.878906 369.089844 448.042969 C 369.539062 448.054688 369.988281 448.0625 370.4375 448.0625 C 388.121094 448.0625 405.105469 436.945312 412.066406 420.644531 C 418.15625 406.390625 416.136719 389.59375 406.671875 375.714844 C 399.390625 365.039062 385.339844 363.636719 369.089844 371.960938 Z M 408.351562 419.058594 C 401.953125 434.035156 385.484375 444.515625 369.21875 444.003906 C 364.828125 443.863281 358.644531 442.867188 354.132812 438.9375 C 350.042969 435.371094 348.339844 429.660156 350.078125 425.359375 C 351.363281 422.175781 354.207031 419.847656 357.21875 417.382812 C 357.742188 416.953125 358.261719 416.527344 358.769531 416.101562 C 364 411.703125 366.449219 407.414062 366.265625 402.992188 C 366.136719 399.921875 364.742188 397.351562 363.398438 394.863281 C 362.359375 392.941406 361.378906 391.128906 361.066406 389.242188 C 360.101562 383.359375 365.777344 378.195312 370.929688 375.554688 C 374.011719 373.976562 381.351562 370.675781 388.722656 370.675781 C 394.132812 370.675781 399.558594 372.453125 403.332031 377.988281 C 411.890625 390.53125 413.8125 406.269531 408.351562 419.058594 Z M 408.351562 419.058594 " style=" stroke:none;fill-rule:nonzero;fill:rgb(0%,0%,0%);fill-opacity:1;" />
<path d="M 194.867188 229.878906 C 194.867188 229.882812 194.867188 229.882812 194.867188 229.878906 C 194.089844 233.742188 194.765625 237.605469 196.722656 240.476562 C 199.207031 244.132812 202.566406 246.054688 206.359375 246.054688 C 207.1875 246.054688 208.039062 245.960938 208.90625 245.773438 C 215.363281 244.390625 221.59375 237.71875 222.796875 230.90625 C 223.796875 225.238281 222.09375 219.226562 218.5625 215.945312 C 216.675781 214.195312 213.386719 212.367188 208.433594 213.625 C 201.644531 215.347656 196.203125 223.242188 194.867188 229.878906 Z M 209.429688 217.539062 C 211.988281 216.890625 214.136719 217.347656 215.8125 218.90625 C 218.34375 221.253906 219.578125 225.902344 218.816406 230.203125 C 217.890625 235.453125 212.964844 240.773438 208.0625 241.824219 C 204.855469 242.515625 202.164062 241.296875 200.0625 238.207031 C 198.714844 236.226562 198.265625 233.480469 198.828125 230.675781 C 199.894531 225.382812 204.25 218.851562 209.429688 217.539062 Z M 209.429688 217.539062 " style=" stroke:none;fill-rule:nonzero;fill:rgb(0%,0%,0%);fill-opacity:1;" />
<path d="M 200.816406 274.636719 C 200.816406 274.636719 200.816406 274.636719 200.820312 274.636719 C 201.789062 275.027344 203.058594 275.242188 204.421875 275.242188 C 206.574219 275.242188 208.957031 274.707031 210.742188 273.484375 C 212.472656 272.300781 213.410156 270.585938 213.390625 268.660156 C 213.359375 265.84375 210.871094 263.34375 206.195312 261.433594 C 203.003906 260.132812 198.65625 259.054688 196.070312 261.3125 C 194.574219 262.617188 193.945312 264.480469 194.296875 266.550781 C 194.886719 270.054688 198.144531 273.5625 200.816406 274.636719 Z M 198.726562 264.351562 C 199.332031 263.828125 201.445312 263.859375 204.667969 265.175781 C 207.871094 266.484375 209.34375 267.921875 209.351562 268.703125 C 209.355469 269.089844 209.257812 269.605469 208.460938 270.152344 C 206.832031 271.269531 203.773438 271.46875 202.324219 270.890625 C 200.808594 270.28125 198.601562 267.796875 198.277344 265.878906 C 198.132812 265.007812 198.425781 264.617188 198.726562 264.351562 Z M 198.726562 264.351562 " style=" stroke:none;fill-rule:nonzero;fill:rgb(0%,0%,0%);fill-opacity:1;" />
<path d="M 268.746094 285.773438 C 269.359375 285.773438 270 285.746094 270.671875 285.691406 C 275.378906 285.3125 282.878906 281.75 284.402344 276.800781 C 284.890625 275.210938 285.144531 272.09375 281.367188 269.0625 C 278.15625 266.484375 272.636719 265.960938 267.304688 267.726562 C 262.535156 269.300781 259.261719 272.265625 258.320312 275.855469 C 257.398438 279.367188 259.636719 282.753906 262.324219 284.28125 C 264.09375 285.285156 266.164062 285.773438 268.746094 285.773438 Z M 262.226562 276.882812 C 262.804688 274.671875 265.179688 272.683594 268.570312 271.5625 C 270.242188 271.011719 271.960938 270.738281 273.550781 270.738281 C 275.710938 270.738281 277.628906 271.238281 278.839844 272.210938 C 281.042969 273.980469 280.664062 275.210938 280.539062 275.613281 C 279.691406 278.375 274.078125 281.363281 270.347656 281.664062 C 267.6875 281.875 265.769531 281.59375 264.320312 280.769531 C 262.988281 280.011719 261.84375 278.351562 262.226562 276.882812 Z M 262.226562 276.882812 " style=" stroke:none;fill-rule:nonzero;fill:rgb(0%,0%,0%);fill-opacity:1;" />
<path d="M 411.878906 285.03125 C 407.902344 284.960938 403.863281 287.03125 401.019531 290.59375 C 398.269531 294.039062 397.011719 298.277344 396.304688 301.164062 C 392.785156 315.546875 393.703125 323.574219 399.03125 325.035156 C 399.6875 325.214844 400.359375 325.296875 401.050781 325.296875 C 408.496094 325.296875 417.496094 315.558594 419.5 312.882812 C 423.40625 307.671875 425.089844 301.933594 424.246094 296.730469 C 423.199219 290.285156 417.765625 285.148438 411.878906 285.03125 Z M 416.269531 310.457031 C 414.851562 312.347656 411.84375 315.46875 408.585938 317.863281 C 405.054688 320.457031 401.960938 321.648438 400.097656 321.140625 C 398.527344 320.707031 396.78125 316.21875 400.226562 302.125 C 401.207031 298.125 402.460938 295.261719 404.175781 293.113281 C 406.207031 290.574219 408.992188 289.070312 411.65625 289.070312 C 411.703125 289.070312 411.753906 289.070312 411.796875 289.070312 C 415.734375 289.148438 419.527344 292.875 420.261719 297.378906 C 421.160156 302.921875 418.144531 307.953125 416.269531 310.457031 Z M 416.269531 310.457031 " style=" stroke:none;fill-rule:nonzero;fill:rgb(0%,0%,0%);fill-opacity:1;" />
<path d="M 384.019531 345.277344 C 384.851562 345.472656 385.648438 345.5625 386.40625 345.5625 C 390.996094 345.5625 394.210938 342.242188 395.152344 338.433594 C 396.21875 334.144531 394.292969 329.011719 388.554688 327.507812 C 385.117188 326.605469 381.84375 327.425781 379.578125 329.757812 C 377.210938 332.191406 376.300781 335.878906 377.257812 339.144531 C 378.164062 342.246094 380.628906 344.484375 384.019531 345.277344 Z M 382.476562 332.574219 C 383.144531 331.886719 384.222656 331.179688 385.839844 331.179688 C 386.347656 331.179688 386.910156 331.25 387.53125 331.414062 C 391.136719 332.359375 391.78125 335.261719 391.234375 337.460938 C 390.628906 339.898438 388.40625 342.15625 384.941406 341.34375 C 382.425781 340.753906 381.480469 339.207031 381.132812 338.011719 C 380.589844 336.148438 381.128906 333.960938 382.476562 332.574219 Z M 382.476562 332.574219 " style=" stroke:none;fill-rule:nonzero;fill:rgb(0%,0%,0%);fill-opacity:1;" />
<path d="M 411.144531 327.632812 C 407.648438 327.328125 404.671875 328.722656 402.992188 331.453125 C 401.160156 334.425781 401.179688 338.441406 403.039062 341.449219 C 404.605469 343.984375 407.230469 345.386719 410.34375 345.386719 C 410.652344 345.386719 410.964844 345.371094 411.285156 345.34375 C 416.890625 344.847656 419.4375 340.460938 419.433594 336.59375 C 419.429688 332.496094 416.578125 328.101562 411.144531 327.632812 Z M 410.929688 341.320312 C 408.414062 341.539062 407.113281 340.359375 406.472656 339.324219 C 405.433594 337.640625 405.414062 335.222656 406.429688 333.570312 C 407.214844 332.296875 408.511719 331.632812 410.199219 331.632812 C 410.394531 331.632812 410.59375 331.640625 410.796875 331.65625 C 413.96875 331.933594 415.390625 334.335938 415.394531 336.597656 C 415.398438 338.59375 414.226562 341.03125 410.929688 341.320312 Z M 410.929688 341.320312 " style=" stroke:none;fill-rule:nonzero;fill:rgb(0%,0%,0%);fill-opacity:1;" />
<path d="M 409.816406 268.589844 C 408.128906 272.765625 409.148438 276.828125 412.480469 279.183594 C 413.609375 279.980469 415.015625 280.386719 416.53125 280.386719 C 417.746094 280.386719 419.035156 280.128906 420.3125 279.605469 C 425.175781 277.617188 428.957031 271.796875 428.40625 267.152344 C 428.007812 263.789062 425.492188 261.511719 421.5 260.898438 C 416.261719 260.097656 411.566406 264.257812 409.816406 268.589844 Z M 424.394531 267.625 C 424.726562 270.433594 421.898438 274.59375 418.785156 275.863281 C 417.558594 276.367188 415.871094 276.632812 414.816406 275.886719 C 412.386719 274.167969 412.988281 271.523438 413.5625 270.101562 C 414.636719 267.445312 417.398438 264.839844 420.214844 264.839844 C 420.441406 264.839844 420.664062 264.855469 420.890625 264.890625 C 424.132812 265.386719 424.328125 267.074219 424.394531 267.625 Z M 424.394531 267.625 " style=" stroke:none;fill-rule:nonzero;fill:rgb(0%,0%,0%);fill-opacity:1;" />
</g>
</svg>