<svg xmlns="http://www.w3.org/2000/svg" height="511pt" version="1.1" viewBox="-25 1 511 511.99965" width="511pt">
<g id="surface1">
<path d="M 393.714844 79.914062 L 391.328125 76.664062 L 388.902344 79.886719 C 388.449219 80.484375 387.953125 80.988281 387.398438 81.414062 C 385.105469 83.160156 382.050781 83.402344 379.085938 83.402344 L 378.363281 83.402344 L 354.449219 83.28125 C 350.578125 83.253906 346.894531 83.03125 344.304688 80.609375 C 343.09375 79.480469 342.269531 78.023438 341.792969 76.15625 L 340.714844 71.960938 L 337.167969 74.441406 C 331.429688 78.453125 328.054688 85.808594 328.574219 93.175781 C 329.128906 100.882812 333.65625 108.386719 340.691406 113.25 C 348.488281 118.640625 357.417969 119.773438 363.539062 119.773438 L 363.804688 119.769531 C 376.148438 119.695312 387.078125 114.777344 393.050781 106.609375 C 398.808594 98.71875 399.09375 87.242188 393.714844 79.914062 Z M 393.714844 79.914062 " style=" stroke:none;fill-rule:nonzero;fill:rgb(39.215686%,29.803922%,29.803922%);fill-opacity:1;" />
<path d="M 299.96875 76.664062 L 297.539062 79.886719 C 297.089844 80.484375 296.59375 80.988281 296.042969 81.410156 C 293.738281 83.160156 290.679688 83.402344 287.714844 83.402344 L 287 83.402344 L 263.085938 83.28125 C 259.21875 83.253906 255.53125 83.03125 252.9375 80.601562 C 251.714844 79.46875 250.917969 78.054688 250.433594 76.15625 L 249.355469 71.960938 L 245.808594 74.441406 C 240.058594 78.464844 236.683594 85.816406 237.214844 93.175781 C 237.769531 100.882812 242.296875 108.386719 249.328125 113.25 C 257.125 118.640625 266.058594 119.773438 272.179688 119.773438 L 272.445312 119.769531 C 284.785156 119.695312 295.71875 114.777344 301.691406 106.609375 C 307.449219 98.71875 307.734375 87.242188 302.355469 79.914062 Z M 299.96875 76.664062 " style=" stroke:none;fill-rule:nonzero;fill:rgb(39.215686%,29.803922%,29.803922%);fill-opacity:1;" />
<path d="M 208.609375 76.664062 L 206.179688 79.886719 C 205.730469 80.484375 205.234375 80.988281 204.683594 81.410156 C 202.378906 83.160156 199.320312 83.402344 196.355469 83.402344 L 195.640625 83.402344 L 171.714844 83.28125 C 167.851562 83.253906 164.171875 83.027344 161.574219 80.609375 C 160.355469 79.46875 159.558594 78.058594 159.070312 76.15625 L 157.996094 71.964844 L 154.449219 74.441406 C 148.699219 78.453125 145.324219 85.808594 145.855469 93.175781 C 146.410156 100.882812 150.9375 108.386719 157.972656 113.25 C 165.769531 118.640625 174.699219 119.773438 180.820312 119.773438 L 181.085938 119.769531 C 193.429688 119.695312 204.359375 114.777344 210.332031 106.609375 C 216.089844 98.71875 216.375 87.242188 210.996094 79.914062 Z M 208.609375 76.664062 " style=" stroke:none;fill-rule:nonzero;fill:rgb(39.215686%,29.803922%,29.803922%);fill-opacity:1;" />
<path d="M 117.25 76.660156 L 114.820312 79.886719 C 114.367188 80.484375 113.875 80.984375 113.308594 81.414062 C 111.015625 83.160156 107.957031 83.402344 104.996094 83.402344 L 104.28125 83.402344 L 80.355469 83.28125 C 76.488281 83.253906 72.804688 83.027344 70.210938 80.609375 C 68.996094 79.46875 68.199219 78.058594 67.710938 76.15625 L 66.636719 71.964844 L 63.089844 74.441406 C 57.339844 78.453125 53.964844 85.808594 54.496094 93.175781 C 55.050781 100.890625 59.582031 108.394531 66.609375 113.246094 C 74.410156 118.640625 83.296875 119.769531 89.382812 119.769531 L 89.726562 119.769531 C 102.074219 119.695312 113 114.773438 118.957031 106.609375 C 124.71875 98.730469 125.011719 87.253906 119.636719 79.917969 Z M 117.25 76.660156 " style=" stroke:none;fill-rule:nonzero;fill:rgb(39.215686%,29.803922%,29.803922%);fill-opacity:1;" />
<path d="M 451.929688 500.179688 C 455.996094 495.035156 456.335938 488.242188 456.347656 480.535156 L 456.421875 441.558594 L 389.074219 507.523438 L 425.914062 507.910156 C 426.542969 507.917969 427.175781 507.921875 427.8125 507.921875 C 436.714844 507.921875 446.546875 507 451.929688 500.179688 Z M 451.929688 500.179688 " style=" stroke:none;fill-rule:nonzero;fill:rgb(84.705882%,87.058824%,92.54902%);fill-opacity:1;" />
<path d="M 388.578125 506.515625 L 454.292969 442.152344 L 400.847656 447.6875 C 396.453125 448.144531 392.59375 448.730469 389.890625 451.289062 C 386.199219 454.761719 386.183594 460.667969 386.460938 465.925781 Z M 388.578125 506.515625 " style=" stroke:none;fill-rule:nonzero;fill:rgb(84.705882%,87.058824%,92.54902%);fill-opacity:1;" />
<path d="M 383.367188 150.761719 C 331.765625 150.761719 280.46875 149.929688 230.863281 149.125 L 230.707031 149.121094 C 181.007812 148.3125 129.621094 147.472656 77.882812 147.472656 C 53.035156 147.472656 30.226562 147.660156 8.203125 148.050781 C 8.121094 148.046875 8.035156 148.042969 7.945312 148.042969 L 4.925781 148.042969 L 6.996094 470.601562 C 7.070312 482.144531 8.363281 494.707031 17.359375 500.359375 C 22.199219 503.410156 28.160156 503.710938 34.882812 503.773438 L 387.558594 507.507812 L 385.390625 465.984375 C 385.097656 460.496094 385.121094 454.328125 389.144531 450.515625 C 392.347656 447.492188 396.996094 447.011719 400.734375 446.625 L 452.105469 441.304688 C 452.160156 441.304688 452.21875 441.320312 452.285156 441.347656 L 456.417969 443.046875 L 456.972656 149.566406 L 453.292969 150.1875 C 431.035156 150.570312 408.164062 150.761719 383.367188 150.761719 Z M 45.957031 186.800781 C 47.980469 185.988281 50.214844 185.554688 52.414062 185.554688 C 55.667969 185.554688 61.785156 186.542969 66.1875 193.171875 C 70.285156 199.335938 70.066406 208.117188 65.679688 214.039062 C 62.847656 217.847656 58.417969 220.324219 53.847656 220.667969 C 53.488281 220.695312 53.125 220.710938 52.765625 220.710938 C 44.84375 220.710938 37.457031 214.242188 35.957031 205.984375 C 34.402344 197.40625 38.328125 189.875 45.957031 186.800781 Z M 45.957031 247.441406 C 47.980469 246.625 50.210938 246.195312 52.414062 246.195312 C 55.667969 246.195312 61.785156 247.183594 66.1875 253.808594 C 70.285156 259.984375 70.070312 268.761719 65.679688 274.683594 C 62.851562 278.492188 58.421875 280.972656 53.851562 281.316406 C 53.488281 281.339844 53.128906 281.351562 52.769531 281.351562 C 44.84375 281.351562 37.460938 274.886719 35.957031 266.632812 C 34.402344 258.050781 38.328125 250.519531 45.957031 247.441406 Z M 65.679688 398.089844 C 62.847656 401.894531 58.417969 404.375 53.847656 404.71875 C 53.488281 404.742188 53.117188 404.75 52.738281 404.75 C 44.832031 404.75 37.460938 398.285156 35.957031 390.035156 C 34.402344 381.453125 38.328125 373.917969 45.957031 370.84375 C 47.976562 370.03125 50.207031 369.601562 52.40625 369.601562 C 55.664062 369.601562 61.785156 370.589844 66.1875 377.207031 C 70.28125 383.382812 70.066406 392.167969 65.679688 398.089844 Z M 65.679688 337.441406 C 62.847656 341.246094 58.417969 343.722656 53.851562 344.066406 C 53.488281 344.09375 53.128906 344.109375 52.769531 344.109375 C 44.84375 344.109375 37.460938 337.640625 35.957031 329.386719 C 34.402344 320.808594 38.328125 313.277344 45.960938 310.203125 C 47.980469 309.386719 50.214844 308.957031 52.417969 308.957031 C 55.671875 308.957031 61.789062 309.945312 66.1875 316.570312 C 70.285156 322.738281 70.070312 331.515625 65.679688 337.441406 Z M 341.109375 186.800781 C 343.128906 185.988281 345.359375 185.554688 347.558594 185.554688 C 350.8125 185.554688 356.929688 186.542969 361.328125 193.171875 C 365.429688 199.332031 365.214844 208.109375 360.816406 214.042969 C 357.996094 217.847656 353.566406 220.324219 348.988281 220.667969 C 348.628906 220.691406 348.269531 220.710938 347.90625 220.710938 C 339.980469 220.710938 332.601562 214.242188 331.109375 205.980469 C 329.546875 197.410156 333.472656 189.878906 341.109375 186.800781 Z M 341.109375 247.441406 C 343.128906 246.625 345.359375 246.195312 347.558594 246.195312 C 350.8125 246.195312 356.929688 247.183594 361.328125 253.8125 C 365.429688 259.980469 365.214844 268.757812 360.816406 274.6875 C 358 278.492188 353.570312 280.972656 348.988281 281.316406 C 348.628906 281.34375 348.269531 281.351562 347.90625 281.351562 C 339.980469 281.351562 332.601562 274.886719 331.109375 266.632812 C 329.542969 258.050781 333.46875 250.519531 341.109375 247.441406 Z M 360.816406 337.445312 C 357.996094 341.246094 353.566406 343.722656 348.988281 344.070312 C 348.628906 344.09375 348.265625 344.113281 347.90625 344.113281 C 339.980469 344.113281 332.601562 337.644531 331.109375 329.382812 C 329.542969 320.808594 333.46875 313.28125 341.109375 310.203125 C 343.128906 309.386719 345.359375 308.957031 347.558594 308.957031 C 350.8125 308.957031 356.925781 309.945312 361.328125 316.574219 C 365.429688 322.730469 365.214844 331.507812 360.816406 337.445312 Z M 164.019531 186.800781 C 166.039062 185.988281 168.273438 185.554688 170.472656 185.554688 C 173.726562 185.554688 179.839844 186.542969 184.246094 193.171875 C 188.34375 199.339844 188.125 208.117188 183.726562 214.042969 C 180.90625 217.847656 176.480469 220.324219 171.914062 220.667969 C 171.542969 220.691406 171.179688 220.710938 170.816406 220.710938 C 162.898438 220.710938 155.519531 214.242188 154.015625 205.984375 C 152.464844 197.40625 156.390625 189.875 164.019531 186.800781 Z M 164.019531 247.441406 C 166.039062 246.628906 168.265625 246.199219 170.464844 246.199219 C 173.71875 246.199219 179.835938 247.1875 184.246094 253.808594 C 188.34375 259.988281 188.125 268.765625 183.726562 274.6875 C 180.90625 278.492188 176.484375 280.972656 171.914062 281.316406 C 171.542969 281.339844 171.179688 281.351562 170.816406 281.351562 C 162.898438 281.351562 155.519531 274.886719 154.019531 266.632812 C 152.460938 258.050781 156.386719 250.519531 164.019531 247.441406 Z M 124.695312 398.09375 C 121.875 401.898438 117.453125 404.375 112.875 404.71875 C 112.515625 404.742188 112.144531 404.75 111.769531 404.75 C 103.859375 404.75 96.488281 398.285156 94.988281 390.035156 C 93.433594 381.453125 97.359375 373.917969 104.988281 370.84375 C 107.007812 370.03125 109.238281 369.605469 111.4375 369.605469 C 114.695312 369.605469 120.816406 370.59375 125.214844 377.210938 C 129.3125 383.386719 129.097656 392.167969 124.695312 398.09375 Z M 124.695312 337.445312 C 121.875 341.246094 117.453125 343.722656 112.878906 344.070312 C 112.519531 344.09375 112.148438 344.113281 111.785156 344.113281 C 103.871094 344.113281 96.492188 337.644531 94.988281 329.386719 C 93.433594 320.808594 97.359375 313.277344 104.988281 310.203125 C 107.011719 309.386719 109.242188 308.957031 111.445312 308.957031 C 114.699219 308.957031 120.816406 309.945312 125.21875 316.570312 C 129.316406 322.738281 129.097656 331.515625 124.695312 337.445312 Z M 104.988281 247.441406 C 107.011719 246.625 109.242188 246.195312 111.445312 246.195312 C 114.699219 246.195312 120.816406 247.183594 125.21875 253.808594 C 129.316406 259.984375 129.097656 268.765625 124.695312 274.6875 C 121.878906 278.492188 117.453125 280.972656 112.878906 281.316406 C 112.519531 281.34375 112.152344 281.351562 111.796875 281.351562 C 103.875 281.351562 96.492188 274.886719 94.992188 266.636719 C 93.433594 258.050781 97.355469 250.519531 104.988281 247.441406 Z M 124.695312 214.042969 C 121.875 217.847656 117.449219 220.324219 112.878906 220.667969 C 112.519531 220.691406 112.148438 220.710938 111.796875 220.710938 C 103.871094 220.710938 96.488281 214.242188 94.988281 205.984375 C 93.433594 197.40625 97.359375 189.875 104.988281 186.800781 C 107.011719 185.984375 109.242188 185.554688 111.445312 185.554688 C 114.699219 185.554688 120.816406 186.542969 125.214844 193.167969 C 129.316406 199.339844 129.097656 208.117188 124.695312 214.042969 Z M 183.726562 398.09375 C 180.90625 401.898438 176.480469 404.371094 171.910156 404.71875 C 171.539062 404.742188 171.179688 404.75 170.816406 404.75 C 162.898438 404.75 155.519531 398.285156 154.019531 390.035156 C 152.460938 381.453125 156.386719 373.917969 164.015625 370.84375 C 166.035156 370.03125 168.265625 369.601562 170.464844 369.601562 C 173.71875 369.601562 179.839844 370.589844 184.246094 377.207031 C 188.34375 383.386719 188.125 392.167969 183.726562 398.09375 Z M 183.726562 337.445312 C 180.90625 341.246094 176.480469 343.722656 171.914062 344.066406 C 171.542969 344.09375 171.179688 344.109375 170.816406 344.109375 C 162.898438 344.109375 155.519531 337.640625 154.019531 329.386719 C 152.460938 320.808594 156.386719 313.277344 164.019531 310.203125 C 166.039062 309.386719 168.273438 308.957031 170.472656 308.957031 C 173.726562 308.957031 179.839844 309.945312 184.246094 316.570312 C 188.347656 322.738281 188.125 331.515625 183.726562 337.445312 Z M 242.757812 398.09375 C 239.9375 401.898438 235.507812 404.375 230.925781 404.71875 C 230.566406 404.742188 230.207031 404.75 229.828125 404.75 C 221.917969 404.75 214.546875 398.285156 213.046875 390.035156 C 211.492188 381.453125 215.414062 373.917969 223.042969 370.84375 C 225.066406 370.03125 227.292969 369.605469 229.492188 369.605469 C 232.75 369.605469 238.867188 370.59375 243.273438 377.210938 C 247.375 383.386719 247.15625 392.167969 242.757812 398.09375 Z M 242.757812 337.445312 C 239.9375 341.246094 235.507812 343.722656 230.929688 344.070312 C 230.566406 344.09375 230.207031 344.113281 229.847656 344.113281 C 221.929688 344.113281 214.550781 337.644531 213.046875 329.386719 C 211.492188 320.808594 215.417969 313.277344 223.046875 310.203125 C 225.070312 309.386719 227.300781 308.957031 229.503906 308.957031 C 232.753906 308.957031 238.871094 309.945312 243.277344 316.570312 C 247.375 322.738281 247.15625 331.515625 242.757812 337.445312 Z M 223.050781 247.441406 C 225.070312 246.625 227.304688 246.195312 229.503906 246.195312 C 232.757812 246.195312 238.871094 247.183594 243.277344 253.808594 C 247.375 259.984375 247.15625 268.765625 242.753906 274.6875 C 239.9375 278.492188 235.511719 280.972656 230.929688 281.316406 C 230.570312 281.34375 230.207031 281.351562 229.847656 281.351562 C 221.929688 281.351562 214.550781 274.886719 213.050781 266.636719 C 211.492188 258.050781 215.417969 250.519531 223.050781 247.441406 Z M 242.757812 214.042969 C 239.9375 217.847656 235.507812 220.324219 230.929688 220.667969 C 230.570312 220.691406 230.207031 220.710938 229.847656 220.710938 C 221.929688 220.710938 214.550781 214.242188 213.046875 205.984375 C 211.492188 197.40625 215.417969 189.875 223.046875 186.800781 C 225.070312 185.984375 227.304688 185.554688 229.503906 185.554688 C 232.753906 185.554688 238.871094 186.542969 243.277344 193.167969 C 247.375 199.339844 247.15625 208.117188 242.757812 214.042969 Z M 301.785156 398.09375 C 298.964844 401.898438 294.539062 404.375 289.957031 404.71875 C 289.597656 404.742188 289.234375 404.75 288.875 404.75 C 280.957031 404.75 273.578125 398.289062 272.078125 390.035156 C 270.515625 381.453125 274.4375 373.921875 282.074219 370.84375 C 284.097656 370.035156 286.324219 369.605469 288.523438 369.605469 C 291.777344 369.605469 297.894531 370.59375 302.296875 377.210938 C 306.398438 383.378906 306.183594 392.160156 301.785156 398.09375 Z M 301.785156 337.445312 C 298.964844 341.246094 294.539062 343.722656 289.957031 344.070312 C 289.597656 344.09375 289.238281 344.113281 288.875 344.113281 C 280.957031 344.113281 273.578125 337.644531 272.078125 329.382812 C 270.515625 320.808594 274.4375 313.28125 282.078125 310.203125 C 284.097656 309.386719 286.328125 308.957031 288.527344 308.957031 C 291.78125 308.957031 297.894531 309.945312 302.296875 316.574219 C 306.398438 322.730469 306.183594 331.507812 301.785156 337.445312 Z M 282.082031 247.441406 C 284.097656 246.628906 286.324219 246.199219 288.523438 246.199219 C 291.777344 246.199219 297.894531 247.1875 302.296875 253.8125 C 306.398438 259.980469 306.183594 268.757812 301.785156 274.6875 C 298.96875 278.492188 294.539062 280.972656 289.957031 281.316406 C 289.597656 281.34375 289.238281 281.351562 288.875 281.351562 C 280.957031 281.351562 273.578125 274.886719 272.078125 266.632812 C 270.515625 258.050781 274.4375 250.519531 282.082031 247.441406 Z M 301.785156 214.042969 C 298.964844 217.847656 294.539062 220.324219 289.960938 220.667969 C 289.597656 220.691406 289.238281 220.710938 288.875 220.710938 C 280.960938 220.710938 273.582031 214.242188 272.078125 205.980469 C 270.515625 197.40625 274.441406 189.878906 282.078125 186.800781 C 284.101562 185.984375 286.332031 185.554688 288.535156 185.554688 C 291.785156 185.554688 297.898438 186.542969 302.300781 193.171875 C 306.398438 199.332031 306.183594 208.109375 301.785156 214.042969 Z M 324.015625 429.457031 L 323.152344 427.898438 L 324.929688 427.429688 L 325.089844 428.457031 Z M 361.683594 416.003906 C 357.835938 418.023438 353.378906 419.089844 348.796875 419.089844 C 339.875 419.089844 331.398438 415.195312 326.121094 408.675781 C 317.839844 398.433594 317.972656 382.488281 326.417969 372.375 C 331.738281 366.011719 339.308594 362.507812 347.742188 362.507812 C 349.820312 362.507812 351.9375 362.726562 354.03125 363.160156 C 364.523438 365.328125 372.847656 372.757812 375.761719 382.558594 C 379.515625 395.175781 373.328125 409.867188 361.683594 416.003906 Z M 419.851562 398.089844 C 417.019531 401.894531 412.589844 404.375 408.015625 404.71875 C 407.65625 404.742188 407.296875 404.75 406.917969 404.75 C 399 404.75 391.628906 398.289062 390.136719 390.03125 C 388.574219 381.453125 392.5 373.921875 400.136719 370.84375 C 402.152344 370.03125 404.382812 369.601562 406.578125 369.601562 C 409.835938 369.601562 415.957031 370.589844 420.359375 377.210938 C 424.457031 383.378906 424.242188 392.160156 419.851562 398.089844 Z M 419.851562 337.441406 C 417.019531 341.246094 412.589844 343.722656 408.019531 344.066406 C 407.660156 344.09375 407.296875 344.109375 406.9375 344.109375 C 399.007812 344.109375 391.632812 337.644531 390.140625 329.382812 C 388.574219 320.808594 392.5 313.28125 400.140625 310.203125 C 402.160156 309.386719 404.390625 308.957031 406.589844 308.957031 C 409.84375 308.957031 415.957031 309.945312 420.359375 316.574219 C 424.460938 322.730469 424.242188 331.507812 419.851562 337.441406 Z M 400.140625 247.441406 C 402.160156 246.625 404.390625 246.195312 406.589844 246.195312 C 409.84375 246.195312 415.957031 247.183594 420.359375 253.8125 C 424.460938 259.980469 424.246094 268.757812 419.847656 274.683594 C 417.019531 278.492188 412.589844 280.972656 408.019531 281.316406 C 407.660156 281.34375 407.296875 281.351562 406.917969 281.351562 C 399 281.351562 391.628906 274.886719 390.136719 266.632812 C 388.574219 258.050781 392.5 250.519531 400.140625 247.441406 Z M 419.851562 214.039062 C 417.019531 217.847656 412.589844 220.324219 408.019531 220.667969 C 407.660156 220.695312 407.296875 220.710938 406.9375 220.710938 C 399.011719 220.710938 391.632812 214.242188 390.136719 205.984375 C 388.574219 197.410156 392.5 189.878906 400.140625 186.800781 C 402.160156 185.984375 404.390625 185.554688 406.589844 185.554688 C 409.84375 185.554688 415.957031 186.542969 420.359375 193.171875 C 424.460938 199.332031 424.242188 208.109375 419.851562 214.039062 Z M 419.851562 214.039062 " style=" stroke:none;fill-rule:nonzero;fill:rgb(100%,100%,100%);fill-opacity:1;" />
<path d="M 230.726562 148.050781 C 280.195312 148.855469 331.347656 149.691406 383.257812 149.691406 C 408.230469 149.691406 431.15625 149.5 453.359375 149.109375 C 453.402344 149.109375 453.441406 149.117188 453.484375 149.125 L 456.964844 149.730469 L 456.996094 146.195312 C 457.058594 139.128906 457.378906 131.496094 457.636719 125.367188 C 458.363281 108.042969 459.113281 90.132812 456.359375 73.636719 C 453.734375 57.851562 439.445312 56.527344 426.257812 56.527344 C 424.320312 56.527344 422.148438 56.5625 419.417969 56.640625 C 416.753906 56.71875 414.542969 56.78125 412.394531 56.78125 C 411.578125 56.78125 410.777344 56.769531 409.992188 56.75 L 390.460938 56.210938 L 391.070312 68.542969 C 391.128906 69.765625 391.226562 71.8125 391.003906 73.902344 L 390.839844 75.4375 L 391.996094 76.460938 C 400.019531 83.582031 400.898438 97.675781 393.914062 107.238281 C 387.757812 115.671875 376.503906 120.753906 363.839844 120.839844 L 363.480469 120.839844 C 354.53125 120.839844 346.441406 118.515625 340.085938 114.121094 C 332.785156 109.074219 328.085938 101.269531 327.511719 93.246094 C 326.886719 84.511719 331.546875 75.851562 338.792969 72.214844 C 338.839844 72.191406 338.890625 72.175781 338.9375 72.164062 L 341.207031 71.554688 L 341.269531 69.230469 C 341.375 65.113281 341.328125 61.007812 341.269531 57.535156 L 341.214844 54.667969 L 338.347656 54.589844 C 331.671875 54.410156 325.527344 54.28125 319.382812 54.148438 L 319.027344 54.144531 C 313.5625 54.023438 308.074219 53.90625 302.207031 53.75 L 298.976562 53.664062 L 299.703125 68.5625 C 299.792969 70.214844 299.851562 72.003906 299.648438 73.902344 L 299.484375 75.4375 L 300.636719 76.460938 C 308.660156 83.585938 309.535156 97.679688 302.558594 107.238281 C 296.390625 115.671875 285.136719 120.753906 272.480469 120.839844 L 272.117188 120.839844 C 263.171875 120.839844 255.082031 118.515625 248.726562 114.121094 C 241.425781 109.074219 236.726562 101.269531 236.152344 93.246094 C 235.523438 84.511719 240.183594 75.851562 247.433594 72.214844 C 247.480469 72.191406 247.53125 72.175781 247.578125 72.164062 L 249.851562 71.554688 L 249.90625 69.222656 C 250.023438 64.5 249.953125 59.671875 249.859375 55.15625 L 249.796875 52.292969 L 244.550781 52.160156 C 237.984375 51.980469 232.078125 51.789062 226.171875 51.601562 L 222.78125 51.492188 C 218.878906 51.363281 214.914062 51.238281 210.722656 51.121094 L 207.484375 51.03125 L 208.339844 68.5625 C 208.433594 70.210938 208.484375 71.996094 208.277344 73.886719 L 208.105469 75.433594 L 209.265625 76.464844 C 217.292969 83.589844 218.171875 97.683594 211.1875 107.242188 C 205.027344 115.671875 193.78125 120.757812 181.117188 120.839844 L 180.757812 120.839844 C 171.800781 120.839844 163.710938 118.519531 157.367188 114.125 C 150.066406 109.078125 145.367188 101.273438 144.789062 93.246094 C 144.164062 84.511719 148.824219 75.855469 156.074219 72.214844 C 156.132812 72.1875 156.1875 72.171875 156.21875 72.164062 L 158.492188 71.554688 L 158.546875 69.226562 C 158.683594 63.753906 158.5625 58.0625 158.449219 52.558594 L 158.386719 49.703125 L 155.53125 49.621094 C 149.242188 49.445312 143.246094 49.296875 137.277344 49.148438 L 116.003906 48.597656 L 116.984375 68.546875 C 117.050781 69.953125 117.140625 71.878906 116.917969 73.886719 L 116.746094 75.433594 L 117.90625 76.464844 C 125.933594 83.589844 126.8125 97.683594 119.828125 107.242188 C 113.667969 115.671875 102.414062 120.757812 89.75 120.839844 L 89.398438 120.839844 C 80.441406 120.839844 72.351562 118.519531 66.003906 114.125 C 58.707031 109.078125 54.003906 101.273438 53.429688 93.246094 C 52.804688 84.511719 57.464844 75.855469 64.714844 72.214844 C 64.773438 72.1875 64.824219 72.171875 64.859375 72.164062 L 67.128906 71.554688 L 67.1875 69.226562 C 67.328125 63.753906 67.207031 58.171875 67.078125 52.261719 L 67.027344 50.027344 L 66.976562 47.148438 L 64.097656 47.082031 C 62.390625 47.042969 60.84375 47.023438 59.472656 47.023438 C 59.4375 47.023438 59.398438 47.023438 59.363281 47.023438 C 57.109375 46.960938 55.074219 46.933594 53.152344 46.933594 C 38.480469 46.933594 20.449219 48.597656 11.167969 61.578125 C 4.949219 70.285156 4.503906 81.386719 4.578125 93.941406 L 4.925781 147 L 7.90625 147 C 7.988281 147 8.082031 146.996094 8.179688 146.988281 C 30.335938 146.59375 53.230469 146.40625 78.175781 146.40625 C 129.769531 146.40625 181.066406 147.242188 230.726562 148.050781 Z M 230.726562 148.050781 " style=" stroke:none;fill-rule:nonzero;fill:rgb(92.941176%,42.745098%,40%);fill-opacity:1;" />
<path d="M 354.433594 361.242188 C 352.21875 360.785156 349.976562 360.550781 347.769531 360.550781 C 338.730469 360.550781 330.617188 364.304688 324.914062 371.117188 C 315.890625 381.914062 315.75 398.953125 324.59375 409.90625 C 330.246094 416.902344 339.273438 421.082031 348.742188 421.082031 C 353.648438 421.082031 358.4375 419.925781 362.582031 417.746094 C 375.042969 411.195312 381.660156 395.488281 377.644531 381.996094 C 374.472656 371.335938 365.792969 363.578125 354.433594 361.242188 Z M 360.816406 398.09375 C 357.996094 401.898438 353.566406 404.375 348.984375 404.71875 C 348.625 404.742188 348.265625 404.75 347.886719 404.75 C 339.972656 404.75 332.601562 398.289062 331.105469 390.035156 C 329.542969 381.453125 333.46875 373.921875 341.105469 370.84375 C 343.121094 370.03125 345.351562 369.605469 347.546875 369.605469 C 350.804688 369.605469 356.925781 370.59375 361.328125 377.210938 C 365.429688 383.378906 365.210938 392.160156 360.816406 398.09375 Z M 360.816406 398.09375 " style=" stroke:none;fill-rule:nonzero;fill:rgb(92.941176%,42.745098%,40%);fill-opacity:1;" />
<path d="M 347.464844 370.691406 C 345.417969 370.691406 343.355469 371.085938 341.503906 371.839844 C 336.082031 374.023438 330.382812 380.046875 332.15625 389.835938 C 333.5625 397.605469 340.484375 403.6875 347.90625 403.6875 C 348.234375 403.6875 348.5625 403.675781 348.894531 403.652344 C 353.179688 403.328125 357.3125 401.007812 359.953125 397.449219 C 364.027344 391.972656 364.238281 383.53125 360.445312 377.8125 C 357.441406 373.285156 352.707031 370.691406 347.464844 370.691406 Z M 347.464844 370.691406 " style=" stroke:none;fill-rule:nonzero;fill:rgb(92.941176%,42.745098%,40%);fill-opacity:1;" />
<path d="M 406.921875 219.640625 C 407.253906 219.640625 407.589844 219.628906 407.921875 219.601562 C 412.210938 219.277344 416.347656 216.960938 418.988281 213.410156 C 423.058594 207.917969 423.265625 199.46875 419.464844 193.761719 C 416.464844 189.238281 411.734375 186.640625 406.488281 186.640625 C 404.476562 186.640625 402.421875 187.035156 400.535156 187.789062 C 395.113281 189.976562 389.410156 196 391.183594 205.796875 C 392.589844 213.558594 399.503906 219.640625 406.921875 219.640625 Z M 406.921875 219.640625 " style=" stroke:none;fill-rule:nonzero;fill:rgb(97.647059%,84.705882%,53.72549%);fill-opacity:1;" />
<path d="M 406.921875 280.289062 C 407.257812 280.289062 407.589844 280.277344 407.921875 280.25 C 412.207031 279.925781 416.34375 277.609375 418.988281 274.046875 C 423.054688 268.558594 423.261719 260.117188 419.46875 254.414062 C 416.46875 249.878906 411.738281 247.28125 406.488281 247.28125 C 404.460938 247.28125 402.402344 247.683594 400.535156 248.4375 C 395.113281 250.625 389.410156 256.648438 391.183594 266.4375 C 392.59375 274.203125 399.503906 280.289062 406.921875 280.289062 Z M 406.921875 280.289062 " style=" stroke:none;fill-rule:nonzero;fill:rgb(97.647059%,84.705882%,53.72549%);fill-opacity:1;" />
<path d="M 406.488281 310.039062 C 404.476562 310.039062 402.421875 310.4375 400.535156 311.1875 C 395.113281 313.371094 389.410156 319.398438 391.183594 329.195312 C 392.589844 336.957031 399.507812 343.039062 406.9375 343.039062 C 407.265625 343.039062 407.59375 343.027344 407.921875 343 C 412.214844 342.675781 416.347656 340.363281 418.988281 336.808594 C 423.054688 331.324219 423.261719 322.875 419.46875 317.164062 C 416.464844 312.636719 411.734375 310.039062 406.488281 310.039062 Z M 406.488281 310.039062 " style=" stroke:none;fill-rule:nonzero;fill:rgb(97.647059%,84.705882%,53.72549%);fill-opacity:1;" />
<path d="M 406.9375 403.6875 C 407.265625 403.6875 407.589844 403.675781 407.921875 403.652344 C 412.207031 403.328125 416.34375 401.007812 418.984375 397.449219 C 423.058594 391.964844 423.265625 383.523438 419.46875 377.816406 C 416.472656 373.285156 411.738281 370.691406 406.484375 370.691406 C 404.445312 370.691406 402.382812 371.085938 400.535156 371.835938 C 395.113281 374.023438 389.410156 380.046875 391.183594 389.835938 C 392.59375 397.605469 399.511719 403.6875 406.9375 403.6875 Z M 406.9375 403.6875 " style=" stroke:none;fill-rule:nonzero;fill:rgb(97.647059%,84.705882%,53.72549%);fill-opacity:1;" />
<path d="M 342.335938 69.246094 C 342.242188 73.058594 342.363281 77.339844 345.027344 79.824219 C 347.339844 81.988281 350.796875 82.1875 354.441406 82.210938 L 378.992188 82.332031 C 381.742188 82.332031 384.609375 82.195312 386.75 80.5625 C 389.996094 78.101562 390.230469 73.359375 390.003906 68.605469 L 387.53125 18.429688 C 387.320312 13.90625 386.792969 8.863281 383.214844 6.320312 C 381.355469 5.007812 378.992188 4.617188 376.003906 4.4375 L 375.472656 4.40625 C 372.234375 4.214844 369.429688 4.121094 366.898438 4.121094 C 361.125 4.121094 345.796875 4.121094 343.765625 15.242188 C 341.664062 26.738281 341.945312 39.441406 342.21875 51.726562 C 342.339844 57.242188 342.480469 63.492188 342.335938 69.246094 Z M 342.335938 69.246094 " style=" stroke:none;fill-rule:nonzero;fill:rgb(97.647059%,84.705882%,53.72549%);fill-opacity:1;" />
<path d="M 347.90625 219.636719 C 348.234375 219.636719 348.5625 219.625 348.894531 219.601562 C 353.183594 219.277344 357.320312 216.960938 359.957031 213.40625 C 364.023438 207.921875 364.234375 199.476562 360.445312 193.757812 C 357.433594 189.234375 352.703125 186.640625 347.464844 186.640625 C 345.449219 186.640625 343.390625 187.035156 341.503906 187.789062 C 336.085938 189.972656 330.382812 196 332.15625 205.796875 C 333.5625 213.558594 340.484375 219.636719 347.90625 219.636719 Z M 347.90625 219.636719 " style=" stroke:none;fill-rule:nonzero;fill:rgb(97.647059%,84.705882%,53.72549%);fill-opacity:1;" />
<path d="M 347.894531 280.289062 C 348.226562 280.289062 348.5625 280.277344 348.894531 280.25 C 353.179688 279.925781 357.3125 277.609375 359.957031 274.046875 C 364.023438 268.566406 364.234375 260.125 360.445312 254.410156 C 357.433594 249.878906 352.699219 247.28125 347.457031 247.28125 C 345.429688 247.28125 343.371094 247.683594 341.503906 248.4375 C 336.082031 250.625 330.378906 256.648438 332.15625 266.4375 C 333.5625 274.203125 340.476562 280.289062 347.894531 280.289062 Z M 347.894531 280.289062 " style=" stroke:none;fill-rule:nonzero;fill:rgb(97.647059%,84.705882%,53.72549%);fill-opacity:1;" />
<path d="M 348.894531 343 C 353.183594 342.675781 357.320312 340.363281 359.957031 336.808594 C 364.019531 331.328125 364.230469 322.882812 360.441406 317.15625 C 357.429688 312.632812 352.699219 310.039062 347.457031 310.039062 C 345.445312 310.039062 343.390625 310.4375 341.503906 311.1875 C 336.082031 313.371094 330.382812 319.398438 332.15625 329.195312 C 333.5625 336.957031 340.476562 343.039062 347.890625 343.039062 C 348.226562 343.039062 348.5625 343.027344 348.894531 343 Z M 348.894531 343 " style=" stroke:none;fill-rule:nonzero;fill:rgb(97.647059%,84.705882%,53.72549%);fill-opacity:1;" />
<path d="M 282.476562 187.789062 C 277.054688 189.972656 271.351562 196 273.125 205.800781 C 274.542969 213.5625 281.457031 219.640625 288.863281 219.640625 C 289.199219 219.640625 289.53125 219.625 289.863281 219.601562 C 294.152344 219.277344 298.289062 216.960938 300.925781 213.40625 C 305 207.910156 305.210938 199.464844 301.414062 193.757812 C 298.40625 189.234375 293.671875 186.640625 288.429688 186.640625 C 286.402344 186.640625 284.34375 187.039062 282.476562 187.789062 Z M 282.476562 187.789062 " style=" stroke:none;fill-rule:nonzero;fill:rgb(97.647059%,84.705882%,53.72549%);fill-opacity:1;" />
<path d="M 301.414062 254.410156 C 298.410156 249.882812 293.679688 247.285156 288.4375 247.285156 C 286.402344 247.285156 284.339844 247.683594 282.476562 248.4375 C 277.054688 250.625 271.351562 256.648438 273.125 266.441406 C 274.542969 274.207031 281.464844 280.289062 288.875 280.289062 C 289.203125 280.289062 289.53125 280.277344 289.863281 280.253906 C 294.160156 279.925781 298.296875 277.605469 300.925781 274.046875 C 305 268.554688 305.207031 260.113281 301.414062 254.410156 Z M 301.414062 254.410156 " style=" stroke:none;fill-rule:nonzero;fill:rgb(97.647059%,84.705882%,53.72549%);fill-opacity:1;" />
<path d="M 288.429688 310.039062 C 286.402344 310.039062 284.34375 310.4375 282.476562 311.1875 C 277.054688 313.371094 271.351562 319.398438 273.125 329.199219 C 274.546875 336.960938 281.457031 343.039062 288.863281 343.039062 C 289.195312 343.039062 289.53125 343.027344 289.863281 343 C 294.152344 342.675781 298.289062 340.363281 300.925781 336.808594 C 304.996094 331.316406 305.207031 322.871094 301.414062 317.160156 C 298.40625 312.636719 293.671875 310.039062 288.429688 310.039062 Z M 288.429688 310.039062 " style=" stroke:none;fill-rule:nonzero;fill:rgb(97.647059%,84.705882%,53.72549%);fill-opacity:1;" />
<path d="M 289.863281 403.652344 C 294.148438 403.328125 298.285156 401.007812 300.925781 397.449219 C 305.003906 391.960938 305.214844 383.519531 301.417969 377.8125 C 298.410156 373.28125 293.679688 370.683594 288.4375 370.683594 C 286.40625 370.683594 284.34375 371.082031 282.476562 371.835938 C 277.054688 374.023438 271.351562 380.046875 273.125 389.835938 C 274.53125 397.605469 281.453125 403.6875 288.875 403.6875 C 289.203125 403.6875 289.53125 403.675781 289.863281 403.652344 Z M 289.863281 403.652344 " style=" stroke:none;fill-rule:nonzero;fill:rgb(97.647059%,84.705882%,53.72549%);fill-opacity:1;" />
<path d="M 252.40625 15.238281 C 250.328125 26.546875 250.578125 39.097656 250.847656 51.207031 L 250.839844 51.21875 L 250.855469 51.980469 C 250.980469 57.425781 251.117188 63.597656 250.976562 69.246094 C 250.878906 73.058594 251 77.335938 253.667969 79.824219 C 255.980469 81.984375 259.4375 82.1875 263.082031 82.210938 L 287.414062 82.332031 C 290.394531 82.332031 293.25 82.195312 295.386719 80.5625 C 298.648438 78.089844 298.871094 73.351562 298.632812 68.605469 L 296.171875 18.421875 C 295.945312 13.886719 295.40625 8.84375 291.851562 6.324219 C 290 5.007812 287.636719 4.617188 284.640625 4.433594 L 284.101562 4.40625 C 280.875 4.214844 278.070312 4.121094 275.535156 4.121094 C 269.765625 4.121094 254.4375 4.121094 252.40625 15.238281 Z M 252.40625 15.238281 " style=" stroke:none;fill-rule:nonzero;fill:rgb(97.647059%,84.705882%,53.72549%);fill-opacity:1;" />
<path d="M 229.832031 219.640625 C 230.167969 219.640625 230.5 219.628906 230.832031 219.601562 C 235.132812 219.277344 239.273438 216.960938 241.894531 213.410156 C 245.972656 207.914062 246.179688 199.46875 242.382812 193.757812 C 239.371094 189.234375 234.640625 186.640625 229.40625 186.640625 C 227.390625 186.640625 225.332031 187.035156 223.445312 187.789062 C 218.023438 189.976562 212.320312 196 214.09375 205.800781 C 215.515625 213.5625 222.425781 219.640625 229.832031 219.640625 Z M 229.832031 219.640625 " style=" stroke:none;fill-rule:nonzero;fill:rgb(97.647059%,84.705882%,53.72549%);fill-opacity:1;" />
<path d="M 214.097656 266.441406 C 215.515625 274.207031 222.433594 280.289062 229.847656 280.289062 C 230.175781 280.289062 230.503906 280.277344 230.832031 280.25 C 235.132812 279.925781 239.269531 277.605469 241.898438 274.046875 C 245.972656 268.554688 246.179688 260.113281 242.386719 254.410156 C 239.378906 249.878906 234.648438 247.28125 229.410156 247.28125 C 227.375 247.28125 225.3125 247.679688 223.449219 248.4375 C 218.023438 250.625 212.320312 256.648438 214.097656 266.441406 Z M 214.097656 266.441406 " style=" stroke:none;fill-rule:nonzero;fill:rgb(97.647059%,84.705882%,53.72549%);fill-opacity:1;" />
<path d="M 229.40625 310.039062 C 227.390625 310.039062 225.332031 310.4375 223.445312 311.1875 C 218.023438 313.371094 212.320312 319.398438 214.097656 329.199219 C 215.515625 336.960938 222.429688 343.039062 229.832031 343.039062 C 230.164062 343.039062 230.5 343.027344 230.832031 343 C 235.136719 342.675781 239.273438 340.359375 241.898438 336.808594 C 245.964844 331.320312 246.179688 322.875 242.382812 317.15625 C 239.371094 312.632812 234.644531 310.039062 229.40625 310.039062 Z M 229.40625 310.039062 " style=" stroke:none;fill-rule:nonzero;fill:rgb(97.647059%,84.705882%,53.72549%);fill-opacity:1;" />
<path d="M 214.097656 389.839844 C 215.515625 397.605469 222.433594 403.6875 229.847656 403.6875 C 230.175781 403.6875 230.503906 403.675781 230.832031 403.652344 C 235.132812 403.328125 239.269531 401.003906 241.894531 397.449219 C 245.972656 391.964844 246.183594 383.519531 242.386719 377.8125 C 239.378906 373.285156 234.652344 370.691406 229.40625 370.691406 C 227.359375 370.691406 225.296875 371.085938 223.445312 371.835938 C 218.023438 374.023438 212.320312 380.046875 214.097656 389.839844 Z M 214.097656 389.839844 " style=" stroke:none;fill-rule:nonzero;fill:rgb(97.647059%,84.705882%,53.72549%);fill-opacity:1;" />
<path d="M 204.027344 80.5625 C 207.289062 78.089844 207.515625 73.351562 207.273438 68.605469 L 204.8125 18.421875 C 204.589844 13.890625 204.050781 8.84375 200.496094 6.324219 C 198.644531 5.007812 196.28125 4.617188 193.28125 4.433594 L 192.746094 4.40625 C 189.453125 4.210938 186.65625 4.117188 184.191406 4.117188 C 178.417969 4.117188 163.082031 4.117188 161.046875 15.238281 C 158.941406 26.683594 159.226562 39.40625 159.496094 51.726562 C 159.621094 57.246094 159.757812 63.5 159.617188 69.242188 C 159.523438 73.058594 159.644531 77.335938 162.308594 79.820312 C 164.621094 81.984375 168.078125 82.1875 171.722656 82.210938 L 196.046875 82.332031 C 199.03125 82.332031 201.890625 82.195312 204.027344 80.5625 Z M 204.027344 80.5625 " style=" stroke:none;fill-rule:nonzero;fill:rgb(97.647059%,84.705882%,53.72549%);fill-opacity:1;" />
<path d="M 170.8125 219.640625 C 171.148438 219.640625 171.480469 219.628906 171.8125 219.601562 C 176.101562 219.277344 180.238281 216.960938 182.875 213.40625 C 186.949219 207.917969 187.152344 199.46875 183.355469 193.757812 C 180.347656 189.234375 175.613281 186.640625 170.367188 186.640625 C 168.339844 186.640625 166.285156 187.035156 164.414062 187.789062 C 158.992188 189.980469 153.292969 196.011719 155.074219 205.796875 C 156.484375 213.558594 163.398438 219.640625 170.8125 219.640625 Z M 170.8125 219.640625 " style=" stroke:none;fill-rule:nonzero;fill:rgb(97.647059%,84.705882%,53.72549%);fill-opacity:1;" />
<path d="M 170.8125 280.289062 C 171.148438 280.289062 171.480469 280.277344 171.8125 280.25 C 176.097656 279.925781 180.234375 277.609375 182.875 274.046875 C 186.945312 268.5625 187.152344 260.117188 183.355469 254.410156 C 180.351562 249.886719 175.621094 247.289062 170.375 247.289062 C 168.347656 247.289062 166.285156 247.6875 164.414062 248.441406 C 158.988281 250.628906 153.289062 256.65625 155.074219 266.4375 C 156.484375 274.203125 163.394531 280.289062 170.8125 280.289062 Z M 170.8125 280.289062 " style=" stroke:none;fill-rule:nonzero;fill:rgb(97.647059%,84.705882%,53.72549%);fill-opacity:1;" />
<path d="M 170.367188 310.039062 C 168.339844 310.039062 166.28125 310.4375 164.414062 311.1875 C 158.988281 313.378906 153.289062 319.410156 155.074219 329.195312 C 156.480469 336.957031 163.394531 343.039062 170.8125 343.039062 C 171.148438 343.039062 171.480469 343.027344 171.8125 343 C 176.101562 342.675781 180.238281 340.359375 182.875 336.808594 C 186.941406 331.320312 187.148438 322.875 183.355469 317.160156 C 180.347656 312.636719 175.613281 310.039062 170.367188 310.039062 Z M 170.367188 310.039062 " style=" stroke:none;fill-rule:nonzero;fill:rgb(97.647059%,84.705882%,53.72549%);fill-opacity:1;" />
<path d="M 170.839844 403.6875 C 171.160156 403.6875 171.484375 403.675781 171.8125 403.652344 C 176.097656 403.328125 180.234375 401.007812 182.875 397.449219 C 186.949219 391.96875 187.15625 383.523438 183.355469 377.8125 C 180.351562 373.285156 175.621094 370.6875 170.375 370.6875 C 168.347656 370.6875 166.285156 371.085938 164.414062 371.835938 C 158.992188 374.027344 153.289062 380.058594 155.074219 389.835938 C 156.484375 397.601562 163.40625 403.6875 170.839844 403.6875 Z M 170.839844 403.6875 " style=" stroke:none;fill-rule:nonzero;fill:rgb(97.647059%,84.705882%,53.72549%);fill-opacity:1;" />
<path d="M 105.382812 187.789062 C 99.960938 189.980469 94.261719 196.011719 96.042969 205.796875 C 97.453125 213.558594 104.363281 219.640625 111.78125 219.640625 C 112.117188 219.640625 112.453125 219.628906 112.78125 219.601562 C 117.074219 219.277344 121.207031 216.960938 123.847656 213.410156 C 127.917969 207.917969 128.121094 199.46875 124.324219 193.757812 C 121.3125 189.238281 116.582031 186.644531 111.347656 186.644531 C 109.328125 186.640625 107.273438 187.035156 105.382812 187.789062 Z M 105.382812 187.789062 " style=" stroke:none;fill-rule:nonzero;fill:rgb(97.647059%,84.705882%,53.72549%);fill-opacity:1;" />
<path d="M 124.324219 254.410156 C 121.316406 249.878906 116.585938 247.28125 111.347656 247.28125 C 109.316406 247.28125 107.25 247.683594 105.382812 248.441406 C 99.960938 250.628906 94.257812 256.660156 96.042969 266.4375 C 97.453125 274.203125 104.371094 280.289062 111.792969 280.289062 C 112.121094 280.289062 112.453125 280.277344 112.785156 280.253906 C 117.070312 279.929688 121.203125 277.609375 123.847656 274.046875 C 127.914062 268.558594 128.121094 260.117188 124.324219 254.410156 Z M 124.324219 254.410156 " style=" stroke:none;fill-rule:nonzero;fill:rgb(97.647059%,84.705882%,53.72549%);fill-opacity:1;" />
<path d="M 111.347656 310.039062 C 109.328125 310.039062 107.269531 310.4375 105.382812 311.1875 C 99.960938 313.378906 94.261719 319.410156 96.042969 329.195312 C 97.453125 336.957031 104.367188 343.039062 111.78125 343.039062 C 112.117188 343.039062 112.449219 343.027344 112.785156 343 C 117.074219 342.675781 121.210938 340.359375 123.847656 336.808594 C 127.914062 331.320312 128.121094 322.875 124.324219 317.15625 C 121.3125 312.632812 116.582031 310.039062 111.347656 310.039062 Z M 111.347656 310.039062 " style=" stroke:none;fill-rule:nonzero;fill:rgb(97.647059%,84.705882%,53.72549%);fill-opacity:1;" />
<path d="M 112.785156 403.652344 C 117.070312 403.328125 121.203125 401.007812 123.84375 397.449219 C 127.917969 391.964844 128.125 383.523438 124.324219 377.8125 C 121.320312 373.285156 116.589844 370.691406 111.347656 370.691406 C 109.296875 370.691406 107.234375 371.085938 105.382812 371.835938 C 99.960938 374.027344 94.257812 380.058594 96.042969 389.835938 C 97.453125 397.601562 104.371094 403.6875 111.796875 403.6875 C 112.125 403.6875 112.453125 403.675781 112.785156 403.652344 Z M 112.785156 403.652344 " style=" stroke:none;fill-rule:nonzero;fill:rgb(97.647059%,84.705882%,53.72549%);fill-opacity:1;" />
<path d="M 68.136719 52.09375 C 68.261719 57.808594 68.394531 63.714844 68.257812 69.246094 C 68.160156 73.0625 68.28125 77.339844 70.941406 79.816406 C 73.246094 81.984375 76.710938 82.1875 80.363281 82.210938 L 104.902344 82.332031 C 107.660156 82.332031 110.53125 82.195312 112.675781 80.558594 C 115.9375 78.070312 116.144531 73.117188 115.914062 68.601562 L 113.453125 18.421875 C 113.230469 13.894531 112.691406 8.855469 109.136719 6.324219 C 107.285156 5.007812 104.921875 4.617188 101.921875 4.433594 L 101.382812 4.40625 C 98.089844 4.210938 95.292969 4.117188 92.832031 4.117188 C 87.058594 4.117188 71.722656 4.117188 69.6875 15.238281 C 67.59375 26.632812 67.863281 39.292969 68.125 51.539062 Z M 68.136719 52.09375 " style=" stroke:none;fill-rule:nonzero;fill:rgb(97.647059%,84.705882%,53.72549%);fill-opacity:1;" />
<path d="M 52.75 219.640625 C 53.085938 219.640625 53.421875 219.628906 53.753906 219.601562 C 58.042969 219.277344 62.179688 216.960938 64.816406 213.410156 C 68.890625 207.917969 69.09375 199.46875 65.292969 193.757812 C 62.28125 189.238281 57.550781 186.644531 52.316406 186.644531 C 50.300781 186.644531 48.242188 187.039062 46.355469 187.789062 C 40.929688 189.980469 35.230469 196.011719 37.015625 205.796875 C 38.421875 213.558594 45.335938 219.640625 52.75 219.640625 Z M 52.75 219.640625 " style=" stroke:none;fill-rule:nonzero;fill:rgb(97.647059%,84.705882%,53.72549%);fill-opacity:1;" />
<path d="M 52.765625 280.289062 C 53.09375 280.289062 53.421875 280.277344 53.753906 280.25 C 58.039062 279.925781 62.171875 277.609375 64.816406 274.046875 C 68.882812 268.558594 69.089844 260.117188 65.292969 254.410156 C 62.285156 249.878906 57.554688 247.28125 52.316406 247.28125 C 50.277344 247.28125 48.214844 247.683594 46.363281 248.4375 C 40.933594 250.625 35.230469 256.652344 37.015625 266.4375 C 38.421875 274.203125 45.339844 280.289062 52.765625 280.289062 Z M 52.765625 280.289062 " style=" stroke:none;fill-rule:nonzero;fill:rgb(97.647059%,84.705882%,53.72549%);fill-opacity:1;" />
<path d="M 52.75 343.039062 C 53.085938 343.039062 53.421875 343.027344 53.753906 343 C 58.042969 342.675781 62.179688 340.363281 64.816406 336.808594 C 68.882812 331.324219 69.089844 322.875 65.292969 317.160156 C 62.28125 312.636719 57.550781 310.042969 52.316406 310.042969 C 50.292969 310.042969 48.234375 310.4375 46.367188 311.1875 C 40.9375 313.375 35.230469 319.40625 37.015625 329.199219 C 38.421875 336.957031 45.335938 343.039062 52.75 343.039062 Z M 52.75 343.039062 " style=" stroke:none;fill-rule:nonzero;fill:rgb(97.647059%,84.705882%,53.72549%);fill-opacity:1;" />
<path d="M 37.015625 389.835938 C 38.421875 397.605469 45.339844 403.6875 52.765625 403.6875 C 53.09375 403.6875 53.421875 403.675781 53.753906 403.652344 C 58.039062 403.328125 62.171875 401.007812 64.8125 397.449219 C 68.890625 391.964844 69.09375 383.523438 65.292969 377.8125 C 62.289062 373.285156 57.558594 370.691406 52.316406 370.691406 C 50.269531 370.691406 48.203125 371.085938 46.351562 371.835938 C 40.929688 374.03125 35.230469 380.058594 37.015625 389.835938 Z M 37.015625 389.835938 " style=" stroke:none;fill-rule:nonzero;fill:rgb(97.647059%,84.705882%,53.72549%);fill-opacity:1;" />
<path d="M 460.375 72.96875 C 456.796875 51.511719 435.128906 52.128906 419.308594 52.578125 C 416.027344 52.671875 412.925781 52.757812 410.105469 52.683594 L 393.269531 52.214844 L 391.601562 18.226562 C 391.40625 14.265625 391.042969 6.894531 385.578125 3.011719 C 382.761719 1.011719 379.433594 0.5625 376.253906 0.375 L 375.710938 0.34375 C 364.179688 -0.335938 342.71875 -1.605469 339.765625 14.5 C 337.664062 25.953125 337.859375 38.40625 338.121094 50.511719 C 331.570312 50.339844 325.519531 50.210938 319.472656 50.082031 C 313.722656 49.960938 307.96875 49.835938 301.785156 49.675781 L 300.238281 18.226562 C 300.046875 14.269531 299.683594 6.898438 294.214844 3.011719 C 291.402344 1.011719 288.074219 0.566406 284.894531 0.378906 L 284.351562 0.34375 C 272.820312 -0.335938 251.355469 -1.605469 248.402344 14.5 C 246.441406 25.210938 246.480469 36.792969 246.710938 48.148438 L 244.664062 48.09375 C 238.109375 47.910156 232.207031 47.722656 226.304688 47.53125 C 221.113281 47.363281 215.925781 47.199219 210.292969 47.039062 L 208.878906 18.226562 C 208.683594 14.265625 208.324219 6.898438 202.855469 3.011719 C 200.042969 1.011719 196.710938 0.5625 193.535156 0.375 L 192.988281 0.34375 C 181.457031 -0.335938 159.996094 -1.605469 157.042969 14.5 C 155.230469 24.390625 155.125 35.027344 155.300781 45.542969 C 149.007812 45.371094 143.015625 45.21875 137.039062 45.070312 C 131.074219 44.921875 125.09375 44.769531 118.8125 44.601562 L 117.515625 18.226562 C 117.324219 14.269531 116.960938 6.898438 111.492188 3.011719 C 108.679688 1.011719 105.351562 0.566406 102.171875 0.378906 L 101.625 0.34375 C 90.09375 -0.335938 68.632812 -1.605469 65.679688 14.5 C 64.011719 23.597656 63.789062 33.324219 63.902344 43.007812 C 62.230469 42.976562 60.722656 42.957031 59.371094 42.953125 C 39.046875 42.382812 18.753906 43.96875 7.859375 59.210938 C 0.355469 69.707031 0.445312 83.730469 0.511719 93.96875 L 2.925781 470.628906 C 3.007812 483.273438 4.527344 497.101562 15.191406 503.804688 C 21.382812 507.699219 28.847656 507.78125 34.84375 507.84375 L 425.875 511.984375 C 426.625 511.992188 427.433594 512 428.296875 512 C 436.195312 512 448.363281 511.277344 455.128906 502.695312 C 460.390625 496.027344 460.40625 487.078125 460.417969 480.542969 L 461.046875 148.019531 C 461.0625 140.730469 461.371094 133.351562 461.699219 125.535156 C 462.429688 107.996094 463.1875 89.863281 460.375 72.96875 Z M 389.453125 465.769531 C 389.210938 461.1875 389.1875 456.074219 391.945312 453.46875 C 393.964844 451.558594 397.308594 451.070312 401.152344 450.671875 L 446.054688 446.023438 L 391.222656 499.726562 Z M 346.714844 15.777344 C 347.988281 8.828125 356.496094 7.117188 366.898438 7.117188 C 369.601562 7.117188 372.429688 7.234375 375.292969 7.402344 L 375.839844 7.433594 C 378.296875 7.578125 380.199219 7.863281 381.480469 8.773438 C 383.945312 10.523438 384.351562 14.75 384.539062 18.574219 L 387.003906 68.746094 C 387.1875 72.492188 387.085938 76.542969 384.9375 78.175781 C 383.496094 79.269531 381.113281 79.351562 378.382812 79.332031 L 354.460938 79.207031 C 351.441406 79.191406 348.605469 79.0625 347.078125 77.636719 C 345.320312 75.992188 345.257812 72.484375 345.335938 69.324219 C 345.476562 63.597656 345.34375 57.527344 345.214844 51.660156 C 344.949219 39.5 344.671875 26.929688 346.714844 15.777344 Z M 354.421875 86.277344 L 378.347656 86.402344 C 378.582031 86.402344 378.828125 86.402344 379.082031 86.402344 C 382 86.402344 386.023438 86.230469 389.214844 83.800781 C 390.042969 83.171875 390.71875 82.453125 391.296875 81.6875 C 395.824219 87.855469 395.757812 97.8125 390.625 104.835938 C 385.21875 112.234375 375.1875 116.699219 363.789062 116.769531 C 358.011719 116.800781 349.660156 115.796875 342.398438 110.777344 C 336.105469 106.425781 332.058594 99.765625 331.570312 92.957031 C 331.113281 86.570312 334.0625 80.269531 338.890625 76.902344 C 339.445312 79.074219 340.453125 81.117188 342.253906 82.800781 C 345.644531 85.96875 350.125 86.253906 354.421875 86.277344 Z M 247.527344 76.90625 C 248.082031 79.078125 249.089844 81.117188 250.890625 82.800781 C 254.28125 85.96875 258.765625 86.253906 263.0625 86.277344 L 286.984375 86.402344 C 287.222656 86.402344 287.464844 86.402344 287.722656 86.402344 C 290.636719 86.402344 294.660156 86.230469 297.851562 83.800781 C 298.679688 83.171875 299.355469 82.453125 299.933594 81.6875 C 304.464844 87.855469 304.398438 97.8125 299.265625 104.835938 C 293.859375 112.234375 283.824219 116.699219 272.425781 116.769531 C 266.664062 116.800781 258.296875 115.796875 251.035156 110.777344 C 244.742188 106.425781 240.695312 99.765625 240.207031 92.957031 C 239.75 86.570312 242.703125 80.269531 247.527344 76.90625 Z M 255.355469 15.777344 C 256.628906 8.828125 265.132812 7.117188 275.539062 7.117188 C 278.238281 7.117188 281.066406 7.234375 283.929688 7.402344 L 284.480469 7.433594 C 286.9375 7.578125 288.835938 7.863281 290.121094 8.773438 C 292.582031 10.527344 292.988281 14.75 293.179688 18.574219 L 295.640625 68.746094 C 295.824219 72.492188 295.722656 76.542969 293.574219 78.175781 C 292.132812 79.269531 289.757812 79.34375 287.023438 79.332031 L 263.101562 79.207031 C 260.078125 79.191406 257.242188 79.0625 255.714844 77.632812 C 253.960938 75.996094 253.898438 72.484375 253.976562 69.320312 C 254.117188 63.675781 253.988281 57.699219 253.859375 51.910156 C 253.859375 51.898438 253.863281 51.894531 253.863281 51.882812 C 253.863281 51.859375 253.859375 51.835938 253.859375 51.8125 C 253.855469 51.761719 253.855469 51.710938 253.855469 51.664062 C 253.585938 39.503906 253.308594 26.929688 255.355469 15.777344 Z M 156.167969 76.90625 C 156.722656 79.078125 157.730469 81.117188 159.53125 82.800781 C 162.921875 85.96875 167.402344 86.253906 171.699219 86.277344 L 195.625 86.402344 C 195.859375 86.402344 196.105469 86.402344 196.359375 86.402344 C 199.277344 86.402344 203.300781 86.230469 206.492188 83.800781 C 207.320312 83.171875 207.996094 82.453125 208.574219 81.6875 C 213.101562 87.855469 213.035156 97.8125 207.902344 104.835938 C 202.496094 112.234375 192.464844 116.695312 181.066406 116.769531 C 175.316406 116.800781 166.9375 115.796875 159.675781 110.777344 C 153.382812 106.425781 149.335938 99.761719 148.847656 92.957031 C 148.390625 86.570312 151.339844 80.269531 156.167969 76.90625 Z M 163.992188 15.777344 C 165.597656 7.027344 178.675781 6.582031 192.570312 7.402344 L 193.117188 7.433594 C 195.574219 7.578125 197.472656 7.859375 198.757812 8.773438 C 201.222656 10.523438 201.628906 14.75 201.816406 18.574219 L 204.28125 68.746094 C 204.464844 72.492188 204.363281 76.542969 202.214844 78.175781 C 200.773438 79.269531 198.398438 79.34375 195.660156 79.332031 L 171.738281 79.207031 C 168.71875 79.191406 165.882812 79.058594 164.355469 77.632812 C 162.597656 75.992188 162.535156 72.484375 162.613281 69.320312 C 162.753906 63.597656 162.621094 57.527344 162.492188 51.660156 C 162.226562 39.5 161.949219 26.929688 163.992188 15.777344 Z M 64.804688 76.902344 C 65.363281 79.074219 66.367188 81.117188 68.167969 82.800781 C 71.5625 85.964844 76.042969 86.253906 80.339844 86.277344 L 104.261719 86.402344 C 104.5 86.402344 104.746094 86.402344 105 86.402344 C 107.914062 86.402344 111.9375 86.230469 115.128906 83.800781 C 115.957031 83.171875 116.632812 82.453125 117.210938 81.6875 C 121.742188 87.855469 121.675781 97.8125 116.542969 104.835938 C 111.136719 112.234375 101.101562 116.699219 89.707031 116.769531 C 83.949219 116.808594 75.578125 115.796875 68.316406 110.777344 C 62.023438 106.425781 57.972656 99.765625 57.488281 92.957031 C 57.027344 86.570312 59.980469 80.269531 64.804688 76.902344 Z M 72.632812 15.777344 C 74.238281 7.027344 87.316406 6.582031 101.207031 7.402344 L 101.753906 7.433594 C 104.210938 7.578125 106.113281 7.863281 107.398438 8.773438 C 109.859375 10.523438 110.265625 14.75 110.453125 18.574219 L 112.917969 68.746094 C 113.101562 72.492188 113 76.542969 110.851562 78.175781 C 109.410156 79.269531 107.027344 79.347656 104.296875 79.332031 L 80.375 79.207031 C 77.355469 79.191406 74.519531 79.058594 72.992188 77.632812 C 71.238281 75.992188 71.171875 72.484375 71.25 69.320312 C 71.394531 63.597656 71.257812 57.527344 71.128906 51.660156 C 70.863281 39.5 70.585938 26.929688 72.632812 15.777344 Z M 13.609375 63.320312 C 22.582031 50.769531 40.808594 49.511719 59.273438 50.019531 C 60.738281 50.019531 62.292969 50.039062 64.027344 50.078125 C 64.039062 50.660156 64.050781 51.238281 64.066406 51.816406 C 64.199219 57.871094 64.324219 63.585938 64.1875 69.148438 C 64.183594 69.175781 64.183594 69.210938 64.183594 69.242188 C 63.921875 69.300781 63.664062 69.386719 63.417969 69.511719 C 55.0625 73.699219 49.726562 83.546875 50.4375 93.464844 C 51.074219 102.386719 56.253906 111.035156 64.296875 116.59375 C 71.160156 121.339844 79.832031 123.839844 89.398438 123.839844 C 89.515625 123.839844 89.632812 123.839844 89.75 123.839844 C 103.378906 123.753906 115.527344 118.207031 122.25 109.007812 C 130.234375 98.082031 129.089844 82.382812 119.902344 74.222656 C 120.148438 71.96875 120.050781 69.867188 119.980469 68.398438 L 119.160156 51.679688 C 125.246094 51.84375 131.066406 51.992188 136.863281 52.136719 C 142.9375 52.289062 149.035156 52.441406 155.445312 52.617188 C 155.570312 58.371094 155.679688 63.835938 155.546875 69.144531 C 155.546875 69.175781 155.546875 69.207031 155.546875 69.238281 C 155.285156 69.300781 155.03125 69.382812 154.78125 69.507812 C 146.425781 73.695312 141.085938 83.546875 141.796875 93.460938 C 142.4375 102.386719 147.617188 111.03125 155.660156 116.589844 C 162.523438 121.335938 171.195312 123.839844 180.757812 123.839844 C 180.875 123.839844 180.996094 123.839844 181.113281 123.839844 C 194.742188 123.75 206.890625 118.207031 213.613281 109.003906 C 221.597656 98.078125 220.453125 82.378906 211.261719 74.222656 C 211.511719 71.964844 211.414062 69.863281 211.339844 68.398438 L 210.640625 54.117188 C 216.050781 54.273438 221.066406 54.433594 226.078125 54.59375 C 231.992188 54.785156 237.902344 54.972656 244.46875 55.15625 L 246.859375 55.222656 C 246.957031 60.027344 247.023438 64.640625 246.910156 69.144531 C 246.910156 69.171875 246.910156 69.207031 246.90625 69.238281 C 246.648438 69.296875 246.390625 69.382812 246.140625 69.507812 C 237.789062 73.695312 232.449219 83.542969 233.160156 93.460938 C 233.796875 102.382812 238.980469 111.03125 247.019531 116.589844 C 253.882812 121.335938 262.554688 123.835938 272.121094 123.835938 C 272.238281 123.835938 272.355469 123.835938 272.476562 123.835938 C 286.101562 123.75 298.25 118.203125 304.972656 109.003906 C 312.957031 98.078125 311.8125 82.378906 302.625 74.21875 C 302.871094 71.964844 302.773438 69.863281 302.703125 68.394531 L 302.128906 56.75 C 308.125 56.90625 313.726562 57.023438 319.324219 57.144531 C 325.457031 57.273438 331.601562 57.40625 338.265625 57.582031 C 338.332031 61.542969 338.363281 65.382812 338.269531 69.140625 C 338.269531 69.171875 338.269531 69.203125 338.269531 69.234375 C 338.007812 69.296875 337.75 69.378906 337.5 69.503906 C 329.148438 73.691406 323.808594 83.542969 324.519531 93.457031 C 325.160156 102.382812 330.339844 111.027344 338.378906 116.585938 C 345.246094 121.332031 353.917969 123.835938 363.480469 123.835938 C 363.597656 123.835938 363.71875 123.835938 363.835938 123.835938 C 377.464844 123.746094 389.613281 118.203125 396.335938 109 C 404.320312 98.074219 403.175781 82.375 393.984375 74.21875 C 394.234375 71.960938 394.136719 69.859375 394.0625 68.394531 L 393.617188 59.289062 L 409.90625 59.742188 C 412.929688 59.824219 416.125 59.734375 419.507812 59.636719 C 437.855469 59.121094 451.023438 59.851562 453.402344 74.125 C 456.09375 90.292969 455.351562 108.058594 454.632812 125.234375 C 454.34375 132.160156 454.058594 139.289062 454 146.164062 C 453.769531 146.117188 453.527344 146.097656 453.285156 146.105469 C 377.902344 147.4375 303.109375 146.21875 230.777344 145.039062 C 158.382812 143.863281 83.523438 142.644531 8.015625 143.976562 C 7.976562 143.980469 7.941406 143.988281 7.902344 143.992188 L 7.582031 93.914062 C 7.503906 81.902344 7.90625 71.300781 13.609375 63.320312 Z M 18.953125 497.824219 C 11.179688 492.9375 10.0625 481.3125 9.992188 470.585938 L 7.945312 151.035156 C 8.011719 151.039062 8.074219 151.054688 8.140625 151.054688 C 83.527344 149.722656 158.324219 150.941406 230.660156 152.117188 C 280.589844 152.929688 331.683594 153.761719 383.367188 153.761719 C 406.609375 153.761719 429.984375 153.59375 453.40625 153.179688 C 453.601562 153.175781 453.785156 153.144531 453.96875 153.113281 L 453.429688 438.566406 C 452.914062 438.363281 452.351562 438.261719 451.765625 438.324219 L 400.421875 443.640625 C 396.453125 444.054688 391.015625 444.617188 387.085938 448.332031 C 382.140625 453.011719 382.070312 459.976562 382.394531 466.136719 L 384.394531 504.476562 L 34.917969 500.773438 C 28.421875 500.707031 23.121094 500.445312 18.953125 497.824219 Z M 449.578125 498.320312 C 444.636719 504.585938 434.792969 505.007812 425.949219 504.914062 L 396.347656 504.601562 L 453.410156 448.710938 L 453.347656 480.53125 C 453.335938 487.667969 453.042969 493.929688 449.578125 498.320312 Z M 449.578125 498.320312 " style=" stroke:none;fill-rule:nonzero;fill:rgb(0%,0%,0%);fill-opacity:1;" />
<path d="M 44.839844 184.015625 C 35.828125 187.648438 31.1875 196.480469 33.007812 206.519531 C 34.777344 216.253906 43.480469 223.710938 52.765625 223.710938 C 53.195312 223.710938 53.625 223.695312 54.054688 223.660156 C 59.503906 223.25 64.75 220.324219 68.082031 215.828125 C 73.207031 208.921875 73.460938 198.695312 68.6875 191.507812 C 62.492188 182.191406 52.246094 181.03125 44.839844 184.015625 Z M 62.40625 211.617188 C 60.277344 214.488281 56.957031 216.355469 53.523438 216.613281 C 47.394531 217.078125 41.167969 211.875 39.964844 205.257812 C 38.507812 197.25 42.894531 192.421875 47.480469 190.574219 C 48.960938 189.976562 50.617188 189.640625 52.320312 189.640625 C 56.078125 189.640625 60.050781 191.285156 62.796875 195.421875 C 65.878906 200.054688 65.703125 207.167969 62.40625 211.617188 Z M 62.40625 211.617188 " style=" stroke:none;fill-rule:nonzero;fill:rgb(0%,0%,0%);fill-opacity:1;" />
<path d="M 103.867188 184.015625 C 94.859375 187.648438 90.214844 196.480469 92.039062 206.519531 C 93.804688 216.253906 102.507812 223.710938 111.792969 223.710938 C 112.222656 223.710938 112.652344 223.695312 113.082031 223.660156 C 118.535156 223.25 123.777344 220.324219 127.109375 215.828125 C 132.234375 208.921875 132.488281 198.695312 127.714844 191.507812 C 121.523438 182.191406 111.273438 181.03125 103.867188 184.015625 Z M 121.433594 211.617188 C 119.304688 214.488281 115.984375 216.355469 112.554688 216.613281 C 106.425781 217.078125 100.195312 211.875 98.992188 205.257812 C 97.539062 197.25 101.921875 192.421875 106.507812 190.574219 C 107.988281 189.976562 109.644531 189.640625 111.347656 189.640625 C 115.105469 189.640625 119.078125 191.285156 121.828125 195.421875 C 124.90625 200.054688 124.734375 207.167969 121.433594 211.617188 Z M 121.433594 211.617188 " style=" stroke:none;fill-rule:nonzero;fill:rgb(0%,0%,0%);fill-opacity:1;" />
<path d="M 170.820312 223.710938 C 171.25 223.710938 171.679688 223.695312 172.113281 223.660156 C 177.5625 223.25 182.804688 220.324219 186.140625 215.828125 C 191.261719 208.921875 191.515625 198.695312 186.742188 191.507812 C 180.550781 182.191406 170.304688 181.03125 162.894531 184.015625 C 153.886719 187.648438 149.242188 196.480469 151.066406 206.519531 C 152.835938 216.253906 161.535156 223.710938 170.820312 223.710938 Z M 165.539062 190.574219 C 170.289062 188.660156 176.863281 189.414062 180.855469 195.421875 C 183.933594 200.054688 183.761719 207.167969 180.460938 211.617188 C 178.332031 214.484375 175.015625 216.351562 171.582031 216.609375 C 165.445312 217.082031 159.222656 211.871094 158.019531 205.253906 C 156.566406 197.25 160.953125 192.421875 165.539062 190.574219 Z M 165.539062 190.574219 " style=" stroke:none;fill-rule:nonzero;fill:rgb(0%,0%,0%);fill-opacity:1;" />
<path d="M 229.851562 223.710938 C 230.28125 223.710938 230.710938 223.695312 231.140625 223.660156 C 236.589844 223.25 241.835938 220.324219 245.167969 215.828125 C 250.292969 208.921875 250.546875 198.695312 245.773438 191.507812 C 239.582031 182.191406 229.332031 181.03125 221.925781 184.015625 C 212.914062 187.648438 208.273438 196.480469 210.097656 206.519531 C 211.863281 216.253906 220.566406 223.710938 229.851562 223.710938 Z M 224.566406 190.574219 C 226.046875 189.976562 227.703125 189.640625 229.40625 189.640625 C 233.164062 189.640625 237.136719 191.285156 239.886719 195.421875 C 242.964844 200.054688 242.792969 207.167969 239.492188 211.617188 C 237.363281 214.484375 234.042969 216.351562 230.613281 216.609375 C 224.484375 217.078125 218.253906 211.875 217.050781 205.253906 C 215.597656 197.25 219.980469 192.421875 224.566406 190.574219 Z M 224.566406 190.574219 " style=" stroke:none;fill-rule:nonzero;fill:rgb(0%,0%,0%);fill-opacity:1;" />
<path d="M 288.878906 223.710938 C 289.308594 223.710938 289.738281 223.695312 290.167969 223.660156 C 295.621094 223.25 300.863281 220.324219 304.195312 215.828125 C 309.320312 208.921875 309.574219 198.695312 304.800781 191.507812 C 298.609375 182.191406 288.363281 181.03125 280.953125 184.015625 C 271.945312 187.648438 267.300781 196.480469 269.125 206.519531 C 270.894531 216.253906 279.59375 223.710938 288.878906 223.710938 Z M 283.597656 190.574219 C 288.347656 188.660156 294.921875 189.417969 298.914062 195.421875 C 301.992188 200.054688 301.820312 207.167969 298.519531 211.617188 C 296.390625 214.488281 293.070312 216.355469 289.640625 216.613281 C 283.515625 217.078125 277.28125 211.875 276.078125 205.257812 C 274.625 197.25 279.007812 192.421875 283.597656 190.574219 Z M 283.597656 190.574219 " style=" stroke:none;fill-rule:nonzero;fill:rgb(0%,0%,0%);fill-opacity:1;" />
<path d="M 347.90625 223.710938 C 348.335938 223.710938 348.769531 223.695312 349.199219 223.660156 C 354.648438 223.25 359.890625 220.324219 363.226562 215.828125 C 368.351562 208.921875 368.605469 198.695312 363.828125 191.507812 C 357.636719 182.191406 347.390625 181.03125 339.984375 184.015625 C 330.972656 187.648438 326.328125 196.480469 328.152344 206.519531 C 329.921875 216.253906 338.625 223.710938 347.90625 223.710938 Z M 342.625 190.574219 C 344.105469 189.976562 345.761719 189.640625 347.460938 189.640625 C 351.222656 189.640625 355.195312 191.285156 357.945312 195.421875 C 361.023438 200.054688 360.851562 207.167969 357.550781 211.617188 C 355.421875 214.484375 352.101562 216.351562 348.667969 216.609375 C 342.542969 217.074219 336.3125 211.875 335.109375 205.253906 C 333.65625 197.25 338.039062 192.421875 342.625 190.574219 Z M 342.625 190.574219 " style=" stroke:none;fill-rule:nonzero;fill:rgb(0%,0%,0%);fill-opacity:1;" />
<path d="M 406.9375 223.710938 C 407.363281 223.710938 407.796875 223.695312 408.226562 223.660156 C 413.679688 223.25 418.921875 220.324219 422.253906 215.828125 C 427.378906 208.921875 427.632812 198.695312 422.859375 191.507812 C 416.667969 182.191406 406.417969 181.03125 399.011719 184.015625 C 390 187.648438 385.359375 196.480469 387.183594 206.519531 C 388.949219 216.253906 397.652344 223.710938 406.9375 223.710938 Z M 401.652344 190.574219 C 403.132812 189.976562 404.789062 189.640625 406.492188 189.640625 C 410.25 189.640625 414.222656 191.285156 416.972656 195.421875 C 420.050781 200.054688 419.878906 207.167969 416.578125 211.617188 C 414.449219 214.488281 411.128906 216.355469 407.699219 216.613281 C 401.570312 217.078125 395.339844 211.875 394.136719 205.257812 C 392.683594 197.25 397.066406 192.421875 401.652344 190.574219 Z M 401.652344 190.574219 " style=" stroke:none;fill-rule:nonzero;fill:rgb(0%,0%,0%);fill-opacity:1;" />
<path d="M 44.839844 244.660156 C 35.828125 248.292969 31.1875 257.125 33.007812 267.164062 C 34.777344 276.898438 43.480469 284.355469 52.765625 284.355469 C 53.191406 284.355469 53.625 284.339844 54.054688 284.308594 C 59.503906 283.898438 64.75 280.96875 68.082031 276.476562 C 73.207031 269.566406 73.460938 259.339844 68.6875 252.15625 C 62.492188 242.835938 52.25 241.675781 44.839844 244.660156 Z M 62.40625 272.261719 C 60.277344 275.132812 56.957031 277 53.523438 277.257812 C 47.386719 277.726562 41.167969 272.519531 39.964844 265.902344 C 38.507812 257.898438 42.894531 253.066406 47.480469 251.21875 C 48.960938 250.625 50.617188 250.285156 52.316406 250.285156 C 56.078125 250.285156 60.050781 251.933594 62.796875 256.066406 C 65.878906 260.699219 65.703125 267.816406 62.40625 272.261719 Z M 62.40625 272.261719 " style=" stroke:none;fill-rule:nonzero;fill:rgb(0%,0%,0%);fill-opacity:1;" />
<path d="M 103.867188 244.660156 C 94.859375 248.292969 90.214844 257.125 92.039062 267.164062 C 93.804688 276.898438 102.507812 284.355469 111.792969 284.355469 C 112.222656 284.355469 112.652344 284.339844 113.082031 284.308594 C 118.535156 283.898438 123.777344 280.96875 127.109375 276.476562 C 132.234375 269.566406 132.488281 259.339844 127.714844 252.15625 C 121.523438 242.835938 111.277344 241.675781 103.867188 244.660156 Z M 121.433594 272.261719 C 119.304688 275.132812 115.984375 277 112.554688 277.257812 C 106.410156 277.726562 100.195312 272.519531 98.992188 265.902344 C 97.539062 257.898438 101.921875 253.066406 106.507812 251.21875 C 107.988281 250.625 109.644531 250.285156 111.347656 250.285156 C 115.105469 250.285156 119.078125 251.933594 121.828125 256.066406 C 124.90625 260.699219 124.734375 267.816406 121.433594 272.261719 Z M 121.433594 272.261719 " style=" stroke:none;fill-rule:nonzero;fill:rgb(0%,0%,0%);fill-opacity:1;" />
<path d="M 170.820312 284.355469 C 171.25 284.355469 171.679688 284.339844 172.113281 284.308594 C 177.5625 283.898438 182.804688 280.96875 186.140625 276.476562 C 191.261719 269.566406 191.515625 259.339844 186.742188 252.15625 C 180.550781 242.835938 170.304688 241.675781 162.894531 244.664062 C 153.886719 248.292969 149.242188 257.125 151.066406 267.167969 C 152.835938 276.902344 161.539062 284.355469 170.820312 284.355469 Z M 165.539062 251.21875 C 170.289062 249.308594 176.867188 250.0625 180.855469 256.066406 C 183.9375 260.699219 183.761719 267.816406 180.460938 272.261719 C 178.335938 275.132812 175.015625 277 171.582031 277.257812 C 165.453125 277.726562 159.222656 272.523438 158.023438 265.902344 C 156.566406 257.894531 160.953125 253.066406 165.539062 251.21875 Z M 165.539062 251.21875 " style=" stroke:none;fill-rule:nonzero;fill:rgb(0%,0%,0%);fill-opacity:1;" />
<path d="M 229.851562 284.355469 C 230.277344 284.355469 230.710938 284.339844 231.140625 284.308594 C 236.589844 283.898438 241.835938 280.96875 245.167969 276.476562 C 250.292969 269.566406 250.546875 259.339844 245.773438 252.15625 C 239.578125 242.835938 229.335938 241.675781 221.925781 244.664062 C 212.914062 248.292969 208.273438 257.125 210.097656 267.167969 C 211.863281 276.902344 220.566406 284.355469 229.851562 284.355469 Z M 224.570312 251.21875 C 226.046875 250.621094 227.703125 250.285156 229.40625 250.285156 C 233.164062 250.285156 237.140625 251.933594 239.886719 256.066406 C 242.964844 260.699219 242.792969 267.816406 239.492188 272.261719 C 237.363281 275.132812 234.042969 277 230.613281 277.257812 C 224.46875 277.726562 218.253906 272.519531 217.050781 265.902344 C 215.597656 257.894531 219.980469 253.066406 224.570312 251.21875 Z M 224.570312 251.21875 " style=" stroke:none;fill-rule:nonzero;fill:rgb(0%,0%,0%);fill-opacity:1;" />
<path d="M 304.800781 252.15625 C 298.609375 242.835938 288.363281 241.675781 280.953125 244.664062 C 271.945312 248.292969 267.300781 257.125 269.125 267.167969 C 270.890625 276.902344 279.59375 284.355469 288.878906 284.355469 C 289.308594 284.355469 289.738281 284.339844 290.167969 284.308594 C 295.621094 283.898438 300.863281 280.96875 304.195312 276.476562 C 309.320312 269.566406 309.574219 259.339844 304.800781 252.15625 Z M 298.519531 272.261719 C 296.390625 275.132812 293.070312 277 289.640625 277.257812 C 283.492188 277.722656 277.28125 272.519531 276.078125 265.902344 C 274.625 257.894531 279.007812 253.066406 283.597656 251.21875 C 288.347656 249.304688 294.921875 250.0625 298.914062 256.066406 C 301.992188 260.699219 301.820312 267.816406 298.519531 272.261719 Z M 298.519531 272.261719 " style=" stroke:none;fill-rule:nonzero;fill:rgb(0%,0%,0%);fill-opacity:1;" />
<path d="M 347.90625 284.355469 C 348.335938 284.355469 348.769531 284.339844 349.199219 284.308594 C 354.648438 283.898438 359.894531 280.96875 363.226562 276.476562 C 368.351562 269.566406 368.605469 259.339844 363.828125 252.15625 C 357.636719 242.835938 347.390625 241.675781 339.984375 244.664062 C 330.972656 248.292969 326.328125 257.125 328.152344 267.167969 C 329.921875 276.902344 338.621094 284.355469 347.90625 284.355469 Z M 342.625 251.21875 C 344.105469 250.621094 345.761719 250.285156 347.460938 250.285156 C 351.222656 250.285156 355.195312 251.933594 357.941406 256.066406 C 361.023438 260.699219 360.847656 267.816406 357.546875 272.261719 C 355.421875 275.132812 352.101562 277 348.667969 277.257812 C 342.539062 277.726562 336.3125 272.523438 335.109375 265.902344 C 333.652344 257.894531 338.039062 253.066406 342.625 251.21875 Z M 342.625 251.21875 " style=" stroke:none;fill-rule:nonzero;fill:rgb(0%,0%,0%);fill-opacity:1;" />
<path d="M 406.9375 284.355469 C 407.363281 284.355469 407.796875 284.339844 408.226562 284.308594 C 413.679688 283.894531 418.921875 280.96875 422.253906 276.476562 C 427.378906 269.566406 427.632812 259.339844 422.859375 252.15625 C 416.667969 242.835938 406.421875 241.675781 399.011719 244.664062 C 390 248.292969 385.359375 257.125 387.183594 267.167969 C 388.949219 276.902344 397.652344 284.355469 406.9375 284.355469 Z M 401.65625 251.21875 C 403.132812 250.621094 404.789062 250.285156 406.492188 250.285156 C 410.25 250.285156 414.226562 251.933594 416.972656 256.066406 C 420.050781 260.699219 419.878906 267.816406 416.578125 272.261719 C 414.449219 275.132812 411.128906 277 407.699219 277.257812 C 401.570312 277.726562 395.339844 272.519531 394.136719 265.902344 C 392.683594 257.894531 397.066406 253.066406 401.65625 251.21875 Z M 401.65625 251.21875 " style=" stroke:none;fill-rule:nonzero;fill:rgb(0%,0%,0%);fill-opacity:1;" />
<path d="M 44.839844 307.417969 C 35.828125 311.046875 31.1875 319.882812 33.007812 329.921875 C 34.777344 339.65625 43.480469 347.109375 52.761719 347.109375 C 53.191406 347.109375 53.625 347.09375 54.054688 347.0625 C 59.503906 346.652344 64.746094 343.726562 68.082031 339.230469 C 73.207031 332.324219 73.460938 322.09375 68.6875 314.910156 C 62.492188 305.589844 52.25 304.433594 44.839844 307.417969 Z M 62.40625 335.019531 C 60.277344 337.886719 56.957031 339.753906 53.523438 340.011719 C 47.386719 340.480469 41.167969 335.277344 39.964844 328.660156 C 38.507812 320.652344 42.894531 315.824219 47.480469 313.976562 C 48.960938 313.378906 50.617188 313.042969 52.316406 313.042969 C 56.078125 313.042969 60.050781 314.6875 62.796875 318.824219 C 65.878906 323.457031 65.703125 330.570312 62.40625 335.019531 Z M 62.40625 335.019531 " style=" stroke:none;fill-rule:nonzero;fill:rgb(0%,0%,0%);fill-opacity:1;" />
<path d="M 103.867188 307.417969 C 94.859375 311.046875 90.214844 319.882812 92.039062 329.921875 C 93.804688 339.65625 102.507812 347.109375 111.789062 347.109375 C 112.222656 347.109375 112.652344 347.09375 113.082031 347.0625 C 118.53125 346.652344 123.777344 343.726562 127.109375 339.230469 C 132.234375 332.324219 132.488281 322.09375 127.714844 314.910156 C 121.523438 305.589844 111.277344 304.433594 103.867188 307.417969 Z M 121.433594 335.019531 C 119.304688 337.886719 115.984375 339.753906 112.554688 340.011719 C 106.410156 340.480469 100.195312 335.277344 98.992188 328.660156 C 97.539062 320.652344 101.921875 315.824219 106.507812 313.976562 C 107.988281 313.378906 109.644531 313.042969 111.347656 313.042969 C 115.105469 313.042969 119.078125 314.6875 121.828125 318.824219 C 124.90625 323.457031 124.734375 330.570312 121.433594 335.019531 Z M 121.433594 335.019531 " style=" stroke:none;fill-rule:nonzero;fill:rgb(0%,0%,0%);fill-opacity:1;" />
<path d="M 170.820312 347.109375 C 171.25 347.109375 171.679688 347.09375 172.113281 347.0625 C 177.5625 346.652344 182.804688 343.726562 186.140625 339.230469 C 191.265625 332.324219 191.519531 322.09375 186.742188 314.910156 C 180.550781 305.589844 170.304688 304.429688 162.898438 307.417969 C 153.886719 311.046875 149.242188 319.882812 151.066406 329.921875 C 152.835938 339.65625 161.535156 347.109375 170.820312 347.109375 Z M 165.539062 313.972656 C 170.289062 312.0625 176.867188 312.816406 180.855469 318.824219 C 183.9375 323.457031 183.761719 330.570312 180.460938 335.019531 C 178.332031 337.886719 175.015625 339.753906 171.582031 340.011719 C 165.453125 340.480469 159.222656 335.277344 158.023438 328.660156 C 156.566406 320.652344 160.953125 315.824219 165.539062 313.972656 Z M 165.539062 313.972656 " style=" stroke:none;fill-rule:nonzero;fill:rgb(0%,0%,0%);fill-opacity:1;" />
<path d="M 229.847656 347.109375 C 230.277344 347.109375 230.710938 347.09375 231.140625 347.0625 C 236.589844 346.652344 241.832031 343.726562 245.167969 339.230469 C 250.292969 332.324219 250.546875 322.09375 245.773438 314.910156 C 239.578125 305.589844 229.332031 304.433594 221.925781 307.417969 C 212.914062 311.046875 208.273438 319.882812 210.09375 329.921875 C 211.863281 339.65625 220.566406 347.109375 229.847656 347.109375 Z M 224.570312 313.972656 C 226.046875 313.378906 227.703125 313.039062 229.40625 313.039062 C 233.164062 313.039062 237.140625 314.6875 239.886719 318.820312 C 242.964844 323.457031 242.792969 330.570312 239.492188 335.019531 C 237.363281 337.886719 234.042969 339.753906 230.613281 340.011719 C 224.46875 340.480469 218.253906 335.277344 217.050781 328.660156 C 215.597656 320.652344 219.980469 315.824219 224.570312 313.972656 Z M 224.570312 313.972656 " style=" stroke:none;fill-rule:nonzero;fill:rgb(0%,0%,0%);fill-opacity:1;" />
<path d="M 280.953125 307.417969 C 271.945312 311.046875 267.300781 319.882812 269.125 329.921875 C 270.890625 339.65625 279.59375 347.109375 288.875 347.109375 C 289.308594 347.109375 289.738281 347.09375 290.167969 347.0625 C 295.617188 346.652344 300.863281 343.726562 304.195312 339.230469 C 309.320312 332.324219 309.574219 322.09375 304.800781 314.910156 C 298.609375 305.589844 288.363281 304.433594 280.953125 307.417969 Z M 298.519531 335.019531 C 296.390625 337.886719 293.070312 339.753906 289.640625 340.011719 C 283.492188 340.480469 277.28125 335.273438 276.078125 328.65625 C 274.625 320.652344 279.007812 315.820312 283.597656 313.972656 C 288.347656 312.058594 294.921875 312.816406 298.914062 318.820312 C 301.992188 323.457031 301.820312 330.570312 298.519531 335.019531 Z M 298.519531 335.019531 " style=" stroke:none;fill-rule:nonzero;fill:rgb(0%,0%,0%);fill-opacity:1;" />
<path d="M 347.90625 347.109375 C 348.335938 347.109375 348.765625 347.09375 349.199219 347.0625 C 354.648438 346.652344 359.890625 343.726562 363.226562 339.230469 C 368.351562 332.324219 368.605469 322.09375 363.828125 314.910156 C 357.636719 305.589844 347.390625 304.433594 339.984375 307.417969 C 330.972656 311.046875 326.328125 319.882812 328.152344 329.921875 C 329.921875 339.65625 338.621094 347.109375 347.90625 347.109375 Z M 342.625 313.972656 C 344.105469 313.378906 345.761719 313.039062 347.460938 313.039062 C 351.222656 313.039062 355.195312 314.6875 357.941406 318.820312 C 361.023438 323.457031 360.847656 330.570312 357.546875 335.019531 C 355.417969 337.886719 352.101562 339.753906 348.667969 340.011719 C 342.539062 340.480469 336.3125 335.277344 335.109375 328.660156 C 333.652344 320.652344 338.039062 315.824219 342.625 313.972656 Z M 342.625 313.972656 " style=" stroke:none;fill-rule:nonzero;fill:rgb(0%,0%,0%);fill-opacity:1;" />
<path d="M 406.933594 347.109375 C 407.363281 347.109375 407.796875 347.09375 408.226562 347.0625 C 413.675781 346.652344 418.921875 343.722656 422.253906 339.230469 C 427.378906 332.324219 427.632812 322.09375 422.859375 314.910156 C 416.664062 305.589844 406.417969 304.433594 399.011719 307.417969 C 390 311.046875 385.359375 319.882812 387.179688 329.921875 C 388.949219 339.65625 397.652344 347.109375 406.933594 347.109375 Z M 401.65625 313.972656 C 403.132812 313.378906 404.789062 313.039062 406.492188 313.039062 C 410.25 313.039062 414.226562 314.6875 416.972656 318.820312 C 420.050781 323.457031 419.878906 330.570312 416.578125 335.019531 C 414.449219 337.886719 411.128906 339.753906 407.699219 340.011719 C 401.570312 340.472656 395.339844 335.273438 394.136719 328.65625 C 392.683594 320.652344 397.066406 315.824219 401.65625 313.972656 Z M 401.65625 313.972656 " style=" stroke:none;fill-rule:nonzero;fill:rgb(0%,0%,0%);fill-opacity:1;" />
<path d="M 44.839844 368.0625 C 35.828125 371.695312 31.1875 380.527344 33.007812 390.566406 C 34.777344 400.300781 43.480469 407.757812 52.761719 407.757812 C 53.191406 407.757812 53.625 407.742188 54.054688 407.707031 C 59.503906 407.296875 64.746094 404.371094 68.082031 399.878906 C 73.207031 392.96875 73.460938 382.742188 68.6875 375.558594 C 62.492188 366.238281 52.246094 365.078125 44.839844 368.0625 Z M 62.40625 395.664062 C 60.277344 398.53125 56.957031 400.398438 53.523438 400.65625 C 47.382812 401.121094 41.167969 395.921875 39.964844 389.304688 C 38.507812 381.296875 42.894531 376.46875 47.480469 374.621094 C 48.960938 374.023438 50.617188 373.6875 52.320312 373.6875 C 56.078125 373.6875 60.050781 375.332031 62.796875 379.46875 C 65.878906 384.101562 65.703125 391.214844 62.40625 395.664062 Z M 62.40625 395.664062 " style=" stroke:none;fill-rule:nonzero;fill:rgb(0%,0%,0%);fill-opacity:1;" />
<path d="M 103.867188 368.0625 C 94.859375 371.695312 90.214844 380.527344 92.039062 390.566406 C 93.804688 400.300781 102.507812 407.757812 111.789062 407.757812 C 112.21875 407.757812 112.652344 407.742188 113.082031 407.707031 C 118.53125 407.296875 123.777344 404.371094 127.109375 399.878906 C 132.234375 392.96875 132.488281 382.742188 127.714844 375.558594 C 121.523438 366.238281 111.273438 365.078125 103.867188 368.0625 Z M 121.433594 395.664062 C 119.304688 398.53125 115.984375 400.398438 112.554688 400.65625 C 106.414062 401.121094 100.195312 395.921875 98.992188 389.304688 C 97.539062 381.296875 101.921875 376.46875 106.507812 374.621094 C 107.988281 374.023438 109.644531 373.6875 111.347656 373.6875 C 115.105469 373.6875 119.078125 375.332031 121.828125 379.46875 C 124.90625 384.101562 124.734375 391.214844 121.433594 395.664062 Z M 121.433594 395.664062 " style=" stroke:none;fill-rule:nonzero;fill:rgb(0%,0%,0%);fill-opacity:1;" />
<path d="M 170.820312 407.753906 C 171.25 407.753906 171.679688 407.738281 172.113281 407.707031 C 177.5625 407.296875 182.804688 404.371094 186.140625 399.875 C 191.265625 392.96875 191.519531 382.742188 186.742188 375.558594 C 180.550781 366.238281 170.304688 365.078125 162.898438 368.066406 C 153.886719 371.695312 149.242188 380.527344 151.066406 390.570312 C 152.835938 400.300781 161.535156 407.753906 170.820312 407.753906 Z M 165.539062 374.621094 C 170.289062 372.707031 176.863281 373.460938 180.855469 379.46875 C 183.933594 384.101562 183.761719 391.214844 180.460938 395.664062 C 178.332031 398.53125 175.015625 400.398438 171.582031 400.65625 C 165.433594 401.117188 159.222656 395.921875 158.019531 389.304688 C 156.566406 381.296875 160.953125 376.46875 165.539062 374.621094 Z M 165.539062 374.621094 " style=" stroke:none;fill-rule:nonzero;fill:rgb(0%,0%,0%);fill-opacity:1;" />
<path d="M 229.847656 407.753906 C 230.277344 407.753906 230.710938 407.738281 231.140625 407.707031 C 236.589844 407.296875 241.832031 404.371094 245.167969 399.875 C 250.292969 392.96875 250.546875 382.742188 245.773438 375.558594 C 239.578125 366.238281 229.332031 365.078125 221.925781 368.066406 C 212.914062 371.695312 208.273438 380.527344 210.09375 390.570312 C 211.863281 400.300781 220.566406 407.753906 229.847656 407.753906 Z M 224.566406 374.621094 C 226.046875 374.023438 227.703125 373.6875 229.40625 373.6875 C 233.164062 373.6875 237.136719 375.332031 239.886719 379.46875 C 242.964844 384.101562 242.792969 391.214844 239.492188 395.664062 C 237.363281 398.53125 234.042969 400.398438 230.613281 400.65625 C 224.472656 401.121094 218.253906 395.921875 217.050781 389.304688 C 215.597656 381.296875 219.980469 376.46875 224.566406 374.621094 Z M 224.566406 374.621094 " style=" stroke:none;fill-rule:nonzero;fill:rgb(0%,0%,0%);fill-opacity:1;" />
<path d="M 288.875 407.753906 C 289.308594 407.753906 289.738281 407.738281 290.167969 407.707031 C 295.621094 407.296875 300.863281 404.371094 304.195312 399.875 C 309.320312 392.96875 309.574219 382.742188 304.800781 375.558594 C 298.609375 366.238281 288.363281 365.078125 280.953125 368.066406 C 271.945312 371.695312 267.300781 380.527344 269.125 390.570312 C 270.894531 400.300781 279.59375 407.753906 288.875 407.753906 Z M 283.597656 374.621094 C 288.347656 372.707031 294.921875 373.464844 298.914062 379.46875 C 301.992188 384.101562 301.820312 391.214844 298.519531 395.664062 C 296.390625 398.535156 293.070312 400.402344 289.640625 400.65625 C 283.5 401.121094 277.28125 395.921875 276.078125 389.304688 C 274.625 381.296875 279.007812 376.46875 283.597656 374.621094 Z M 283.597656 374.621094 " style=" stroke:none;fill-rule:nonzero;fill:rgb(0%,0%,0%);fill-opacity:1;" />
<path d="M 339.984375 368.0625 C 330.972656 371.695312 326.332031 380.527344 328.152344 390.566406 C 329.921875 400.300781 338.621094 407.757812 347.90625 407.757812 C 348.335938 407.757812 348.769531 407.742188 349.199219 407.707031 C 354.648438 407.296875 359.894531 404.371094 363.226562 399.878906 C 368.351562 392.96875 368.605469 382.742188 363.832031 375.558594 C 357.636719 366.238281 347.390625 365.078125 339.984375 368.0625 Z M 357.546875 395.664062 C 355.417969 398.53125 352.101562 400.398438 348.667969 400.65625 C 342.527344 401.121094 336.3125 395.921875 335.109375 389.304688 C 333.65625 381.296875 338.039062 376.46875 342.625 374.621094 C 344.105469 374.023438 345.761719 373.6875 347.464844 373.6875 C 351.222656 373.6875 355.195312 375.332031 357.945312 379.46875 C 361.023438 384.101562 360.847656 391.214844 357.546875 395.664062 Z M 357.546875 395.664062 " style=" stroke:none;fill-rule:nonzero;fill:rgb(0%,0%,0%);fill-opacity:1;" />
<path d="M 406.933594 407.753906 C 407.363281 407.753906 407.796875 407.738281 408.226562 407.707031 C 413.675781 407.296875 418.921875 404.371094 422.253906 399.875 C 427.378906 392.96875 427.632812 382.742188 422.859375 375.558594 C 416.664062 366.238281 406.417969 365.078125 399.011719 368.066406 C 390 371.695312 385.359375 380.527344 387.179688 390.570312 C 388.949219 400.300781 397.652344 407.753906 406.933594 407.753906 Z M 401.652344 374.621094 C 403.132812 374.023438 404.789062 373.6875 406.492188 373.6875 C 410.25 373.6875 414.222656 375.332031 416.972656 379.46875 C 420.050781 384.101562 419.878906 391.214844 416.578125 395.664062 C 414.449219 398.535156 411.128906 400.402344 407.699219 400.65625 C 401.558594 401.121094 395.339844 395.921875 394.136719 389.304688 C 392.683594 381.296875 397.066406 376.46875 401.652344 374.621094 Z M 401.652344 374.621094 " style=" stroke:none;fill-rule:nonzero;fill:rgb(0%,0%,0%);fill-opacity:1;" />
<path d="M 354.640625 360.222656 C 342.90625 357.800781 331.492188 361.625 324.117188 370.453125 C 314.785156 381.621094 314.640625 399.242188 323.789062 410.5625 C 329.804688 418.003906 339.324219 422.09375 348.800781 422.09375 C 353.738281 422.09375 358.660156 420.984375 363.074219 418.664062 C 375.953125 411.882812 382.789062 395.648438 378.640625 381.699219 C 375.40625 370.835938 366.210938 362.609375 354.640625 360.222656 Z M 361.191406 415.085938 C 349.957031 421 334.910156 417.894531 326.929688 408.023438 C 318.953125 398.148438 319.078125 382.785156 327.21875 373.042969 C 333.621094 365.375 343.566406 362.0625 353.824219 364.175781 C 364.085938 366.292969 371.914062 373.273438 374.765625 382.847656 C 378.386719 395.015625 372.421875 409.175781 361.191406 415.085938 Z M 361.191406 415.085938 " style=" stroke:none;fill-rule:nonzero;fill:rgb(0%,0%,0%);fill-opacity:1;" />
</g>
</svg>