<svg xmlns="http://www.w3.org/2000/svg" height="511pt" version="1.1" viewBox="0 -11 511.99905 511" width="511pt">
<g id="surface1">
<path d="M 394.144531 142.113281 C 388.773438 149.855469 381.308594 154.546875 373.601562 154.988281 C 373.460938 155 373.320312 155 373.179688 155 C 373.15625 155 371.886719 155 370.589844 155 L 368.761719 154.675781 C 362.113281 153.496094 355.769531 149.390625 350.898438 143.113281 C 348.730469 140.3125 346.796875 137.074219 344.996094 133.222656 L 339.292969 134.78125 C 340.710938 149.503906 344.316406 163.890625 350.007812 177.542969 C 350.902344 179.699219 352.890625 183.316406 356.160156 183.316406 C 356.496094 183.316406 356.835938 183.273438 357.140625 183.195312 C 359.304688 182.667969 360.441406 180.65625 361.339844 178.808594 L 370.554688 159.734375 L 381.320312 178.359375 C 382.773438 180.878906 385.144531 183.878906 388.199219 183.878906 C 388.726562 183.878906 389.242188 183.789062 389.753906 183.601562 C 391.503906 182.945312 392.523438 181.3125 393.34375 179.832031 C 401.945312 164.265625 406.640625 146.632812 406.925781 128.839844 L 401.097656 127.792969 C 398.964844 133.828125 396.820312 138.242188 394.144531 142.113281 Z M 394.144531 142.113281 " style=" stroke:none;fill-rule:nonzero;fill:rgb(15.686275%,56.078431%,78.823529%);fill-opacity:1;" />
<path d="M 134.664062 184.355469 C 135.011719 184.355469 135.359375 184.3125 135.652344 184.234375 C 137.820312 183.707031 138.953125 181.695312 139.851562 179.84375 L 149.0625 160.777344 L 159.828125 179.40625 C 161.289062 181.921875 163.667969 184.917969 166.710938 184.917969 C 167.234375 184.917969 167.75 184.828125 168.265625 184.636719 C 170.015625 183.980469 171.035156 182.351562 171.855469 180.871094 C 180.453125 165.292969 185.152344 147.652344 185.4375 129.859375 L 179.613281 128.804688 C 177.464844 134.832031 175.253906 139.394531 172.652344 143.160156 C 167.28125 150.90625 159.816406 155.597656 152.113281 156.027344 C 151.980469 156.039062 151.847656 156.039062 151.714844 156.042969 L 149.550781 156.121094 L 147.273438 155.714844 C 140.625 154.535156 134.28125 150.433594 129.414062 144.164062 C 127.238281 141.347656 125.304688 138.109375 123.507812 134.257812 L 117.800781 135.816406 C 119.222656 150.539062 122.828125 164.929688 128.515625 178.578125 C 129.414062 180.738281 131.398438 184.355469 134.664062 184.355469 Z M 134.664062 184.355469 " style=" stroke:none;fill-rule:nonzero;fill:rgb(15.686275%,56.078431%,78.823529%);fill-opacity:1;" />
<path d="M 404.929688 120.503906 L 404.96875 126.351562 C 405.097656 144.679688 400.480469 162.84375 391.621094 178.886719 C 390.800781 180.378906 390.089844 181.378906 389.066406 181.761719 C 388.761719 181.875 388.472656 181.929688 388.179688 181.929688 C 386.597656 181.929688 384.664062 180.226562 383.015625 177.378906 L 370.324219 155.425781 L 370.15625 164.699219 L 366.410156 163.804688 L 359.5625 177.960938 C 358.878906 179.394531 358.035156 180.953125 356.675781 181.289062 C 356.492188 181.335938 356.304688 181.359375 356.128906 181.359375 C 354.640625 181.359375 352.992188 179.609375 351.820312 176.785156 C 345.667969 162.019531 342 146.441406 340.914062 130.484375 L 340.585938 125.714844 L 336.433594 128.082031 C 317.332031 138.972656 300.898438 155.46875 290.15625 174.527344 C 278.839844 194.613281 273.285156 218.375 274.511719 241.4375 L 274.664062 244.25 L 277.476562 244.28125 C 285.523438 244.367188 293.722656 244.480469 302.539062 244.628906 L 305.605469 244.679688 L 305.589844 241.617188 C 305.519531 227.261719 307.207031 213.003906 310.601562 199.25 C 310.671875 198.964844 310.917969 198.835938 311.117188 198.835938 C 311.160156 198.835938 311.207031 198.839844 311.246094 198.851562 C 311.53125 198.921875 311.707031 199.214844 311.636719 199.503906 C 308.242188 213.273438 306.566406 227.5 306.660156 241.78125 L 306.679688 244.703125 L 309.601562 244.757812 C 328.867188 245.125 348.078125 245.632812 366.734375 246.265625 L 366.65625 246.421875 L 371.453125 246.421875 L 372.65625 246.464844 L 372.65625 246.460938 C 392.28125 247.164062 411.957031 248.148438 428.660156 249.027344 L 431.683594 249.183594 L 431.816406 246.160156 C 432.449219 231.601562 431.066406 217.085938 427.707031 203.019531 C 427.636719 202.726562 427.816406 202.4375 428.097656 202.371094 C 428.140625 202.359375 428.1875 202.355469 428.226562 202.355469 C 428.4375 202.355469 428.6875 202.496094 428.75 202.765625 C 432.140625 216.992188 433.53125 231.628906 432.882812 246.265625 L 432.75 249.234375 L 437.378906 249.488281 C 441.429688 249.707031 445.46875 249.925781 449.476562 250.136719 L 465.800781 251.007812 L 465.972656 248.023438 C 467.449219 222.570312 461.914062 192.511719 452.207031 173.230469 C 442.347656 153.652344 427.648438 136.585938 409.703125 123.882812 Z M 404.929688 120.503906 " style=" stroke:none;fill-rule:nonzero;fill:rgb(35.686275%,81.568627%,98.823529%);fill-opacity:1;" />
<path d="M 50.183594 248.613281 L 55.703125 248.347656 C 63.382812 247.980469 71.390625 247.625 80.195312 247.257812 L 83.109375 247.136719 L 83.070312 244.21875 C 82.863281 229.351562 84.546875 214.574219 88.074219 200.277344 C 88.140625 200.011719 88.378906 199.875 88.582031 199.875 C 88.621094 199.875 88.664062 199.882812 88.710938 199.894531 C 88.894531 199.9375 88.996094 200.050781 89.046875 200.140625 C 89.097656 200.222656 89.152344 200.363281 89.105469 200.542969 C 85.617188 214.714844 83.945312 229.34375 84.140625 244.019531 L 84.179688 247.097656 L 87.257812 246.976562 C 107.242188 246.199219 127.113281 245.570312 146.320312 245.109375 L 147.234375 245.085938 L 147.234375 245.089844 L 158.351562 244.839844 C 173.410156 244.535156 188.917969 244.320312 205.753906 244.179688 L 208.601562 244.15625 L 208.726562 241.3125 C 209.34375 227.1875 208.449219 217.789062 205.175781 204.054688 C 205.136719 203.882812 205.191406 203.742188 205.242188 203.65625 C 205.296875 203.574219 205.394531 203.460938 205.585938 203.417969 C 205.628906 203.40625 205.667969 203.402344 205.710938 203.402344 C 205.914062 203.402344 206.160156 203.546875 206.222656 203.804688 C 209.5 217.578125 210.40625 226.964844 209.8125 240.992188 L 209.679688 244.140625 L 212.828125 244.121094 C 220.660156 244.070312 228.644531 244.046875 237.242188 244.046875 L 244.8125 244.050781 L 244.949219 241.191406 C 246.03125 218.066406 241.113281 194.929688 230.71875 174.28125 C 220.84375 154.683594 206.144531 137.617188 188.214844 124.921875 L 183.441406 121.542969 L 183.480469 127.390625 C 183.605469 145.71875 178.992188 163.882812 170.128906 179.925781 C 169.3125 181.417969 168.601562 182.417969 167.574219 182.800781 C 167.277344 182.914062 166.980469 182.96875 166.691406 182.96875 C 165.101562 182.96875 163.171875 181.269531 161.527344 178.417969 L 148.835938 156.464844 L 148.667969 165.738281 L 144.917969 164.84375 L 138.074219 179.003906 C 137.542969 180.109375 136.652344 181.964844 135.1875 182.332031 C 135 182.378906 134.820312 182.402344 134.640625 182.402344 C 133.15625 182.402344 131.503906 180.652344 130.332031 177.835938 C 124.179688 163.0625 120.511719 147.480469 119.425781 131.527344 L 119.097656 126.753906 L 114.945312 129.121094 C 95.84375 140.011719 79.410156 156.507812 68.667969 175.566406 C 57.160156 195.976562 51.621094 220.09375 53.066406 243.5 C 53.074219 243.601562 53.042969 243.714844 52.96875 243.835938 Z M 50.183594 248.613281 " style=" stroke:none;fill-rule:nonzero;fill:rgb(35.686275%,81.568627%,98.823529%);fill-opacity:1;" />
<path d="M 321.996094 81.90625 C 322.976562 82.671875 324.039062 83.046875 325.238281 83.046875 C 325.832031 83.046875 326.441406 82.953125 327.09375 82.765625 C 333.800781 80.851562 339.542969 73.527344 342.679688 67.3125 C 347.144531 58.445312 348.492188 48.46875 349.789062 38.839844 C 349.828125 38.574219 350.054688 38.367188 350.292969 38.359375 C 350.566406 38.359375 350.800781 38.539062 350.847656 38.789062 C 352.769531 48.234375 360.707031 56.191406 370.152344 58.140625 C 371.695312 58.457031 373.292969 58.617188 374.902344 58.617188 C 383.082031 58.617188 390.988281 54.550781 395.546875 47.996094 C 395.664062 47.828125 395.84375 47.769531 395.980469 47.769531 C 396.011719 47.769531 396.097656 47.78125 396.160156 47.800781 C 396.378906 47.875 396.523438 48.097656 396.511719 48.347656 C 396.136719 55.625 395.710938 63.878906 398.417969 71.171875 C 400.882812 77.769531 406.941406 84.429688 414.921875 84.429688 L 415.011719 84.429688 C 421.234375 84.378906 427.492188 79.664062 430.226562 72.960938 C 432.460938 67.480469 432.703125 60.695312 430.949219 52.796875 C 426.199219 31.445312 409.960938 13.523438 389.585938 7.136719 C 384.277344 5.472656 378.648438 4.628906 372.863281 4.628906 C 356.621094 4.628906 340.761719 11.308594 330.433594 22.496094 C 322.183594 31.433594 317.199219 43.34375 316.394531 56.03125 C 316.058594 61.300781 316.363281 77.363281 321.996094 81.90625 Z M 321.996094 81.90625 " style=" stroke:none;fill-rule:nonzero;fill:rgb(68.627451%,47.45098%,47.45098%);fill-opacity:1;" />
<path d="M 413.035156 105.84375 L 417.160156 106.410156 C 418.035156 106.53125 418.925781 106.59375 419.804688 106.59375 C 422.09375 106.59375 424.316406 106.195312 426.410156 105.40625 C 429.953125 104.070312 432.554688 101.808594 433.738281 99.042969 C 435.253906 95.507812 434.183594 90.972656 431.253906 88.492188 C 429.660156 87.136719 427.546875 86.390625 425.304688 86.390625 C 423.65625 86.390625 422.085938 86.800781 420.75 87.578125 L 420.625 87.625 L 419.253906 88.570312 L 419.023438 89.78125 C 418.222656 94.015625 416.832031 98.164062 414.878906 102.109375 Z M 413.035156 105.84375 " style=" stroke:none;fill-rule:nonzero;fill:rgb(100%,82.352941%,73.333333%);fill-opacity:1;" />
<path d="M 346.507812 121.714844 C 353.847656 126.113281 362.363281 128.4375 371.136719 128.4375 C 378.039062 128.4375 384.917969 126.949219 391.035156 124.136719 C 399.140625 120.398438 406.074219 114.355469 411.082031 106.65625 L 411.460938 106.027344 L 411.550781 105.363281 C 411.574219 105.3125 411.617188 105.234375 411.738281 105.144531 L 412.25 104.769531 L 412.566406 104.214844 C 415.300781 99.425781 417.15625 94.3125 418.085938 89.019531 L 418.621094 85.5 L 414.890625 85.5 C 406.457031 85.5 399.925781 78.261719 397.421875 71.535156 C 395.921875 67.492188 395.207031 62.890625 395.171875 57.0625 L 395.136719 51.285156 L 390.429688 54.636719 C 385.867188 57.886719 380.328125 59.679688 374.839844 59.679688 C 373.179688 59.679688 371.535156 59.511719 369.945312 59.183594 C 363.984375 57.960938 358.335938 54.300781 354.449219 49.144531 L 350.359375 43.71875 L 349.105469 50.394531 C 347.761719 57.53125 346.023438 63.054688 343.636719 67.789062 C 340.542969 73.914062 334.429688 81.78125 327.375 83.800781 C 327.023438 83.902344 326.625 83.972656 326.285156 84.03125 L 323.382812 84.507812 L 323.804688 87.417969 C 325.839844 101.582031 334.328125 114.402344 346.507812 121.714844 Z M 346.507812 121.714844 " style=" stroke:none;fill-rule:nonzero;fill:rgb(100%,82.352941%,73.333333%);fill-opacity:1;" />
<path d="M 371.148438 129.5 C 362.988281 129.5 354.949219 127.503906 347.90625 123.726562 L 340.710938 119.867188 L 343.699219 127.46875 C 346.238281 133.929688 348.71875 138.554688 351.746094 142.457031 C 357.320312 149.652344 365.089844 153.945312 372.535156 153.945312 C 372.890625 153.945312 373.246094 153.9375 373.597656 153.917969 C 380.808594 153.515625 388.160156 148.875 393.265625 141.507812 C 396.808594 136.378906 399.015625 130.601562 400.539062 126.140625 L 403.226562 118.269531 L 396.132812 122.613281 C 394.625 123.539062 393.054688 124.378906 391.476562 125.105469 C 385.226562 127.980469 378.195312 129.5 371.148438 129.5 Z M 371.148438 129.5 " style=" stroke:none;fill-rule:nonzero;fill:rgb(100%,82.352941%,73.333333%);fill-opacity:1;" />
<path d="M 316.25 105.773438 C 318.773438 105.773438 321.53125 105.078125 324.671875 103.652344 L 327.339844 102.4375 L 326.1875 99.742188 C 324.386719 95.53125 323.1875 91.175781 322.625 86.800781 L 322.230469 83.734375 L 319.179688 84.21875 C 314.808594 84.910156 311.238281 86.628906 308.847656 89.195312 C 305.65625 92.636719 304.894531 97.851562 307.082031 101.324219 C 308.789062 104.027344 312.191406 105.730469 315.929688 105.769531 Z M 316.25 105.773438 " style=" stroke:none;fill-rule:nonzero;fill:rgb(100%,82.352941%,73.333333%);fill-opacity:1;" />
<path d="M 209.761719 89.535156 C 208.171875 88.179688 206.058594 87.4375 203.820312 87.4375 C 202.136719 87.4375 200.542969 87.859375 199.179688 88.667969 L 199.054688 88.71875 L 197.761719 89.609375 L 197.53125 90.824219 C 196.734375 95.050781 195.339844 99.203125 193.386719 103.164062 L 191.542969 106.910156 L 195.679688 107.464844 C 196.542969 107.578125 197.417969 107.636719 198.285156 107.636719 C 200.589844 107.636719 202.820312 107.238281 204.917969 106.449219 C 208.464844 105.113281 211.066406 102.847656 212.246094 100.085938 C 213.761719 96.550781 212.691406 92.011719 209.761719 89.535156 Z M 209.761719 89.535156 " style=" stroke:none;fill-rule:nonzero;fill:rgb(100%,82.352941%,73.333333%);fill-opacity:1;" />
<path d="M 125.015625 122.753906 C 132.351562 127.152344 140.863281 129.480469 149.636719 129.480469 C 156.539062 129.480469 163.417969 127.992188 169.53125 125.175781 C 177.632812 121.457031 184.570312 115.414062 189.59375 107.699219 L 189.972656 107.066406 L 190.0625 106.402344 C 190.085938 106.351562 190.128906 106.277344 190.25 106.1875 L 190.761719 105.808594 L 191.078125 105.257812 C 193.8125 100.464844 195.667969 95.351562 196.597656 90.058594 L 197.132812 86.539062 L 193.398438 86.539062 C 184.964844 86.539062 178.433594 79.300781 175.929688 72.574219 C 174.429688 68.53125 173.714844 63.929688 173.679688 58.101562 L 173.644531 52.324219 L 168.9375 55.675781 C 164.367188 58.929688 158.824219 60.722656 153.328125 60.722656 C 151.671875 60.722656 150.03125 60.558594 148.457031 60.234375 C 142.480469 59 136.832031 55.339844 132.957031 50.195312 L 128.867188 44.769531 L 127.613281 51.445312 C 126.269531 58.578125 124.53125 64.101562 122.140625 68.828125 C 119.046875 74.953125 112.9375 82.820312 105.882812 84.839844 C 105.554688 84.933594 105.207031 85.011719 104.847656 85.0625 L 101.882812 85.492188 L 102.308594 88.460938 C 104.355469 102.640625 112.84375 115.460938 125.015625 122.753906 Z M 125.015625 122.753906 " style=" stroke:none;fill-rule:nonzero;fill:rgb(100%,82.352941%,73.333333%);fill-opacity:1;" />
<path d="M 149.660156 130.539062 C 141.496094 130.539062 133.460938 128.542969 126.417969 124.765625 L 119.21875 120.910156 L 122.207031 128.507812 C 124.746094 134.96875 127.226562 139.589844 130.257812 143.5 C 135.835938 150.699219 143.605469 154.996094 151.046875 154.996094 C 151.402344 154.996094 151.757812 154.988281 152.109375 154.964844 C 159.324219 154.554688 166.671875 149.910156 171.777344 142.546875 C 175.316406 137.425781 177.519531 131.652344 179.046875 127.191406 L 181.726562 119.371094 L 174.65625 123.65625 C 173.058594 124.621094 171.488281 125.460938 169.984375 126.144531 C 163.734375 129.019531 156.707031 130.539062 149.660156 130.539062 Z M 149.660156 130.539062 " style=" stroke:none;fill-rule:nonzero;fill:rgb(100%,82.352941%,73.333333%);fill-opacity:1;" />
<path d="M 94.4375 106.820312 L 94.761719 106.824219 C 97.28125 106.824219 100.039062 106.125 103.183594 104.691406 L 105.851562 103.472656 L 104.699219 100.78125 C 102.898438 96.570312 101.699219 92.21875 101.136719 87.847656 L 100.742188 84.792969 L 97.699219 85.265625 C 93.320312 85.949219 89.746094 87.667969 87.363281 90.238281 C 84.167969 93.675781 83.40625 98.882812 85.59375 102.363281 C 87.292969 105.054688 90.695312 106.765625 94.4375 106.820312 Z M 94.4375 106.820312 " style=" stroke:none;fill-rule:nonzero;fill:rgb(100%,82.352941%,73.333333%);fill-opacity:1;" />
<path d="M 506.425781 260.996094 L 507.148438 260.671875 L 505.699219 259.363281 L 505.585938 259.109375 L 505.472656 259.160156 L 503.726562 257.585938 C 498.640625 252.988281 489.664062 252.898438 482.453125 252.820312 C 480.828125 252.804688 479.148438 252.785156 477.621094 252.707031 C 475.832031 252.613281 474.039062 252.515625 472.25 252.421875 C 470.503906 252.328125 468.753906 252.234375 467.011719 252.144531 L 463.546875 251.96875 L 463.546875 251.957031 L 448.828125 251.175781 C 423.574219 249.816406 397.460938 248.410156 371.757812 247.503906 C 367.726562 247.355469 363.6875 247.234375 359.648438 247.109375 L 357.507812 247.042969 L 357.507812 247.039062 L 355.214844 246.96875 L 348.742188 246.765625 L 348.746094 246.773438 C 342.011719 246.578125 335.410156 246.40625 329.167969 246.257812 L 329.1875 246.234375 L 322.902344 246.09375 C 317.628906 245.980469 312.359375 245.882812 307.085938 245.789062 L 306.375 245.777344 L 306.324219 245.765625 L 306.109375 245.761719 C 295.242188 245.570312 285.511719 245.433594 276.390625 245.339844 L 276.394531 245.335938 L 271.8125 245.292969 C 271.363281 245.289062 270.917969 245.285156 270.46875 245.28125 L 269.390625 245.269531 L 269.390625 245.273438 C 257.640625 245.171875 246.125 245.121094 235.136719 245.121094 C 227.507812 245.121094 219.914062 245.144531 212.566406 245.191406 L 211.25 245.203125 L 211.242188 245.210938 L 206.773438 245.242188 C 189.851562 245.371094 174.199219 245.585938 158.921875 245.902344 L 150.964844 246.070312 L 150.980469 246.082031 C 127.546875 246.605469 103.546875 247.367188 79.601562 248.355469 L 78.007812 248.421875 L 77.285156 249.597656 C 75.808594 250.503906 74.285156 251.441406 72.71875 252.351562 L 71.65625 248.695312 C 61.507812 249.128906 50.90625 249.632812 40.152344 250.1875 L 36.847656 250.355469 L 36.84375 250.351562 L 36.382812 250.378906 L 33.335938 250.539062 L 33.375 250.574219 C 29.988281 250.8125 26.25 251.195312 22.75 251.976562 C 18.398438 252.964844 14.828125 254.480469 11.832031 256.605469 L 10.136719 257.804688 L 10.074219 257.757812 L 9.90625 257.96875 L 8.40625 259.03125 L 8.820312 259.328125 L 8.261719 260.03125 C 5.988281 262.878906 4.53125 266.277344 4.152344 269.617188 C 3.742188 273.40625 4.710938 276.734375 6.953125 279.242188 C 11.230469 284.015625 18.371094 284.457031 25.320312 284.5 L 75 284.761719 L 75.1875 284.757812 L 154.292969 285.179688 L 209.953125 285.476562 L 209.957031 285.476562 L 283.234375 285.867188 L 283.230469 285.867188 L 328.535156 286.097656 L 328.53125 286.105469 L 350.765625 286.21875 L 351.546875 285.195312 C 353.4375 284.164062 355.378906 283.265625 357.347656 282.453125 L 358.082031 286.261719 L 455.851562 286.78125 L 474.421875 286.871094 C 475.28125 286.878906 476.148438 286.886719 477.011719 286.886719 C 478.871094 286.886719 480.394531 286.859375 481.800781 286.800781 L 483.605469 286.722656 L 483.613281 286.746094 L 483.941406 286.710938 L 486.132812 286.621094 L 486.070312 286.46875 L 486.222656 286.453125 C 489.179688 286.121094 491.757812 285.558594 494.109375 284.734375 C 500.273438 282.570312 505.59375 277.074219 507.347656 271.042969 C 508.273438 267.839844 508.105469 264.78125 506.847656 261.953125 Z M 506.425781 260.996094 " style=" stroke:none;fill-rule:nonzero;fill:rgb(96.862745%,70.196078%,43.529412%);fill-opacity:1;" />
<path d="M 455.199219 287.847656 L 455.128906 290.789062 C 454.492188 318.609375 454.824219 346.839844 456.125 374.699219 L 456.347656 379.546875 L 456.378906 379.53125 C 456.53125 382.585938 456.683594 385.640625 456.867188 388.6875 L 457.011719 391.152344 L 457.023438 391.152344 L 457.125 392.863281 C 457.527344 399.5 457.992188 406.191406 458.507812 412.757812 L 459.183594 421.320312 L 459.210938 421.28125 C 461.003906 442.230469 463.328125 463.140625 466.136719 483.460938 L 466.523438 486.253906 L 485.179688 484.855469 L 485.179688 484.859375 L 497.179688 483.964844 L 494.648438 454.800781 L 494.652344 454.800781 L 491.570312 419.226562 L 491.5625 419.230469 L 486.507812 361.011719 L 486.519531 361.007812 L 480.171875 287.949219 L 476.839844 287.949219 C 476.03125 287.949219 475.234375 287.949219 474.433594 287.941406 L 469.460938 287.917969 L 469.460938 287.914062 Z M 455.199219 287.847656 " style=" stroke:none;fill-rule:nonzero;fill:rgb(96.862745%,70.196078%,43.529412%);fill-opacity:1;" />
<path d="M 176.929688 72.210938 C 179.3125 78.597656 185.496094 85.46875 193.433594 85.46875 L 193.523438 85.46875 C 199.746094 85.421875 206 80.707031 208.738281 74.003906 C 210.96875 68.519531 211.210938 61.738281 209.457031 53.839844 C 204.707031 32.480469 188.472656 14.5625 168.097656 8.1875 C 162.785156 6.519531 157.152344 5.675781 151.363281 5.675781 C 135.128906 5.675781 119.273438 12.351562 108.945312 23.535156 C 100.695312 32.472656 95.707031 44.386719 94.90625 57.070312 C 94.570312 62.339844 94.875 78.402344 100.476562 82.921875 C 101.460938 83.707031 102.523438 84.089844 103.730469 84.089844 C 104.335938 84.089844 104.953125 83.996094 105.601562 83.804688 C 112.289062 81.894531 118.039062 74.574219 121.1875 68.347656 C 125.65625 59.480469 127 49.507812 128.300781 39.878906 C 128.335938 39.617188 128.554688 39.414062 128.804688 39.410156 C 129.089844 39.410156 129.308594 39.570312 129.359375 39.828125 C 131.28125 49.273438 139.21875 57.230469 148.664062 59.175781 C 150.207031 59.496094 151.804688 59.65625 153.414062 59.65625 C 161.59375 59.65625 169.5 55.589844 174.058594 49.035156 C 174.167969 48.875 174.351562 48.820312 174.492188 48.820312 C 174.542969 48.820312 174.597656 48.828125 174.664062 48.851562 C 174.886719 48.925781 175.035156 49.140625 175.023438 49.390625 C 174.648438 56.667969 174.222656 64.917969 176.929688 72.210938 Z M 176.929688 72.210938 " style=" stroke:none;fill-rule:nonzero;fill:rgb(96.862745%,70.196078%,43.529412%);fill-opacity:1;" />
<path d="M 457.679688 415.828125 C 456.84375 405.472656 456.144531 395.21875 455.605469 385.347656 C 455.605469 385.347656 455.460938 382.742188 455.46875 382.738281 L 455.375 380.894531 C 455.226562 378.027344 455.074219 375.144531 454.957031 372.265625 C 454.957031 372.265625 454.777344 367.984375 454.773438 367.984375 L 454.765625 367.808594 C 454.457031 360.324219 454.214844 352.71875 454.046875 345.203125 C 454.046875 345.203125 453.957031 341.234375 453.960938 341.234375 L 453.925781 339.457031 C 453.796875 332.214844 453.738281 324.660156 453.746094 316.351562 L 453.75 313.800781 L 453.757812 312.261719 C 453.785156 305.609375 453.882812 298.617188 454.054688 290.886719 L 454.125 287.835938 C 454.125 287.835938 431.820312 287.714844 431.8125 287.71875 C 426.199219 287.6875 421.027344 287.054688 415.546875 286.472656 C 406.988281 285.566406 397.726562 286.6875 389.117188 286.8125 C 370.199219 287.082031 351.367188 287.28125 332.425781 287.1875 C 331.753906 287.183594 306.984375 287.058594 306.984375 287.0625 C 306.984375 287.0625 249.238281 286.746094 249.242188 286.75 C 249.242188 286.75 206.949219 286.53125 206.945312 286.519531 C 206.945312 286.519531 176.980469 286.371094 176.980469 286.371094 C 176.980469 286.371094 142.472656 286.183594 142.476562 286.179688 C 142.476562 286.179688 78.804688 285.847656 78.804688 285.851562 L 67.203125 285.785156 L 66.878906 288.433594 C 66.417969 292.195312 65.976562 295.957031 65.523438 299.707031 C 65.523438 299.707031 64.242188 311.148438 64.230469 311.128906 L 63.855469 314.585938 C 63.855469 314.585938 63.667969 316.296875 63.671875 316.296875 L 63.273438 319.996094 C 62.0625 331.289062 60.914062 342.816406 59.84375 354.253906 L 59.289062 360.429688 C 58.761719 366.320312 58.308594 371.632812 57.898438 376.644531 L 57.871094 376.613281 L 57.300781 383.914062 C 56.960938 388.3125 56.617188 392.710938 56.296875 397.121094 C 56.296875 397.121094 56.242188 397.84375 56.234375 397.839844 L 55.996094 401.171875 C 55.835938 403.425781 55.675781 405.675781 55.523438 407.9375 L 55.320312 411.039062 L 58.425781 411.136719 C 62.941406 411.28125 67.46875 411.414062 71.988281 411.550781 C 71.988281 411.550781 81.71875 411.839844 81.710938 411.832031 C 97.664062 412.28125 114.183594 412.6875 132.132812 413.078125 C 132.132812 413.078125 133.949219 413.117188 133.957031 413.105469 L 137.910156 413.1875 C 159.75 413.632812 183.183594 414.039062 209.554688 414.425781 C 209.554688 414.425781 211.957031 414.460938 211.957031 414.464844 L 213.980469 414.496094 C 218.65625 414.570312 223.320312 414.632812 227.980469 414.695312 C 227.980469 414.695312 232.507812 414.757812 232.507812 414.761719 L 234.183594 414.785156 C 241.597656 414.894531 248.988281 414.996094 256.378906 415.09375 C 256.421875 415.09375 256.632812 415.09375 256.695312 415.097656 L 259.59375 415.277344 L 259.605469 415.136719 L 260.898438 415.15625 C 266.714844 415.234375 272.542969 415.316406 278.390625 415.40625 C 278.390625 415.40625 280.246094 415.433594 280.25 415.425781 L 283.015625 415.464844 C 301.039062 415.726562 320.363281 416.011719 339.535156 416.347656 C 339.535156 416.347656 346.4375 416.464844 346.433594 416.464844 C 346.433594 416.464844 355.417969 416.621094 355.417969 416.621094 L 361.800781 416.746094 C 377.683594 417.058594 391.746094 417.359375 404.796875 417.667969 C 404.796875 417.667969 408.21875 417.746094 408.226562 417.753906 L 409.832031 417.796875 C 417.269531 417.984375 424.695312 418.175781 432.132812 418.386719 L 436.9375 418.519531 L 436.957031 418.542969 L 438.152344 418.578125 C 443.628906 418.734375 449.117188 418.894531 454.597656 419.066406 L 457.949219 419.167969 Z M 457.679688 415.828125 " style=" stroke:none;fill-rule:nonzero;fill:rgb(96.862745%,70.196078%,43.529412%);fill-opacity:1;" />
<path d="M 33.710938 327.460938 L 32.144531 354 L 24.441406 484.3125 L 40.503906 484.609375 L 50.433594 484.792969 L 50.539062 481.847656 C 50.621094 479.585938 50.710938 477.324219 50.800781 475.0625 L 50.851562 473.773438 L 51.199219 465.699219 C 51.511719 458.414062 51.902344 450.425781 52.394531 441.285156 L 52.660156 436.421875 L 52.664062 436.417969 L 52.738281 435.132812 C 54.375 406.539062 56.558594 377.664062 59.238281 349.3125 L 59.453125 347.042969 L 59.457031 347.039062 L 59.65625 344.960938 C 61.441406 326.429688 63.484375 307.644531 65.726562 289.125 L 66.132812 285.78125 L 44.316406 285.664062 L 44.320312 285.667969 L 36.179688 285.625 L 35.539062 296.628906 L 36.226562 297.515625 C 37.316406 298.929688 38.222656 300.488281 38.941406 302.132812 L 35.175781 302.765625 L 34.074219 321.335938 L 37.734375 322.417969 C 36.824219 323.945312 35.738281 325.375 34.488281 326.664062 Z M 33.710938 327.460938 " style=" stroke:none;fill-rule:nonzero;fill:rgb(96.862745%,70.196078%,43.529412%);fill-opacity:1;" />
<path d="M 508.222656 256.421875 C 502.320312 248.96875 491.332031 248.847656 482.503906 248.75 C 480.816406 248.730469 479.226562 248.710938 477.832031 248.640625 C 475.234375 248.503906 472.636719 248.363281 470.042969 248.226562 C 471.578125 221.671875 466.066406 191.714844 455.839844 171.40625 C 444.792969 149.464844 428.089844 130.851562 407.507812 117.46875 C 409.835938 115.144531 411.949219 112.609375 413.804688 109.894531 C 415.746094 110.40625 417.746094 110.667969 419.75 110.667969 C 422.5 110.667969 425.253906 110.183594 427.835938 109.210938 C 432.417969 107.488281 435.839844 104.449219 437.472656 100.652344 C 439.703125 95.460938 438.191406 89.039062 433.878906 85.382812 C 432.308594 84.050781 430.433594 83.152344 428.460938 82.6875 C 430.773438 80.457031 432.691406 77.679688 433.988281 74.503906 C 436.546875 68.238281 436.859375 60.636719 434.917969 51.914062 C 429.859375 29.167969 412.542969 10.070312 390.800781 3.257812 C 368.460938 -3.742188 343 2.878906 327.445312 19.730469 C 318.5625 29.351562 313.195312 42.152344 312.332031 55.773438 C 312.28125 56.542969 311.390625 71.792969 316.03125 80.710938 C 312.570312 81.574219 308.820312 83.25 305.871094 86.425781 C 301.390625 91.25 300.449219 98.425781 303.636719 103.488281 C 306.0625 107.339844 310.761719 109.777344 315.902344 109.84375 C 315.988281 109.84375 316.074219 109.84375 316.160156 109.84375 C 319.417969 109.84375 322.78125 109.003906 326.621094 107.226562 C 329.320312 111.753906 332.683594 115.882812 336.605469 119.414062 C 336.621094 119.753906 336.667969 120.089844 336.785156 120.425781 C 337.058594 121.203125 337.335938 121.996094 337.617188 122.789062 C 316.46875 134.039062 298.371094 151.671875 286.609375 172.53125 C 274.964844 193.183594 269.253906 217.515625 270.425781 241.207031 C 263.292969 241.140625 256.160156 241.105469 249.023438 241.082031 C 250.085938 217.351562 245.046875 193.695312 234.347656 172.449219 C 223.300781 150.507812 206.597656 131.890625 186.019531 118.511719 C 188.34375 116.1875 190.457031 113.652344 192.316406 110.9375 C 194.253906 111.449219 196.257812 111.710938 198.261719 111.710938 C 201.011719 111.710938 203.761719 111.226562 206.347656 110.253906 C 210.929688 108.53125 214.351562 105.492188 215.980469 101.695312 C 218.214844 96.5 216.703125 90.082031 212.390625 86.425781 C 210.820312 85.09375 208.945312 84.195312 206.96875 83.734375 C 209.28125 81.5 211.199219 78.71875 212.496094 75.542969 C 215.054688 69.277344 215.367188 61.675781 213.425781 52.953125 C 208.367188 30.207031 191.050781 11.109375 169.308594 4.300781 C 146.96875 -2.699219 121.507812 3.921875 105.953125 20.773438 C 97.070312 30.394531 91.703125 43.195312 90.839844 56.816406 C 90.792969 57.582031 89.898438 72.835938 94.539062 81.75 C 91.078125 82.617188 87.328125 84.292969 84.378906 87.46875 C 79.898438 92.292969 78.960938 99.464844 82.144531 104.527344 C 84.570312 108.382812 89.269531 110.816406 94.414062 110.886719 C 94.5 110.886719 94.585938 110.886719 94.671875 110.886719 C 97.925781 110.886719 101.289062 110.042969 105.128906 108.269531 C 107.828125 112.796875 111.195312 116.925781 115.117188 120.457031 C 115.132812 120.796875 115.179688 121.132812 115.296875 121.46875 C 115.570312 122.246094 115.847656 123.039062 116.128906 123.832031 C 94.976562 135.082031 76.878906 152.714844 65.117188 173.574219 C 53.234375 194.660156 47.507812 219.582031 49.003906 243.742188 C 49.046875 244.453125 49.300781 245.097656 49.695312 245.628906 C 45.539062 245.835938 41.378906 246.042969 37.230469 246.257812 C 26.675781 246.8125 17.304688 247.722656 9.476562 253.289062 C 4.394531 256.902344 0.808594 262.980469 0.121094 269.152344 C -0.429688 274.054688 0.921875 278.601562 3.921875 281.953125 C 9.320312 287.980469 17.789062 288.527344 25.304688 288.566406 L 31.933594 288.601562 L 20.347656 484.625 C 20.292969 485.582031 20.628906 486.527344 21.28125 487.234375 C 21.933594 487.9375 22.847656 488.347656 23.808594 488.367188 L 50.878906 488.875 C 50.898438 488.875 50.921875 488.875 50.945312 488.875 C 52.84375 488.875 54.410156 487.371094 54.476562 485.464844 C 55.300781 462.105469 56.496094 438.652344 58.042969 415.195312 C 124.746094 417.347656 191.609375 418.277344 256.285156 419.167969 C 321.21875 420.066406 388.347656 420.996094 455.28125 423.164062 C 457.144531 444.636719 459.5625 466.042969 462.5625 487.320312 C 462.808594 489.078125 464.3125 490.363281 466.058594 490.363281 C 466.148438 490.363281 466.238281 490.359375 466.328125 490.351562 L 498.027344 487.980469 C 498.96875 487.910156 499.84375 487.464844 500.457031 486.746094 C 501.066406 486.027344 501.367188 485.089844 501.285156 484.148438 L 484.496094 290.703125 C 488.160156 290.421875 491.875 289.832031 495.457031 288.574219 C 502.8125 285.996094 509.164062 279.402344 511.257812 272.175781 C 512.886719 266.539062 511.808594 260.945312 508.222656 256.421875 Z M 407.972656 126.328125 C 425.527344 138.757812 439.824219 155.320312 449.527344 174.585938 C 459.085938 193.570312 464.425781 222.796875 462.984375 247.851562 C 458.535156 247.613281 454.085938 247.382812 449.640625 247.144531 C 445.082031 246.898438 440.488281 246.652344 435.878906 246.40625 C 436.535156 231.5 435.128906 216.589844 431.667969 202.074219 C 431.214844 200.175781 429.3125 199 427.410156 199.457031 C 425.511719 199.910156 424.339844 201.8125 424.792969 203.710938 C 428.09375 217.570312 429.441406 231.804688 428.820312 246.03125 C 409.964844 245.039062 390.828125 244.101562 371.894531 243.429688 C 371.769531 243.425781 371.644531 243.421875 371.515625 243.417969 C 371.65625 243.152344 371.746094 242.851562 371.75 242.527344 L 373.125 166.269531 L 380.417969 178.882812 C 382.695312 182.820312 385.441406 184.929688 388.179688 184.929688 C 388.828125 184.929688 389.476562 184.8125 390.117188 184.570312 C 392.207031 183.789062 393.347656 181.972656 394.253906 180.328125 C 403.371094 163.824219 408.09375 145.175781 407.972656 126.328125 Z M 354.121094 140.625 C 350.839844 136.390625 348.488281 131.460938 346.488281 126.371094 C 354.0625 130.433594 362.601562 132.496094 371.148438 132.496094 C 378.546875 132.496094 385.953125 130.953125 392.730469 127.832031 C 394.445312 127.042969 396.097656 126.144531 397.703125 125.175781 C 395.925781 130.347656 393.839844 135.402344 390.796875 139.796875 C 386.214844 146.40625 379.722656 150.566406 373.425781 150.921875 C 366.742188 151.300781 359.339844 147.359375 354.121094 140.625 Z M 368.238281 157.628906 L 358.636719 177.496094 C 358 178.820312 357.289062 180.070312 356.433594 180.28125 C 355.160156 180.605469 353.679688 178.558594 352.777344 176.390625 C 347.195312 162.980469 343.671875 148.910156 342.277344 134.492188 C 343.996094 138.144531 346.019531 141.710938 348.535156 144.953125 C 353.886719 151.859375 360.972656 156.34375 368.238281 157.628906 Z M 403.933594 128.792969 C 403.648438 146.113281 399.109375 163.1875 390.71875 178.375 C 390.160156 179.386719 389.5 180.488281 388.699219 180.789062 C 387.179688 181.351562 385.230469 179.132812 383.914062 176.859375 L 373.015625 158.003906 C 373.289062 158 373.558594 158 373.828125 157.984375 C 382.410156 157.496094 390.710938 152.335938 396.605469 143.824219 C 399.863281 139.125 402.085938 133.996094 403.933594 128.792969 Z M 429.3125 90.777344 C 431.25 92.417969 431.980469 95.53125 430.980469 97.863281 C 430.128906 99.847656 428.078125 101.574219 425.351562 102.597656 C 422.875 103.527344 420.179688 103.800781 417.570312 103.445312 C 419.609375 99.308594 421.105469 94.902344 421.96875 90.335938 C 421.996094 90.324219 422.023438 90.3125 422.050781 90.296875 C 424.183594 88.925781 427.375 89.136719 429.3125 90.777344 Z M 316 102.773438 C 313.269531 102.738281 310.765625 101.539062 309.621094 99.71875 C 308.160156 97.398438 308.789062 93.671875 311.054688 91.234375 C 312.972656 89.167969 315.988281 87.757812 319.652344 87.183594 C 320.257812 91.925781 321.554688 96.546875 323.425781 100.921875 C 320.574219 102.214844 318.171875 102.824219 316 102.773438 Z M 326.265625 79.882812 C 324.972656 80.253906 324.339844 79.933594 323.839844 79.535156 C 320.160156 76.570312 318.886719 64.089844 319.386719 56.222656 C 320.148438 44.214844 324.855469 32.957031 332.640625 24.527344 C 346.167969 9.875 369.214844 3.902344 388.6875 10.003906 C 408.058594 16.074219 423.5 33.125 428.019531 53.445312 C 429.640625 60.738281 429.449219 66.921875 427.445312 71.832031 C 425.15625 77.4375 420.035156 81.386719 414.984375 81.433594 C 408.429688 81.472656 403.273438 75.609375 401.230469 70.117188 C 398.738281 63.40625 399.148438 55.480469 399.507812 48.492188 C 399.589844 46.914062 398.617188 45.472656 397.125 44.964844 C 396.75 44.835938 396.363281 44.773438 395.980469 44.773438 C 394.847656 44.773438 393.753906 45.320312 393.078125 46.289062 C 388.242188 53.246094 379.0625 56.910156 370.761719 55.203125 C 362.460938 53.492188 355.484375 46.496094 353.789062 38.191406 C 353.445312 36.503906 351.929688 35.316406 350.210938 35.363281 C 348.488281 35.421875 347.054688 36.714844 346.824219 38.421875 C 345.550781 47.832031 344.234375 57.558594 339.996094 65.957031 C 337.273438 71.347656 332.046875 78.230469 326.265625 79.882812 Z M 326.769531 86.988281 C 327.246094 86.914062 327.726562 86.820312 328.210938 86.679688 C 336.175781 84.402344 342.78125 76.128906 346.304688 69.144531 C 349.214844 63.382812 350.894531 57.121094 352.054688 50.953125 C 356.273438 56.554688 362.460938 60.707031 369.335938 62.125 C 377.195312 63.746094 385.644531 61.726562 392.164062 57.078125 C 392.199219 62.21875 392.726562 67.519531 394.605469 72.582031 C 397.46875 80.269531 405.023438 88.503906 414.890625 88.503906 C 414.945312 88.503906 414.996094 88.503906 415.046875 88.503906 C 415.078125 88.503906 415.105469 88.5 415.132812 88.5 C 414.25 93.523438 412.464844 98.335938 409.957031 102.734375 C 409.46875 103.09375 409.054688 103.570312 408.800781 104.167969 C 408.679688 104.445312 408.613281 104.730469 408.566406 105.015625 C 403.980469 112.070312 397.476562 117.867188 389.773438 121.410156 C 376.535156 127.503906 360.546875 126.632812 348.050781 119.140625 C 336.585938 112.265625 328.671875 100.171875 326.769531 86.988281 Z M 292.769531 176.003906 C 303.3125 157.300781 319.242188 141.34375 337.914062 130.683594 C 339.03125 146.96875 342.769531 162.863281 349.046875 177.945312 C 351.015625 182.679688 354.144531 185.019531 357.410156 184.203125 C 360.222656 183.5 361.554688 180.738281 362.269531 179.253906 L 369.105469 165.109375 L 367.710938 242.453125 C 367.707031 242.757812 367.773438 243.042969 367.886719 243.300781 C 348.535156 242.636719 329.113281 242.128906 309.65625 241.757812 C 309.574219 227.765625 311.199219 213.808594 314.550781 200.214844 C 315.015625 198.320312 313.859375 196.40625 311.964844 195.9375 C 310.070312 195.472656 308.152344 196.628906 307.683594 198.527344 C 304.210938 212.628906 302.511719 227.113281 302.585938 241.628906 C 294.226562 241.488281 285.871094 241.371094 277.503906 241.28125 C 276.308594 218.773438 281.703125 195.628906 292.769531 176.003906 Z M 186.480469 127.371094 C 204.035156 139.800781 218.335938 156.363281 228.035156 175.625 C 238.234375 195.878906 243.011719 218.4375 241.953125 241.054688 C 232.230469 241.042969 222.515625 241.058594 212.804688 241.117188 C 213.421875 226.679688 212.492188 217.1875 209.136719 203.117188 C 208.683594 201.21875 206.78125 200.042969 204.878906 200.496094 C 202.980469 200.949219 201.808594 202.855469 202.261719 204.753906 C 205.46875 218.21875 206.34375 227.269531 205.726562 241.179688 C 189.882812 241.308594 174.0625 241.515625 158.292969 241.839844 C 155.628906 241.894531 152.957031 241.960938 150.289062 242.023438 L 151.636719 167.308594 L 158.929688 179.921875 C 161.207031 183.863281 163.953125 185.972656 166.6875 185.972656 C 167.339844 185.972656 167.988281 185.851562 168.628906 185.613281 C 170.714844 184.828125 171.859375 183.011719 172.765625 181.371094 C 181.878906 164.863281 186.605469 146.214844 186.480469 127.371094 Z M 132.628906 141.664062 C 129.347656 137.429688 127 132.503906 124.996094 127.410156 C 132.574219 131.472656 141.113281 133.539062 149.65625 133.539062 C 157.058594 133.539062 164.460938 131.996094 171.238281 128.875 C 172.953125 128.085938 174.605469 127.1875 176.210938 126.214844 C 174.4375 131.386719 172.351562 136.445312 169.304688 140.839844 C 164.726562 147.449219 158.230469 151.609375 151.933594 151.964844 C 145.253906 152.347656 137.847656 148.398438 132.628906 141.664062 Z M 146.746094 158.667969 L 137.144531 178.539062 C 136.507812 179.859375 135.796875 181.109375 134.945312 181.324219 C 133.667969 181.648438 132.1875 179.601562 131.285156 177.433594 C 125.703125 164.019531 122.179688 149.953125 120.789062 135.535156 C 122.503906 139.191406 124.527344 142.753906 127.042969 145.996094 C 132.394531 152.902344 139.480469 157.382812 146.746094 158.667969 Z M 182.441406 129.816406 C 182.160156 147.144531 177.621094 164.222656 169.226562 179.417969 C 168.671875 180.429688 168.007812 181.53125 167.207031 181.832031 C 165.679688 182.394531 163.738281 180.175781 162.425781 177.902344 L 151.527344 159.046875 C 151.796875 159.042969 152.066406 159.039062 152.335938 159.023438 C 160.917969 158.539062 169.21875 153.375 175.117188 144.867188 C 178.34375 140.207031 180.601562 134.976562 182.441406 129.816406 Z M 207.820312 91.820312 C 209.757812 93.460938 210.492188 96.574219 209.488281 98.90625 C 208.636719 100.886719 206.585938 102.613281 203.863281 103.636719 C 201.382812 104.566406 198.6875 104.839844 196.078125 104.488281 C 198.121094 100.351562 199.617188 95.945312 200.476562 91.378906 C 200.503906 91.363281 200.53125 91.355469 200.558594 91.339844 C 202.695312 89.96875 205.886719 90.179688 207.820312 91.820312 Z M 94.511719 103.816406 C 91.78125 103.78125 89.277344 102.582031 88.132812 100.761719 C 86.671875 98.441406 87.300781 94.714844 89.5625 92.277344 C 91.480469 90.210938 94.5 88.796875 98.164062 88.226562 C 98.769531 92.96875 100.0625 97.589844 101.933594 101.964844 C 99.085938 103.257812 96.695312 103.867188 94.511719 103.816406 Z M 104.777344 80.925781 C 103.484375 81.296875 102.847656 80.976562 102.351562 80.578125 C 98.667969 77.613281 97.398438 65.132812 97.898438 57.261719 C 98.660156 45.257812 103.367188 34 111.152344 25.566406 C 124.675781 10.917969 147.722656 4.941406 167.199219 11.046875 C 186.570312 17.113281 202.007812 34.167969 206.53125 54.488281 C 208.152344 61.78125 207.957031 67.964844 205.957031 72.871094 C 203.664062 78.480469 198.542969 82.429688 193.496094 82.472656 C 186.96875 82.507812 181.785156 76.652344 179.742188 71.160156 C 177.246094 64.449219 177.65625 56.523438 178.019531 49.535156 C 178.101562 47.957031 177.128906 46.515625 175.632812 46.003906 C 175.257812 45.878906 174.871094 45.8125 174.492188 45.8125 C 173.355469 45.8125 172.261719 46.359375 171.589844 47.332031 C 166.75 54.289062 157.574219 57.953125 149.273438 56.242188 C 140.972656 54.53125 133.992188 47.535156 132.300781 39.234375 C 131.957031 37.542969 130.457031 36.367188 128.71875 36.40625 C 126.996094 36.464844 125.5625 37.757812 125.332031 39.464844 C 124.058594 48.871094 122.742188 58.601562 118.503906 67 C 115.785156 72.390625 110.554688 79.269531 104.777344 80.925781 Z M 105.28125 88.03125 C 105.757812 87.957031 106.238281 87.863281 106.722656 87.722656 C 114.6875 85.441406 121.292969 77.167969 124.816406 70.183594 C 127.726562 64.421875 129.40625 58.160156 130.5625 51.996094 C 134.785156 57.597656 140.972656 61.75 147.84375 63.167969 C 155.699219 64.785156 164.15625 62.765625 170.675781 58.117188 C 170.707031 63.257812 171.234375 68.5625 173.117188 73.625 C 175.976562 81.3125 183.535156 89.542969 193.398438 89.542969 C 193.453125 89.542969 193.503906 89.542969 193.558594 89.542969 C 193.585938 89.542969 193.617188 89.539062 193.644531 89.539062 C 192.761719 94.5625 190.976562 99.375 188.472656 103.773438 C 187.980469 104.132812 187.570312 104.613281 187.3125 105.210938 C 187.191406 105.488281 187.125 105.773438 187.078125 106.058594 C 182.496094 113.109375 175.988281 118.90625 168.285156 122.453125 C 155.046875 128.546875 139.058594 127.675781 126.558594 120.179688 C 115.09375 113.308594 107.179688 101.210938 105.28125 88.03125 Z M 71.28125 177.042969 C 81.820312 158.34375 97.753906 142.382812 116.425781 131.726562 C 117.542969 148.011719 121.277344 163.902344 127.558594 178.984375 C 129.53125 183.71875 132.660156 186.058594 135.921875 185.242188 C 138.730469 184.539062 140.066406 181.78125 140.785156 180.296875 L 147.617188 166.152344 L 146.246094 242.113281 C 126.601562 242.578125 106.855469 243.203125 87.136719 243.976562 C 86.949219 229.59375 88.578125 215.230469 92.019531 201.257812 C 92.488281 199.363281 91.328125 197.449219 89.433594 196.980469 C 87.539062 196.515625 85.625 197.671875 85.15625 199.566406 C 81.554688 214.1875 79.859375 229.210938 80.070312 244.261719 C 71.886719 244.597656 63.714844 244.960938 55.554688 245.347656 C 55.914062 244.753906 56.105469 244.050781 56.058594 243.304688 C 54.648438 220.488281 60.054688 196.957031 71.28125 177.042969 Z M 56.84375 344.683594 C 55.898438 355.945312 54.585938 367.152344 53.664062 378.453125 C 51.539062 404.46875 49.722656 430.929688 49.191406 457.191406 C 49.164062 458.621094 48.089844 481.742188 47.539062 481.742188 C 40.898438 481.617188 34.273438 481.492188 27.621094 481.367188 C 27.859375 481.367188 29.0625 456.964844 29.148438 455.539062 C 30.554688 431.769531 31.957031 407.996094 33.363281 384.222656 C 35.246094 352.371094 37.125 320.550781 39.011719 288.640625 C 39.042969 288.136719 60.226562 288.75 62.746094 288.765625 C 60.261719 288.75 57.445312 337.066406 57.101562 341.484375 C 57.019531 342.550781 56.933594 343.617188 56.84375 344.683594 Z M 438.238281 414.535156 C 421.792969 413.335938 405.34375 413.632812 388.820312 413.632812 C 346.640625 413.632812 304.453125 412.835938 262.289062 412.015625 C 236.394531 411.511719 210.503906 411.007812 184.605469 410.558594 C 163.710938 410.222656 142.695312 410.382812 121.859375 409.832031 C 116.589844 409.691406 58.898438 407.289062 58.867188 407.601562 C 59.554688 400.269531 59.605469 392.988281 60.648438 385.738281 C 61.757812 378.0625 63.050781 370.375 63.050781 362.59375 C 63.621094 355.425781 63.394531 348.519531 64.097656 341.347656 C 64.554688 336.71875 64.898438 332.054688 65.507812 327.441406 C 66.136719 322.65625 67.082031 318.046875 67.496094 313.148438 C 67.644531 311.378906 69.125 288.800781 69.859375 288.804688 C 111.855469 289.027344 153.851562 288.664062 195.847656 289.066406 C 226.503906 289.363281 257.175781 289.859375 287.761719 289.859375 C 292.105469 289.859375 296.390625 290.511719 300.667969 290.816406 C 305.894531 291.1875 311.386719 290.5625 316.628906 290.457031 C 327.28125 290.246094 337.9375 290.089844 348.589844 289.992188 C 365.5625 289.839844 382.53125 289.921875 399.5 290.105469 C 407.988281 290.199219 416.472656 290.3125 424.960938 290.4375 C 433.390625 290.558594 442.363281 289.839844 450.710938 290.890625 C 451.324219 298.601562 450.371094 306.964844 450.464844 314.792969 C 450.550781 322.238281 450.730469 329.679688 450.871094 337.125 C 451.148438 351.710938 451.367188 366.714844 452.214844 381.4375 C 452.652344 389.027344 453.257812 396.601562 454.121094 404.15625 C 454.679688 409.03125 456.757812 416.46875 449.234375 415.578125 C 445.570312 415.140625 441.902344 414.800781 438.238281 414.535156 Z M 488.710938 421.03125 C 489.957031 435.347656 491.199219 449.667969 492.4375 463.980469 C 492.9375 469.71875 493.433594 475.457031 493.933594 481.195312 C 485.660156 481.816406 477.382812 482.433594 469.105469 483.054688 C 465.988281 460.488281 463.84375 437.90625 462.355469 415.277344 C 461.007812 394.761719 458.933594 374.28125 458.332031 353.78125 C 458.175781 348.542969 457.351562 290.851562 458.132812 290.855469 C 464.367188 290.886719 470.644531 290.949219 476.835938 290.949219 C 477.03125 290.949219 477.226562 290.949219 477.421875 290.945312 C 479.039062 309.558594 480.652344 328.171875 482.265625 346.78125 C 484.417969 371.53125 486.5625 396.285156 488.710938 421.03125 Z M 504.347656 270.179688 C 503.652344 272.894531 502.164062 275.453125 500.164062 277.425781 C 493.398438 284.089844 484.660156 283.664062 475.914062 283.570312 C 465.246094 283.449219 454.574219 283.332031 443.90625 283.214844 C 401.988281 282.742188 360.070312 282.871094 318.152344 282.722656 C 286.519531 282.609375 254.882812 282.375 223.25 282.375 C 222.609375 282.375 221.96875 282.375 221.332031 282.378906 C 179.644531 282.460938 138.148438 281.65625 96.449219 281.65625 C 72.746094 281.652344 49.046875 281.621094 25.339844 281.496094 C 19.070312 281.460938 12.65625 281.105469 9.1875 277.234375 C 7.085938 274.886719 6.917969 271.96875 7.144531 269.933594 C 9.121094 252.210938 34.464844 253.828125 46.9375 253.828125 C 79.894531 253.828125 112.851562 249.628906 145.871094 249.078125 C 187.929688 248.378906 230.097656 248.929688 272.179688 248.757812 C 314.113281 248.757812 355.933594 248.980469 397.824219 251.234375 C 428.425781 252.878906 458.800781 255.496094 489.414062 256.59375 C 493.1875 256.730469 497.125 256.90625 500.433594 258.734375 C 505.164062 261.347656 505.535156 265.527344 504.347656 270.179688 Z M 504.347656 270.179688 " style=" stroke:none;fill-rule:nonzero;fill:rgb(0%,0%,0%);fill-opacity:1;" />
</g>
</svg>