<svg xmlns="http://www.w3.org/2000/svg" height="512pt" version="1.1" viewBox="0 -15 512.0001 512" width="512pt">
<g id="surface1">
<path d="M 343.070312 430.355469 L 321.007812 429.714844 L 320.1875 429.71875 L 320.191406 429.6875 L 298.46875 429.058594 L 298.46875 429.0625 L 276.574219 428.425781 L 276.574219 428.421875 L 255.140625 427.804688 L 255.140625 427.800781 L 233.371094 427.167969 L 233.371094 427.175781 L 214.480469 426.625 L 189.222656 425.886719 L 189.222656 425.894531 L 172.230469 425.398438 L 172.230469 425.394531 L 150.816406 424.78125 L 129.347656 424.152344 L 129.347656 424.160156 L 111.121094 423.625 L 111.121094 423.621094 L 86.15625 422.902344 L 86.917969 439.464844 L 89.792969 439.453125 C 91.042969 439.449219 92.34375 439.449219 93.703125 439.449219 C 95.578125 439.449219 97.5625 439.453125 99.664062 439.464844 L 99.808594 439.464844 C 102.859375 439.472656 106 439.484375 109.15625 439.515625 L 112.445312 439.546875 L 112.445312 439.539062 L 113.21875 439.542969 C 118.558594 439.585938 123.804688 439.632812 128.582031 439.683594 L 129.722656 439.695312 L 129.722656 439.703125 L 132.617188 439.734375 C 136.984375 439.785156 140.78125 439.835938 143.621094 439.875 C 145.714844 439.90625 147.339844 439.925781 148.375 439.933594 L 149.28125 439.945312 L 149.28125 439.949219 L 152.414062 439.976562 C 157.804688 440.023438 163.1875 440.09375 168.585938 440.164062 L 171.855469 440.207031 L 171.867188 440.222656 L 173.449219 440.246094 C 178.203125 440.3125 182.949219 440.394531 187.703125 440.484375 L 188.695312 440.5 L 188.695312 440.507812 L 191.738281 440.574219 C 197.953125 440.703125 204.179688 440.84375 210.394531 441.003906 L 212.035156 441.046875 L 214.457031 441.113281 C 220.203125 441.273438 225.960938 441.441406 231.707031 441.621094 L 234.394531 441.707031 L 235.742188 441.75 C 241.136719 441.929688 246.519531 442.121094 251.90625 442.332031 L 254.988281 442.453125 L 254.988281 442.433594 L 255.933594 442.46875 C 261.6875 442.699219 267.445312 442.9375 273.191406 443.1875 L 274.289062 443.238281 L 274.289062 443.25 L 277.21875 443.378906 C 282.175781 443.601562 287.121094 443.832031 292.046875 444.070312 C 293.480469 444.136719 294.910156 444.21875 296.335938 444.296875 L 297.058594 444.339844 L 297.160156 444.34375 L 299.019531 444.449219 L 299.019531 444.4375 L 300.398438 444.507812 C 305.503906 444.765625 310.609375 445.046875 315.722656 445.335938 L 318.582031 445.5 L 319.75 445.566406 C 325.785156 445.917969 331.820312 446.277344 337.84375 446.65625 L 338.582031 446.691406 L 338.578125 446.699219 L 341.851562 446.90625 C 347.96875 447.296875 354.050781 447.707031 360.136719 448.125 L 362.980469 448.320312 L 365.0625 430.988281 L 343.070312 430.351562 Z M 343.070312 430.355469 " style=" stroke:none;fill-rule:nonzero;fill:rgb(94.117647%,94.901961%,98.039216%);fill-opacity:1;" />
<path d="M 484.992188 424.265625 C 479.351562 421.113281 472.761719 419.25 465.945312 418.878906 L 464.824219 418.820312 L 464.828125 418.714844 L 463.652344 418.753906 L 462.867188 418.710938 L 462.867188 418.78125 L 461.636719 418.828125 C 452.714844 419.144531 444.027344 421.996094 437.171875 426.859375 C 429.828125 432.082031 424.066406 439.894531 420.949219 448.855469 C 419.953125 451.707031 419.265625 454.515625 418.90625 457.207031 L 418.515625 460.140625 L 421.445312 460.574219 C 440.921875 463.4375 457.136719 465.34375 472.960938 465.34375 C 484.675781 465.34375 495.253906 464.28125 505.300781 462.085938 L 507.953125 461.507812 L 507.640625 458.8125 C 505.976562 444.375 497.296875 431.136719 484.992188 424.265625 Z M 484.992188 424.265625 " style=" stroke:none;fill-rule:nonzero;fill:rgb(84.705882%,87.058824%,92.54902%);fill-opacity:1;" />
<path d="M 440.566406 332.679688 C 443.679688 332.679688 446.921875 332.441406 449.542969 330.707031 C 454.585938 327.382812 455.136719 320.191406 455.011719 313.601562 C 454.855469 304.550781 454.609375 295.339844 454.371094 286.429688 L 454.039062 273.464844 L 451.246094 273.335938 C 374.363281 269.816406 296.011719 268.03125 218.378906 268.03125 C 149.132812 268.03125 79.226562 269.453125 10.589844 272.257812 L 7.773438 272.371094 L 7.710938 275.1875 C 7.570312 281.695312 7.425781 290.246094 7.589844 298.664062 L 8.058594 322.597656 L 438.558594 332.652344 C 439.242188 332.667969 439.914062 332.679688 440.566406 332.679688 Z M 241.882812 307.609375 C 238.828125 310.863281 234.183594 312.804688 229.460938 312.804688 C 227.089844 312.804688 224.851562 312.332031 222.796875 311.402344 C 216.484375 308.550781 212.386719 301.472656 213.046875 294.570312 C 213.757812 287.1875 219.027344 281.464844 226.476562 279.988281 C 227.664062 279.75 228.863281 279.628906 230.035156 279.628906 C 236.171875 279.628906 241.5625 282.878906 244.453125 288.324219 C 247.707031 294.445312 246.625 302.554688 241.882812 307.609375 Z M 241.882812 307.609375 " style=" stroke:none;fill-rule:nonzero;fill:rgb(84.705882%,87.058824%,92.54902%);fill-opacity:1;" />
<path d="M 386.058594 452.511719 C 381.710938 449.710938 374.496094 449.628906 368.691406 449.5625 C 366.851562 449.546875 364.945312 449.527344 363.3125 449.414062 C 339.953125 447.769531 315.960938 446.332031 292 445.140625 C 244.519531 442.792969 196.464844 441.40625 149.175781 441.015625 C 149.175781 441.015625 145.410156 440.964844 143.609375 440.945312 C 122.261719 440.667969 105.277344 440.523438 93.121094 440.523438 C 82.9375 440.523438 76.046875 440.625 72.636719 440.820312 L 70.078125 440.96875 L 69.824219 443.519531 C 69.355469 448.261719 69.382812 452.175781 69.90625 455.484375 L 70.300781 457.964844 L 393.554688 464.4375 L 391.765625 460.183594 C 390.222656 456.511719 388.355469 454.003906 386.058594 452.511719 Z M 386.058594 452.511719 " style=" stroke:none;fill-rule:nonzero;fill:rgb(84.705882%,87.058824%,92.54902%);fill-opacity:1;" />
<path d="M 335.28125 383.367188 C 332.421875 381.515625 327.8125 381.460938 323.734375 381.414062 C 322.269531 381.402344 321.15625 381.382812 320.140625 381.3125 C 304.296875 380.207031 288.234375 379.246094 272.398438 378.457031 C 240.675781 376.886719 208.511719 375.953125 176.832031 375.695312 L 175.894531 375.679688 C 175.214844 375.671875 174.28125 375.664062 173.128906 375.644531 C 158.65625 375.457031 147.195312 375.363281 139.070312 375.363281 C 133.273438 375.363281 129.097656 375.410156 126.652344 375.507812 L 123.992188 375.609375 L 123.78125 378.265625 C 123.414062 382.867188 123.453125 389.367188 128.011719 392.644531 C 130.746094 394.597656 134.414062 394.789062 138.238281 394.824219 L 341.667969 396.90625 L 340.578125 393.046875 C 339.53125 389.34375 338.167969 385.238281 335.28125 383.367188 Z M 335.28125 383.367188 " style=" stroke:none;fill-rule:nonzero;fill:rgb(84.705882%,87.058824%,92.54902%);fill-opacity:1;" />
<path d="M 294.894531 4.386719 L 292.011719 4.304688 C 285.4375 4.144531 278.441406 4.066406 271.21875 4.066406 C 247.328125 4.066406 223.199219 4.925781 199.859375 5.761719 L 199.683594 5.765625 C 183.558594 6.34375 166.878906 6.945312 150.4375 7.253906 L 4.089844 10 L 4.183594 13.035156 C 5.6875 63.027344 6.832031 111.726562 7.589844 157.78125 C 7.996094 182.988281 8.304688 207.722656 8.5 231.300781 C 8.585938 241.558594 8.304688 251.996094 8.035156 262.089844 L 7.808594 271.300781 L 11.003906 271.171875 C 79.488281 268.382812 149.246094 266.964844 218.34375 266.964844 C 295.84375 266.964844 374.050781 268.746094 450.804688 272.25 L 454.015625 272.398438 L 453.941406 269.183594 C 453.691406 258.578125 453.421875 244.601562 453.53125 230.589844 C 453.578125 224.734375 454.058594 218.824219 454.628906 212.257812 L 454.652344 212.015625 C 455.117188 206.480469 455.601562 200.757812 455.710938 195.113281 L 456.523438 153.074219 C 456.570312 150.574219 456.703125 142.921875 456.882812 132.347656 L 457.011719 124.832031 C 457.355469 104.796875 457.820312 77.734375 458.25 54.648438 C 458.492188 41.582031 458.722656 29.796875 458.910156 21.285156 L 458.921875 20.828125 C 459.015625 16.851562 459.089844 13.609375 459.15625 11.324219 C 459.171875 11.160156 459.171875 11.035156 459.171875 10.972656 L 459.171875 8.035156 L 421.023438 7.253906 C 379.777344 6.417969 337.128906 5.550781 294.894531 4.386719 Z M 436.339844 27.273438 L 436.304688 27.449219 L 436.289062 27.628906 C 435.953125 31.949219 434.761719 86.0625 434.191406 112.070312 L 434.152344 113.949219 C 433.992188 121.320312 433.871094 126.636719 433.832031 128.371094 L 433.101562 157.582031 C 433.007812 161.4375 432.585938 165.339844 432.175781 169.113281 L 432.128906 169.5625 C 431.691406 173.472656 431.195312 177.90625 431.152344 182.214844 C 431.023438 194.664062 431.449219 207.355469 431.859375 219.625 L 431.894531 220.648438 C 432.109375 226.824219 432.332031 233.390625 432.480469 239.875 C 432.554688 243.054688 432.707031 249.671875 427.082031 252.554688 C 424.492188 253.882812 421.210938 254.054688 418.640625 254.054688 C 417.96875 254.054688 417.328125 254.042969 416.726562 254.035156 L 31.148438 247.035156 C 30.863281 247.03125 30.636719 246.796875 30.628906 246.511719 L 30.207031 229.53125 C 30.007812 221.097656 30.316406 212.347656 30.589844 204.535156 C 30.839844 197.378906 31.101562 189.976562 31.019531 182.714844 C 30.855469 166.753906 30.585938 149.574219 30.210938 131.652344 C 29.515625 99.1875 28.480469 65.203125 27.136719 30.636719 L 27.058594 28.628906 C 27.054688 28.472656 27.113281 28.320312 27.195312 28.230469 C 27.300781 28.121094 27.445312 28.058594 27.582031 28.054688 L 158.984375 26.136719 C 173.246094 25.929688 187.761719 25.527344 201.800781 25.136719 L 203.335938 25.09375 C 224.144531 24.519531 245.660156 23.925781 266.964844 23.925781 C 273.464844 23.925781 279.761719 23.984375 285.683594 24.09375 L 288.253906 24.144531 C 324.644531 24.925781 361.082031 25.511719 401.523438 26.144531 L 435.796875 26.683594 C 436.101562 26.691406 436.34375 26.933594 436.339844 27.273438 Z M 436.339844 27.273438 " style=" stroke:none;fill-rule:nonzero;fill:rgb(57.647059%,60.784314%,66.666667%);fill-opacity:1;" />
<path d="M 229.980469 280.703125 C 228.898438 280.703125 227.789062 280.8125 226.675781 281.03125 C 221.378906 282.082031 214.910156 286.285156 214.113281 294.671875 C 213.484375 301.132812 217.324219 307.757812 223.242188 310.425781 C 225.125 311.28125 227.28125 311.730469 229.472656 311.730469 C 233.90625 311.730469 238.253906 309.917969 241.109375 306.878906 C 245.542969 302.15625 246.554688 294.5625 243.507812 288.824219 C 240.761719 283.664062 235.832031 280.703125 229.980469 280.703125 Z M 229.980469 280.703125 " style=" stroke:none;fill-rule:nonzero;fill:rgb(57.647059%,60.784314%,66.666667%);fill-opacity:1;" />
<path d="M 396.855469 27.140625 C 361.226562 26.574219 324.382812 25.992188 288.230469 25.214844 L 285.660156 25.164062 C 279.742188 25.050781 273.441406 24.996094 266.933594 24.996094 C 245.652344 24.996094 224.15625 25.589844 203.367188 26.167969 L 201.503906 26.21875 C 187.570312 26.605469 173.160156 27.003906 159.007812 27.203125 L 28.15625 29.121094 L 28.273438 32.1875 C 29.59375 66.449219 30.605469 99.90625 31.273438 131.628906 C 31.628906 148.304688 31.90625 165.488281 32.089844 182.707031 C 32.167969 190.003906 31.914062 197.425781 31.664062 204.667969 C 31.386719 212.371094 31.074219 221.105469 31.28125 229.5 L 31.695312 245.972656 L 416.746094 252.964844 C 417.347656 252.976562 417.976562 252.988281 418.621094 252.988281 C 421.230469 252.988281 424.21875 252.824219 426.582031 251.609375 C 431.023438 249.351562 431.515625 244.421875 431.410156 239.894531 C 431.265625 233.726562 431.054688 227.441406 430.851562 221.363281 L 430.820312 220.359375 C 430.394531 207.847656 429.953125 194.910156 430.082031 182.203125 C 430.121094 178.003906 430.59375 173.714844 431.050781 169.570312 L 431.089844 169.21875 C 431.507812 165.394531 431.941406 161.445312 432.03125 157.558594 L 432.761719 128.34375 C 432.800781 126.601562 432.921875 121.28125 433.082031 113.929688 C 433.390625 99.773438 433.871094 78.09375 434.300781 59.957031 C 434.535156 50.324219 434.726562 42.5 434.902344 36.769531 C 434.949219 34.796875 435.003906 33.078125 435.050781 31.65625 L 435.175781 27.742188 Z M 346.726562 235.078125 L 336.710938 216.902344 L 325.917969 222.941406 C 325.757812 220.5 325.625 218.023438 325.496094 215.617188 L 325.4375 214.488281 C 325.101562 208.175781 324.753906 201.648438 323.929688 195.34375 C 323.824219 194.5 323.636719 192.46875 323.398438 189.890625 L 323.335938 189.226562 C 322.730469 182.515625 322.28125 177.847656 321.925781 175.414062 L 362.410156 193.976562 L 353.28125 206.238281 L 366.367188 222.132812 Z M 346.726562 235.078125 " style=" stroke:none;fill-rule:nonzero;fill:rgb(35.686275%,81.568627%,98.823529%);fill-opacity:1;" />
<path d="M 365.429688 193.203125 L 319.582031 172.183594 L 320.222656 177.503906 C 320.539062 180.121094 320.917969 184.171875 321.394531 189.445312 L 321.476562 190.347656 C 321.695312 192.808594 321.871094 194.75 321.984375 195.578125 C 322.808594 201.933594 323.152344 208.519531 323.496094 214.980469 C 323.605469 217.097656 323.726562 219.257812 323.855469 221.40625 L 324.144531 226.167969 L 335.953125 219.582031 L 346.03125 237.875 L 369.269531 222.5625 L 355.777344 206.179688 Z M 365.429688 193.203125 " style=" stroke:none;fill-rule:nonzero;fill:rgb(100%,100%,100%);fill-opacity:1;" />
<path d="M 504.308594 460.289062 C 494.523438 462.371094 484.269531 463.382812 472.960938 463.382812 C 457.316406 463.382812 441.3125 461.507812 422.097656 458.6875 L 418.546875 458.164062 L 418.664062 461.75 C 418.773438 465.144531 419.582031 467.992188 421.066406 470.21875 C 423.398438 473.71875 427.382812 475.660156 432.910156 475.992188 C 446.71875 476.820312 460.699219 476.976562 474.21875 477.125 C 480.863281 477.195312 487.929688 477.273438 494.867188 477.433594 C 495.394531 477.449219 495.914062 477.457031 496.425781 477.457031 C 499.035156 477.457031 501.988281 477.230469 504.132812 475.570312 C 506.324219 473.878906 507.539062 470.859375 507.84375 466.332031 C 507.910156 465.25 507.941406 464.195312 507.929688 463.195312 L 507.894531 459.527344 Z M 504.308594 460.289062 " style=" stroke:none;fill-rule:nonzero;fill:rgb(74.901961%,78.039216%,84.705882%);fill-opacity:1;" />
<path d="M 454.707031 409.519531 C 454.039062 411.226562 453.765625 413.21875 453.917969 415.277344 L 454.152344 418.429688 L 457.289062 418.03125 C 459.238281 417.78125 461.230469 417.65625 463.214844 417.65625 C 464.292969 417.65625 465.382812 417.695312 466.457031 417.765625 L 468.367188 417.894531 L 469.332031 416.140625 C 471.222656 413.484375 471.230469 409.511719 469.324219 406.851562 C 467.859375 404.816406 465.320312 403.550781 462.699219 403.550781 C 461.917969 403.550781 461.15625 403.667969 460.429688 403.894531 C 457.90625 404.699219 455.769531 406.804688 454.707031 409.519531 Z M 454.707031 409.519531 " style=" stroke:none;fill-rule:nonzero;fill:rgb(74.901961%,78.039216%,84.705882%);fill-opacity:1;" />
<path d="M 394.617188 469.011719 C 394.167969 467.355469 393.746094 465.890625 393.328125 464.53125 L 392.6875 462.460938 L 69.523438 455.984375 L 71.144531 460.160156 C 72.246094 463 73.914062 465.238281 76.113281 466.8125 C 80.234375 469.761719 85.539062 470.058594 91.550781 470.125 L 395.621094 473.234375 L 394.75 469.511719 C 394.707031 469.320312 394.648438 469.113281 394.617188 469.011719 Z M 394.617188 469.011719 " style=" stroke:none;fill-rule:nonzero;fill:rgb(74.901961%,78.039216%,84.705882%);fill-opacity:1;" />
<path d="M 164.261719 374.457031 L 176.816406 374.625 C 208.382812 374.882812 240.558594 375.8125 272.453125 377.390625 C 276.039062 377.566406 279.621094 377.757812 283.214844 377.953125 L 286.902344 378.152344 L 283.671875 330.109375 L 171.359375 327.484375 Z M 164.261719 374.457031 " style=" stroke:none;fill-rule:nonzero;fill:rgb(74.901961%,78.039216%,84.705882%);fill-opacity:1;" />
<path d="M 357.089844 206.144531 L 365.539062 194.792969 C 365.902344 194.304688 366.027344 193.679688 365.875 193.085938 C 365.722656 192.496094 365.3125 192.007812 364.757812 191.753906 L 321.359375 171.855469 C 320.359375 171.398438 319.171875 171.824219 318.695312 172.816406 C 318.402344 173.429688 318.445312 174.117188 318.75 174.671875 C 319.160156 176.332031 319.933594 184.878906 320.355469 189.539062 C 320.617188 192.453125 320.824219 194.757812 320.949219 195.71875 C 321.773438 202.058594 322.121094 208.660156 322.457031 215.042969 C 322.625 218.210938 322.796875 221.488281 323.023438 224.695312 C 323.074219 225.382812 323.472656 226 324.078125 226.328125 C 324.6875 226.652344 325.421875 226.648438 326.023438 226.3125 L 335.542969 221 L 344.609375 237.453125 C 344.882812 237.949219 345.347656 238.304688 345.894531 238.4375 C 346.054688 238.476562 346.21875 238.5 346.378906 238.5 C 346.773438 238.5 347.160156 238.382812 347.492188 238.164062 L 368.921875 224.039062 C 369.402344 223.722656 369.722656 223.21875 369.808594 222.652344 C 369.894531 222.085938 369.734375 221.511719 369.371094 221.066406 Z M 347.09375 233.585938 L 338.101562 217.269531 C 337.84375 216.796875 337.40625 216.449219 336.890625 216.300781 C 336.707031 216.25 336.519531 216.222656 336.332031 216.222656 C 335.992188 216.222656 335.652344 216.308594 335.347656 216.480469 L 326.847656 221.226562 C 326.71875 219.085938 326.605469 216.933594 326.492188 214.828125 C 326.152344 208.371094 325.800781 201.691406 324.957031 195.195312 C 324.84375 194.3125 324.628906 191.933594 324.378906 189.171875 C 323.855469 183.398438 323.5 179.628906 323.203125 177.144531 L 360.808594 194.382812 L 352.90625 205.003906 C 352.355469 205.75 352.378906 206.777344 352.96875 207.492188 L 364.828125 221.898438 Z M 347.09375 233.585938 " style=" stroke:none;fill-rule:nonzero;fill:rgb(0%,0%,0%);fill-opacity:1;" />
<path d="M 27.207031 131.710938 C 27.570312 148.90625 27.847656 166.078125 28.023438 182.746094 C 28.101562 189.976562 27.84375 197.371094 27.59375 204.523438 C 27.304688 212.746094 27.007812 221.25 27.214844 229.601562 L 27.632812 246.585938 C 27.683594 248.480469 29.210938 250 31.105469 250.035156 L 416.671875 257.03125 C 417.292969 257.042969 417.953125 257.054688 418.644531 257.054688 C 421.707031 257.054688 425.351562 256.816406 428.449219 255.226562 C 435.746094 251.488281 435.558594 243.296875 435.476562 239.800781 C 435.328125 233.382812 435.109375 226.855469 434.894531 220.546875 C 434.464844 207.972656 434.023438 194.972656 434.152344 182.246094 C 434.191406 178.214844 434.636719 174.171875 435.109375 169.894531 C 435.546875 165.914062 436 161.800781 436.105469 157.65625 L 436.828125 128.449219 C 436.871094 126.707031 436.988281 121.378906 437.152344 114.019531 C 437.691406 89.417969 438.945312 32.203125 439.285156 27.867188 C 439.324219 27.667969 439.34375 27.460938 439.34375 27.25 C 439.359375 25.308594 437.808594 23.71875 435.867188 23.6875 L 401.578125 23.144531 C 364.441406 22.5625 326.039062 21.957031 288.324219 21.144531 L 285.738281 21.09375 C 258.179688 20.574219 230.105469 21.355469 202.957031 22.109375 C 188.527344 22.507812 173.605469 22.925781 158.949219 23.136719 L 69.191406 24.449219 L 68.539062 24.460938 L 27.546875 25.058594 C 26.597656 25.074219 25.691406 25.46875 25.035156 26.160156 C 24.378906 26.851562 24.03125 27.777344 24.070312 28.730469 L 24.148438 30.757812 C 25.496094 65.476562 26.527344 99.445312 27.207031 131.710938 Z M 439.234375 28.09375 C 439.160156 28.40625 439.03125 28.714844 438.859375 29.007812 C 439.023438 28.726562 439.152344 28.417969 439.234375 28.09375 Z M 436.429688 30.703125 C 436.632812 30.667969 436.828125 30.613281 437.015625 30.546875 C 436.828125 30.613281 436.632812 30.667969 436.429688 30.703125 Z M 159.046875 30.207031 C 173.75 29.992188 188.695312 29.574219 203.148438 29.171875 C 230.21875 28.421875 258.207031 27.648438 285.601562 28.160156 L 288.167969 28.210938 C 325.90625 29.023438 364.316406 29.628906 401.460938 30.210938 L 432.085938 30.699219 C 432.027344 32.261719 431.964844 34.292969 431.898438 36.6875 C 431.726562 42.609375 431.519531 50.800781 431.300781 59.878906 C 430.867188 78.023438 430.394531 99.703125 430.082031 113.863281 C 429.921875 121.210938 429.804688 126.53125 429.761719 128.269531 L 429.035156 157.480469 C 428.941406 161.320312 428.503906 165.285156 428.082031 169.117188 C 427.609375 173.378906 427.125 177.789062 427.082031 182.171875 C 426.953125 195.054688 427.398438 208.132812 427.828125 220.785156 C 428.042969 227.074219 428.261719 233.582031 428.410156 239.960938 C 428.527344 245.179688 427.636719 247.699219 425.226562 248.933594 C 423.003906 250.070312 419.5625 250.007812 416.800781 249.960938 L 34.617188 243.023438 L 34.28125 229.421875 C 34.078125 221.285156 34.371094 212.886719 34.65625 204.765625 C 34.910156 197.535156 35.171875 190.058594 35.09375 182.664062 C 34.914062 165.972656 34.640625 148.78125 34.277344 131.558594 C 33.601562 99.742188 32.589844 66.277344 31.269531 32.066406 Z M 159.046875 30.207031 " style=" stroke:none;fill-rule:nonzero;fill:rgb(0%,0%,0%);fill-opacity:1;" />
<path d="M 225.886719 277.042969 C 217.113281 278.789062 210.898438 285.554688 210.0625 294.285156 C 209.28125 302.421875 214.117188 310.769531 221.566406 314.140625 C 224.046875 315.261719 226.75 315.800781 229.464844 315.800781 C 234.890625 315.800781 240.34375 313.636719 244.074219 309.664062 C 249.664062 303.703125 250.941406 294.136719 247.105469 286.917969 C 242.988281 279.171875 234.660156 275.296875 225.886719 277.042969 Z M 238.917969 304.828125 C 235.386719 308.585938 229.179688 309.824219 224.476562 307.699219 C 219.777344 305.574219 216.605469 300.097656 217.097656 294.960938 C 217.742188 288.222656 222.773438 284.867188 227.265625 283.976562 C 228.125 283.804688 229.039062 283.710938 229.976562 283.710938 C 233.929688 283.710938 238.292969 285.402344 240.863281 290.234375 C 243.285156 294.789062 242.449219 301.0625 238.917969 304.828125 Z M 238.917969 304.828125 " style=" stroke:none;fill-rule:nonzero;fill:rgb(0%,0%,0%);fill-opacity:1;" />
<path d="M 398.539062 467.917969 C 396.714844 461.316406 394.449219 453.101562 388.269531 449.101562 C 382.949219 445.660156 375.070312 445.570312 368.742188 445.496094 C 368.292969 445.492188 367.851562 445.488281 367.414062 445.480469 L 369.171875 430.894531 C 369.289062 429.910156 368.988281 428.917969 368.339844 428.167969 C 367.691406 427.414062 366.757812 426.96875 365.765625 426.9375 L 85.699219 418.820312 C 84.710938 418.792969 83.765625 419.171875 83.078125 419.875 C 82.386719 420.574219 82.019531 421.53125 82.066406 422.511719 L 82.707031 436.503906 C 81.175781 436.519531 79.78125 436.542969 78.519531 436.566406 C 75.613281 436.625 73.359375 436.703125 71.8125 436.804688 C 69.660156 436.949219 66.414062 437.160156 66.085938 440.335938 C 64.792969 450.726562 64.507812 463.484375 73.742188 470.113281 C 79.25 474.070312 86.335938 474.140625 91.507812 474.191406 L 396.546875 477.308594 C 396.558594 477.308594 396.570312 477.308594 396.582031 477.308594 C 397.714844 477.308594 398.78125 476.765625 399.445312 475.847656 C 400.117188 474.917969 400.296875 473.722656 399.929688 472.636719 C 399.460938 471.257812 399.011719 469.632812 398.539062 467.917969 Z M 360.335938 445.132812 C 354.253906 444.710938 348.15625 444.304688 342.042969 443.914062 L 343.664062 433.375 L 361.691406 433.894531 Z M 113.238281 436.539062 L 112.417969 426.667969 L 128.375 427.128906 L 128.605469 436.691406 C 123.828125 436.636719 118.578125 436.582031 113.238281 436.539062 Z M 132.648438 436.738281 L 132.417969 427.246094 L 148.128906 427.703125 C 148.480469 430.765625 148.574219 433.859375 148.402344 436.933594 C 147.367188 436.921875 145.746094 436.902344 143.660156 436.875 C 140.824219 436.835938 137.027344 436.789062 132.648438 436.738281 Z M 152.203125 427.820312 L 169.003906 428.308594 L 168.625 433.695312 C 168.570312 434.464844 168.476562 435.820312 168.820312 437.167969 C 163.355469 437.089844 157.894531 437.027344 152.441406 436.976562 C 152.605469 433.925781 152.523438 430.859375 152.203125 427.820312 Z M 173.492188 437.242188 C 173.371094 437.066406 173.230469 436.902344 173.050781 436.765625 C 172.488281 436.335938 172.613281 434.5625 172.652344 433.980469 L 173.046875 428.425781 L 188.074219 428.859375 L 187.761719 437.484375 C 183.003906 437.394531 178.246094 437.316406 173.492188 437.242188 Z M 192.113281 428.976562 L 211.308594 429.535156 C 211.144531 432.363281 210.867188 435.199219 210.472656 438.007812 C 204.246094 437.847656 198.023438 437.703125 191.800781 437.574219 Z M 215.347656 429.652344 L 232.1875 430.140625 L 231.804688 438.625 C 226.046875 438.441406 220.292969 438.269531 214.539062 438.113281 C 214.917969 435.308594 215.1875 432.476562 215.347656 429.652344 Z M 236.226562 430.257812 L 252.109375 430.71875 L 252.015625 439.332031 C 246.625 439.125 241.238281 438.933594 235.839844 438.753906 Z M 256.148438 430.835938 L 273.511719 431.339844 L 273.320312 440.195312 C 267.570312 439.945312 261.816406 439.703125 256.054688 439.476562 Z M 277.550781 431.457031 L 297.359375 432.03125 C 297.300781 435.136719 297.015625 438.242188 296.5 441.300781 C 295.066406 441.226562 293.625 441.148438 292.195312 441.078125 C 287.257812 440.832031 282.308594 440.605469 277.355469 440.382812 Z M 301.398438 432.148438 L 316.882812 432.597656 L 315.886719 442.34375 C 310.769531 442.054688 305.660156 441.777344 300.554688 441.511719 C 301.050781 438.417969 301.335938 435.285156 301.398438 432.148438 Z M 320.917969 432.8125 C 320.921875 432.78125 320.917969 432.746094 320.917969 432.714844 L 339.59375 433.253906 L 338.046875 443.332031 C 338.03125 443.445312 338.03125 443.554688 338.03125 443.664062 C 331.996094 443.285156 325.960938 442.921875 319.925781 442.574219 Z M 89.300781 425.996094 L 108.355469 426.550781 L 109.179688 436.511719 C 105.972656 436.488281 102.773438 436.472656 99.667969 436.460938 C 96.054688 436.449219 92.761719 436.449219 89.777344 436.457031 Z M 72.808594 443.8125 C 78.53125 443.484375 96.253906 443.328125 143.566406 443.941406 C 146.324219 443.976562 148.28125 444.003906 149.144531 444.011719 C 196.511719 444.40625 244.523438 445.796875 291.84375 448.136719 C 315.503906 449.308594 339.480469 450.746094 363.101562 452.402344 C 364.792969 452.519531 366.671875 452.542969 368.660156 452.566406 C 374.078125 452.628906 380.824219 452.707031 384.429688 455.039062 C 386.417969 456.324219 387.859375 458.632812 389 461.339844 L 72.871094 455.015625 C 72.308594 451.488281 72.4375 447.554688 72.808594 443.8125 Z M 91.578125 467.125 C 86.09375 467.070312 81.277344 466.824219 77.863281 464.371094 C 76.023438 463.050781 74.769531 461.214844 73.9375 459.078125 L 390.460938 465.414062 C 390.914062 466.871094 391.324219 468.359375 391.722656 469.796875 C 391.757812 469.929688 391.796875 470.058594 391.832031 470.191406 Z M 91.578125 467.125 " style=" stroke:none;fill-rule:nonzero;fill:rgb(0%,0%,0%);fill-opacity:1;" />
<path d="M 160.601562 371.425781 C 155.257812 371.371094 149.265625 371.320312 143.71875 371.300781 C 137.648438 371.28125 132.867188 371.308594 129.507812 371.375 C 123.246094 371.496094 120.363281 371.554688 120.03125 374.945312 C 119.128906 382.214844 118.964844 391.15625 125.636719 395.945312 C 129.625 398.808594 134.582031 398.859375 138.199219 398.894531 L 342.382812 400.980469 C 342.394531 400.980469 342.40625 400.980469 342.417969 400.980469 C 343.550781 400.980469 344.613281 400.4375 345.28125 399.519531 C 345.953125 398.59375 346.132812 397.394531 345.765625 396.3125 C 345.460938 395.417969 345.164062 394.347656 344.851562 393.214844 C 343.582031 388.605469 341.996094 382.871094 337.488281 379.953125 C 333.644531 377.464844 328.179688 377.402344 323.792969 377.351562 C 322.550781 377.335938 321.378906 377.324219 320.421875 377.257812 C 310.617188 376.566406 300.707031 375.941406 290.792969 375.375 L 287.953125 333.207031 L 438.464844 336.722656 C 439.167969 336.742188 439.917969 336.757812 440.699219 336.757812 C 444.167969 336.757812 448.289062 336.414062 451.789062 334.105469 C 458.460938 329.699219 459.21875 321.234375 459.082031 313.53125 C 458.917969 304.300781 458.667969 294.914062 458.429688 285.835938 C 457.953125 267.714844 457.457031 248.980469 457.597656 230.613281 C 457.644531 224.695312 458.148438 218.820312 458.679688 212.601562 C 459.164062 206.925781 459.667969 201.050781 459.78125 195.191406 L 460.59375 153.152344 C 460.640625 150.648438 460.769531 142.996094 460.949219 132.417969 C 461.558594 96.636719 462.980469 13.289062 463.351562 8.117188 C 463.382812 7.933594 463.398438 7.742188 463.402344 7.550781 C 463.421875 5.613281 461.875 4.019531 459.9375 3.980469 L 421.101562 3.1875 C 379.753906 2.347656 337 1.476562 295.007812 0.316406 L 292.117188 0.242188 C 261.289062 -0.503906 229.898438 0.617188 199.539062 1.703125 C 183.414062 2.28125 166.734375 2.875 150.359375 3.183594 L 49.292969 5.085938 L 3.894531 5.9375 L 3.46875 5.949219 C 2.523438 5.964844 1.625 6.359375 0.976562 7.042969 C 0.324219 7.726562 -0.0273438 8.644531 0 9.589844 L 0.0898438 12.5 C 1.601562 62.507812 2.753906 111.414062 3.519531 157.855469 C 3.925781 182.617188 4.230469 207.335938 4.429688 231.332031 C 4.519531 241.792969 4.226562 252.464844 3.945312 262.785156 C 3.625 274.589844 3.292969 286.792969 3.523438 298.738281 L 3.992188 323.191406 C 4.027344 325.085938 5.550781 326.613281 7.445312 326.65625 L 166.808594 330.378906 Z M 463.308594 8.324219 C 463.234375 8.664062 463.097656 9.003906 462.902344 9.324219 C 463.085938 9.015625 463.226562 8.679688 463.308594 8.324219 Z M 460.660156 10.957031 C 460.914062 10.902344 461.160156 10.8125 461.390625 10.707031 C 461.164062 10.8125 460.917969 10.898438 460.660156 10.957031 Z M 323.710938 384.417969 C 327.191406 384.457031 331.519531 384.507812 333.648438 385.886719 C 335.636719 387.175781 336.796875 390.683594 337.695312 393.863281 L 138.273438 391.828125 C 134.800781 391.792969 131.769531 391.644531 129.757812 390.203125 C 126.707031 388.011719 126.398438 383.15625 126.769531 378.511719 C 131.394531 378.332031 143.644531 378.261719 173.089844 378.648438 C 174.914062 378.671875 176.207031 378.6875 176.78125 378.695312 C 208.472656 378.957031 240.59375 379.886719 272.253906 381.453125 C 288.128906 382.242188 304.167969 383.199219 319.925781 384.308594 C 321.09375 384.390625 322.363281 384.402344 323.710938 384.417969 Z M 283.679688 374.96875 C 279.984375 374.769531 276.289062 374.574219 272.605469 374.394531 C 240.851562 372.820312 208.628906 371.890625 176.839844 371.625 C 176.273438 371.621094 174.988281 371.601562 173.183594 371.578125 C 171.714844 371.558594 169.859375 371.535156 167.738281 371.511719 L 173.933594 330.546875 L 280.859375 333.042969 Z M 150.492188 10.253906 C 166.929688 9.945312 183.636719 9.347656 199.792969 8.769531 C 230.046875 7.6875 261.332031 6.570312 291.945312 7.308594 L 294.8125 7.382812 C 336.832031 8.546875 379.601562 9.414062 420.960938 10.253906 L 456.167969 10.972656 C 456.167969 11.015625 456.164062 11.058594 456.164062 11.101562 C 456.089844 13.488281 456.007812 16.941406 455.910156 21.210938 C 455.71875 29.738281 455.488281 41.53125 455.246094 54.59375 C 454.761719 80.714844 454.230469 111.929688 453.882812 132.296875 C 453.703125 142.867188 453.574219 150.515625 453.523438 153.015625 L 452.710938 195.054688 C 452.605469 200.679688 452.113281 206.433594 451.636719 212 C 451.113281 218.078125 450.578125 224.367188 450.527344 230.5625 C 450.429688 243.414062 450.640625 256.414062 450.941406 269.253906 C 304.957031 262.585938 156.914062 262.222656 10.875 268.171875 C 10.921875 266.4375 10.964844 264.699219 11.011719 262.980469 C 11.292969 252.597656 11.585938 241.859375 11.5 231.273438 C 11.296875 207.257812 10.992188 182.519531 10.585938 157.738281 C 9.824219 111.46875 8.675781 62.757812 7.175781 12.949219 Z M 10.589844 298.601562 C 10.441406 290.890625 10.539062 283.042969 10.710938 275.25 C 156.855469 269.285156 305.015625 269.648438 451.113281 276.335938 C 451.195312 279.578125 451.277344 282.8125 451.363281 286.019531 C 451.601562 295.085938 451.847656 304.457031 452.011719 313.660156 C 452.117188 319.4375 451.707031 325.6875 447.894531 328.207031 C 445.636719 329.695312 442.363281 329.742188 438.628906 329.65625 L 10.996094 319.667969 Z M 10.589844 298.601562 " style=" stroke:none;fill-rule:nonzero;fill:rgb(0%,0%,0%);fill-opacity:1;" />
<path d="M 486.976562 420.710938 C 482.914062 418.441406 478.550781 416.816406 474.046875 415.824219 C 475.421875 412.117188 474.960938 407.742188 472.644531 404.5 C 469.699219 400.378906 464.054688 398.492188 459.222656 400.011719 C 455.546875 401.167969 452.445312 404.160156 450.921875 408.019531 C 449.910156 410.578125 449.589844 413.453125 449.945312 416.4375 C 444.558594 417.90625 439.414062 420.277344 434.816406 423.542969 C 426.777344 429.261719 420.484375 437.78125 417.101562 447.527344 C 413.550781 457.742188 413.757812 466.601562 417.675781 472.476562 C 419.789062 475.648438 424.105469 479.535156 432.667969 480.050781 C 446.476562 480.882812 460.554688 481.039062 474.171875 481.191406 C 480.933594 481.265625 487.925781 481.34375 494.773438 481.503906 C 495.320312 481.515625 495.917969 481.53125 496.546875 481.53125 C 499.617188 481.53125 503.5 481.199219 506.617188 478.796875 C 509.789062 476.34375 511.515625 472.363281 511.898438 466.617188 C 513.125 448.175781 503.109375 429.726562 486.976562 420.710938 Z M 457.496094 410.613281 C 458.234375 408.75 459.707031 407.269531 461.34375 406.753906 C 463.277344 406.140625 465.714844 406.960938 466.890625 408.609375 C 468.070312 410.257812 468.050781 412.824219 466.851562 414.457031 C 466.777344 414.558594 466.726562 414.667969 466.660156 414.777344 C 463.414062 414.554688 460.144531 414.648438 456.914062 415.054688 C 456.792969 413.441406 456.988281 411.910156 457.496094 410.613281 Z M 438.914062 429.304688 C 445.488281 424.632812 453.578125 422.113281 461.746094 421.828125 L 461.480469 431.371094 L 459.160156 431.28125 C 458.050781 431.234375 457.105469 432.101562 457.0625 433.21875 C 457.019531 434.332031 457.886719 435.269531 459 435.316406 L 468.398438 435.683594 C 468.421875 435.683594 468.449219 435.6875 468.476562 435.6875 C 469.558594 435.6875 470.453125 434.832031 470.496094 433.746094 C 470.539062 432.632812 469.671875 431.691406 468.554688 431.648438 L 465.515625 431.53125 L 465.785156 421.871094 C 472.011719 422.21875 478.144531 423.875 483.527344 426.882812 C 495.078125 433.335938 503.136719 445.96875 504.664062 459.152344 C 478.359375 464.894531 451.53125 461.960938 421.882812 457.609375 C 422.199219 455.203125 422.824219 452.597656 423.777344 449.847656 C 426.6875 441.472656 432.0625 434.179688 438.914062 429.304688 Z M 504.84375 466.148438 C 504.609375 469.703125 503.75 472.074219 502.296875 473.199219 C 500.660156 474.460938 497.878906 474.507812 494.9375 474.433594 C 488.050781 474.273438 481.035156 474.195312 474.25 474.121094 C 460.71875 473.972656 446.726562 473.816406 433.09375 472.992188 C 428.546875 472.71875 425.335938 471.226562 423.558594 468.554688 C 422.378906 466.785156 421.75 464.433594 421.660156 461.65625 C 439.582031 464.28125 456.503906 466.386719 472.957031 466.386719 C 483.757812 466.386719 494.363281 465.472656 504.925781 463.21875 C 504.9375 464.199219 504.910156 465.171875 504.84375 466.148438 Z M 504.84375 466.148438 " style=" stroke:none;fill-rule:nonzero;fill:rgb(0%,0%,0%);fill-opacity:1;" />
</g>
</svg>