<svg xmlns="http://www.w3.org/2000/svg" height="511pt" version="1.1" viewBox="0 -18 511.99934 511" width="511pt">
<g id="surface1">
<path d="M 156.738281 303.339844 L 157.539062 304.695312 L 171.128906 334.933594 L 180.003906 296.5 L 166.15625 282.320312 Z M 156.738281 303.339844 " style=" stroke:none;fill-rule:nonzero;fill:rgb(84.705882%,87.058824%,92.54902%);fill-opacity:1;" />
<path d="M 143.851562 301.039062 L 134.847656 282.023438 L 119.429688 301.089844 L 119.886719 302.609375 C 123.269531 313.796875 126.902344 325.085938 130.691406 336.171875 L 133.703125 344.980469 L 146.078125 304.148438 L 144.96875 302.894531 C 144.492188 302.355469 144.144531 301.644531 143.851562 301.039062 Z M 143.851562 301.039062 " style=" stroke:none;fill-rule:nonzero;fill:rgb(84.705882%,87.058824%,92.54902%);fill-opacity:1;" />
<path d="M 192.46875 311.324219 L 216.839844 296.902344 L 196.390625 230.179688 L 159.5 390.128906 L 164.773438 392.664062 L 213.527344 331.015625 L 192.386719 312.183594 C 192.261719 312.070312 192.191406 311.898438 192.207031 311.738281 C 192.222656 311.566406 192.316406 311.414062 192.46875 311.324219 Z M 192.46875 311.324219 " style=" stroke:none;fill-rule:nonzero;fill:rgb(15.686275%,56.078431%,78.823529%);fill-opacity:1;" />
<path d="M 103.109375 244.488281 L 100.804688 234.785156 L 75.492188 303.855469 L 102.585938 307.367188 C 102.769531 307.390625 102.878906 307.488281 102.9375 307.566406 C 103 307.648438 103.070312 307.78125 103.042969 307.976562 C 103.007812 308.257812 102.777344 308.40625 102.582031 308.425781 L 101.925781 308.492188 L 101.359375 308.828125 C 100.179688 309.519531 98.167969 311.222656 92.195312 318.570312 C 91.570312 319.347656 90.929688 320.136719 90.585938 320.519531 L 76.808594 335.621094 L 78.804688 337.648438 C 104.078125 363.285156 125.703125 382.425781 146.859375 397.882812 L 155.460938 404.167969 L 151.40625 394.320312 C 131.460938 345.890625 115.210938 295.480469 103.109375 244.488281 Z M 103.109375 244.488281 " style=" stroke:none;fill-rule:nonzero;fill:rgb(15.686275%,56.078431%,78.823529%);fill-opacity:1;" />
<path d="M 265.410156 349.015625 C 265.21875 332.8125 265.015625 316.054688 259.636719 300.425781 C 251.167969 275.863281 231.96875 257.949219 205.75 238.609375 L 198.441406 233.214844 L 217.980469 296.996094 C 218.054688 297.234375 217.957031 297.484375 217.742188 297.609375 L 193.636719 311.871094 L 214.613281 330.550781 C 214.824219 330.738281 214.855469 331.058594 214.675781 331.28125 L 156.09375 405.363281 C 155.949219 405.546875 155.765625 405.574219 155.667969 405.574219 C 155.601562 405.574219 155.464844 405.558594 155.296875 405.40625 L 154.984375 404.957031 L 154.535156 404.644531 C 129.6875 387.488281 105.371094 366.320312 75.6875 335.996094 C 75.492188 335.800781 75.484375 335.480469 75.675781 335.273438 L 89.816406 319.769531 C 90.015625 319.542969 90.4375 319.03125 90.929688 318.429688 L 91.367188 317.890625 C 93.320312 315.484375 94.808594 313.71875 96.050781 312.335938 L 99.867188 308.085938 L 74.691406 304.835938 C 74.535156 304.816406 74.390625 304.722656 74.292969 304.558594 C 74.214844 304.433594 74.203125 304.261719 74.257812 304.113281 L 100.230469 233.253906 L 91.996094 239.628906 C 85.847656 244.386719 79.859375 248.996094 74.023438 253.484375 C 65.953125 259.679688 55.914062 267.390625 45.703125 275.390625 C 41.414062 278.746094 36.980469 282.214844 33.992188 286.875 C 28.960938 294.734375 28.84375 304.472656 29.203125 315.460938 L 33.421875 444.304688 C 33.691406 452.460938 34.34375 460.222656 39.296875 465.480469 C 44.648438 471.15625 53.261719 471.941406 61.773438 471.941406 C 62.296875 471.941406 62.816406 471.9375 63.335938 471.933594 L 71.105469 471.867188 L 66.9375 370.960938 C 66.933594 370.777344 67.011719 370.652344 67.078125 370.578125 C 67.144531 370.507812 67.261719 370.417969 67.484375 370.410156 C 67.757812 370.410156 67.992188 370.640625 68.003906 370.917969 L 72.183594 471.859375 L 223.425781 470.558594 L 224.363281 365.621094 C 224.367188 365.320312 224.601562 365.082031 224.902344 365.082031 C 225.085938 365.085938 225.207031 365.171875 225.277344 365.242188 C 225.351562 365.316406 225.433594 365.441406 225.433594 365.625 L 224.496094 470.550781 L 241.996094 470.394531 C 250.855469 470.316406 259.640625 469.363281 263.914062 462.953125 C 266.492188 459.0625 266.648438 454.164062 266.582031 448.628906 Z M 265.410156 349.015625 " style=" stroke:none;fill-rule:nonzero;fill:rgb(35.686275%,81.568627%,98.823529%);fill-opacity:1;" />
<path d="M 145.746094 377.324219 C 148.042969 383.203125 150.121094 388.398438 152.09375 393.210938 L 155.675781 401.933594 L 165.472656 359.457031 L 144.925781 375.226562 Z M 145.746094 377.324219 " style=" stroke:none;fill-rule:nonzero;fill:rgb(100%,100%,100%);fill-opacity:1;" />
<path d="M 134.117188 346.050781 L 134.824219 348.039062 C 136.441406 352.582031 137.800781 356.328125 139.097656 359.824219 L 140.464844 363.515625 L 167.332031 344.21875 L 169.066406 343.910156 L 171.859375 331.773438 L 166.386719 319.597656 Z M 134.117188 346.050781 " style=" stroke:none;fill-rule:nonzero;fill:rgb(100%,100%,100%);fill-opacity:1;" />
<path d="M 147.519531 303.566406 C 147.234375 303.605469 146.945312 303.640625 146.667969 303.652344 L 146.589844 303.640625 L 144.183594 303.640625 L 136.414062 329.261719 L 161.714844 309.210938 L 158.53125 302.140625 Z M 147.519531 303.566406 " style=" stroke:none;fill-rule:nonzero;fill:rgb(100%,100%,100%);fill-opacity:1;" />
<path d="M 151.765625 263.449219 L 149.507812 263.703125 L 145.886719 263.703125 C 132.035156 263.265625 118.273438 255.585938 109.972656 243.667969 L 104.59375 246.082031 C 108.734375 263.378906 113.410156 280.8125 118.484375 297.898438 L 120.109375 303.359375 L 149.039062 267.589844 L 156.375 275.105469 L 155.441406 276.339844 L 138.226562 293.757812 L 142.996094 303.796875 L 165.289062 284.230469 L 179.480469 298.765625 L 192.542969 242.117188 L 186.996094 239.992188 C 180.003906 252.628906 166.175781 261.835938 151.765625 263.449219 Z M 151.765625 263.449219 " style=" stroke:none;fill-rule:nonzero;fill:rgb(100%,100%,100%);fill-opacity:1;" />
<path d="M 231.113281 107.242188 C 228.992188 104.824219 226.796875 102.324219 225.566406 99.226562 C 224.386719 96.285156 224.230469 93.226562 224.066406 89.988281 L 221.070312 90.136719 L 224.0625 89.871094 C 224.011719 88.828125 223.960938 87.785156 223.867188 86.738281 C 222.425781 70.363281 210.1875 54.742188 192.6875 46.941406 C 182.710938 42.5 171.445312 40.339844 158.25 40.339844 C 152.652344 40.339844 146.621094 40.746094 140.320312 41.542969 C 126.453125 43.300781 115.757812 46.300781 106.675781 50.984375 C 95.441406 56.773438 86.835938 65.390625 82.441406 75.246094 C 81.460938 77.445312 80.675781 79.707031 79.902344 81.929688 C 78.726562 85.320312 77.507812 88.824219 75.644531 91.976562 C 73.445312 95.710938 70.425781 98.871094 67.488281 101.941406 C 65.460938 104.046875 63.78125 105.816406 62.210938 107.773438 C 55.234375 116.464844 51.710938 127.820312 52.550781 138.925781 C 53.386719 150.039062 58.566406 160.738281 66.742188 168.261719 C 66.742188 168.265625 66.777344 168.304688 66.847656 168.433594 L 67.824219 170.210938 L 69.839844 169.96875 C 71.300781 169.792969 72.769531 169.714844 74.277344 169.648438 C 77.914062 169.480469 81.675781 169.304688 85.074219 167.441406 C 92.46875 163.378906 97.945312 154.511719 99.03125 144.847656 C 100.386719 132.777344 96.15625 120.640625 92.425781 109.945312 C 92.347656 109.714844 92.429688 109.460938 92.609375 109.332031 C 92.734375 109.246094 92.859375 109.226562 92.941406 109.226562 C 93.023438 109.226562 93.144531 109.246094 93.265625 109.339844 C 108.617188 121.527344 128.679688 128.515625 148.308594 128.515625 C 148.957031 128.515625 149.613281 128.507812 150.257812 128.492188 C 160.167969 128.273438 170.003906 126.351562 179.5 122.769531 C 185.292969 120.585938 190.074219 117.410156 195.136719 114.054688 L 195.257812 113.976562 C 198.664062 111.71875 202.1875 109.386719 205.945312 107.480469 C 206.023438 107.441406 206.101562 107.421875 206.1875 107.421875 C 206.339844 107.421875 206.542969 107.492188 206.660156 107.699219 C 207.957031 110.035156 206.308594 112.675781 204.191406 115.636719 L 204.132812 115.722656 C 203.683594 116.347656 203.261719 116.9375 202.960938 117.449219 C 200.027344 122.476562 197.980469 126.683594 196.523438 130.6875 C 194.332031 136.71875 192.308594 145.777344 195.101562 154.6875 C 196.621094 159.488281 200.417969 165.671875 205.183594 167.921875 C 206.445312 168.511719 207.722656 168.808594 208.976562 168.808594 C 210.066406 168.808594 211.171875 168.582031 212.265625 168.140625 C 217.757812 165.898438 222.542969 164.757812 226.488281 164.757812 C 227.683594 164.757812 228.820312 164.863281 229.859375 165.074219 L 231.609375 165.425781 L 232.753906 164.058594 C 245.492188 148.832031 245.660156 124.914062 233.144531 109.617188 C 232.5 108.820312 231.824219 108.050781 231.113281 107.242188 Z M 231.113281 107.242188 " style=" stroke:none;fill-rule:nonzero;fill:rgb(68.627451%,47.45098%,47.45098%);fill-opacity:1;" />
<path d="M 226.390625 165.78125 C 222.671875 165.78125 218.183594 166.875 212.664062 169.125 C 211.457031 169.621094 210.21875 169.871094 208.984375 169.871094 C 207.558594 169.871094 206.128906 169.535156 204.726562 168.878906 C 199.632812 166.484375 195.710938 160.1875 194.082031 155.003906 C 191.191406 145.816406 193.269531 136.507812 195.519531 130.316406 C 196.875 126.578125 198.746094 122.664062 201.414062 117.992188 L 197.160156 114 C 197.160156 114 196.082031 114.710938 195.71875 114.945312 C 190.839844 118.183594 185.792969 121.535156 179.878906 123.765625 C 170.300781 127.378906 160.339844 129.332031 150.285156 129.5625 C 149.671875 129.578125 149.0625 129.582031 148.453125 129.582031 C 132.117188 129.582031 115.34375 124.828125 101.222656 116.195312 L 94.488281 112.074219 L 96.789062 119.628906 C 98.882812 126.5 101.152344 135.589844 100.097656 144.96875 C 98.957031 155.113281 93.398438 164.085938 85.59375 168.375 C 81.980469 170.363281 78.097656 170.542969 74.320312 170.714844 C 69.042969 170.960938 64.058594 171.1875 60.25 176.351562 C 56.300781 181.683594 56.488281 189.582031 60.679688 194.714844 C 63.453125 198.125 67.882812 200.160156 72.539062 200.160156 C 74.667969 200.160156 76.757812 199.710938 78.601562 198.859375 C 78.671875 198.828125 78.734375 198.8125 78.808594 198.8125 C 78.847656 198.8125 78.925781 198.824219 78.976562 198.839844 C 79.121094 198.894531 79.234375 198.996094 79.292969 199.121094 C 86.191406 214.183594 97.964844 226.914062 112.441406 234.972656 C 124.078125 241.453125 137.328125 244.875 150.753906 244.875 C 153.972656 244.875 157.207031 244.675781 160.371094 244.277344 C 174.722656 242.476562 187.472656 236.613281 196.265625 227.777344 C 206.1875 217.800781 210.941406 203.816406 208.671875 191.285156 C 208.640625 191.113281 208.691406 190.933594 208.808594 190.8125 C 208.910156 190.707031 209.042969 190.652344 209.246094 190.652344 C 209.253906 190.652344 209.261719 190.652344 209.269531 190.652344 C 211.746094 191.007812 215.011719 191.421875 218.3125 191.421875 C 222.941406 191.421875 226.773438 190.609375 230.019531 188.945312 C 233.617188 187.117188 236.472656 183.742188 237.660156 179.933594 C 238.578125 177.019531 238.390625 174.210938 237.117188 171.824219 C 234.984375 167.8125 231.375 165.78125 226.390625 165.78125 Z M 226.390625 165.78125 " style=" stroke:none;fill-rule:nonzero;fill:rgb(100%,82.352941%,73.333333%);fill-opacity:1;" />
<path d="M 160.507812 245.335938 C 157.289062 245.738281 154.011719 245.941406 150.769531 245.941406 C 137.144531 245.941406 123.710938 242.472656 111.921875 235.910156 C 110.96875 235.382812 109.964844 234.78125 108.660156 233.96875 L 100.195312 228.675781 L 104.339844 237.757812 C 111.707031 253.894531 128.378906 265.109375 145.828125 265.660156 C 146.261719 265.675781 146.691406 265.683594 147.125 265.683594 C 163.398438 265.679688 179.417969 256.492188 187.933594 242.273438 L 193.46875 233.035156 L 183.953125 238.085938 C 176.882812 241.835938 168.996094 244.277344 160.507812 245.335938 Z M 160.507812 245.335938 " style=" stroke:none;fill-rule:nonzero;fill:rgb(100%,82.352941%,73.333333%);fill-opacity:1;" />
<path d="M 467.726562 34.90625 C 467.578125 35.027344 467.390625 35.203125 467.210938 35.433594 L 466.59375 36.230469 L 463.59375 308.601562 L 507.9375 334.910156 L 496.664062 6.304688 Z M 467.726562 34.90625 " style=" stroke:none;fill-rule:nonzero;fill:rgb(96.862745%,70.196078%,43.529412%);fill-opacity:1;" />
<path d="M 463.195312 310.722656 C 463.140625 310.738281 463.085938 310.757812 463.042969 310.761719 L 263.824219 311.789062 L 264.386719 315.253906 C 265.210938 320.300781 265.761719 325.867188 266.074219 332.277344 L 266.210938 335.144531 L 504.792969 334.285156 L 464.445312 310.355469 Z M 463.195312 310.722656 " style=" stroke:none;fill-rule:nonzero;fill:rgb(96.862745%,70.196078%,43.529412%);fill-opacity:1;" />
<path d="M 466.183594 34.921875 L 496.792969 4.671875 L 489.210938 4.671875 C 484.113281 4.722656 476.734375 4.78125 467.609375 4.84375 C 449.371094 4.960938 424.144531 5.113281 396.214844 5.261719 C 340.355469 5.574219 273.683594 5.914062 230.433594 6.132812 L 187.015625 6.363281 C 181.332031 6.394531 175.632812 6.410156 169.921875 6.410156 C 144.441406 6.410156 118.671875 6.121094 93.75 5.839844 L 92.296875 5.824219 C 69.1875 5.550781 48.359375 5.320312 27.429688 5.253906 L 27.101562 5.253906 C 22.371094 5.253906 17.015625 5.570312 13.136719 7.917969 L 9.84375 9.910156 L 32.03125 31.828125 L 33.058594 33.105469 L 34.550781 33.0625 C 97.054688 31.121094 160.722656 30.140625 223.792969 30.140625 C 304.148438 30.140625 385.261719 31.730469 464.882812 34.871094 Z M 466.183594 34.921875 " style=" stroke:none;fill-rule:nonzero;fill:rgb(96.862745%,70.196078%,43.529412%);fill-opacity:1;" />
<path d="M 33.941406 282.414062 L 33.132812 33.566406 L 31.484375 32.742188 C 31.417969 32.707031 31.363281 32.671875 31.359375 32.667969 L 8.808594 10.390625 L 7.980469 16.308594 C 7.746094 17.992188 7.722656 19.738281 7.703125 21.285156 C 7.214844 62.292969 6.734375 105.117188 6.25 148.308594 L 5.824219 186.171875 C 5.273438 235.496094 4.722656 284.75 4.171875 331.789062 L 4.082031 339.511719 L 25.929688 316.183594 C 25.96875 316.144531 26.046875 316.097656 26.148438 316.058594 L 28.121094 315.289062 L 28.0625 313.175781 C 27.808594 304.375 27.96875 294.316406 33.117188 286.269531 C 33.222656 286.105469 33.335938 285.949219 33.449219 285.792969 L 34.613281 284.136719 L 33.984375 282.613281 C 33.957031 282.554688 33.941406 282.480469 33.941406 282.414062 Z M 33.941406 282.414062 " style=" stroke:none;fill-rule:nonzero;fill:rgb(96.862745%,70.196078%,43.529412%);fill-opacity:1;" />
<path d="M 4.925781 340.167969 L 28.941406 340.046875 L 28.132812 315.398438 Z M 4.925781 340.167969 " style=" stroke:none;fill-rule:nonzero;fill:rgb(96.862745%,70.196078%,43.529412%);fill-opacity:1;" />
<path d="M 140.542969 363.773438 C 141.757812 366.988281 142.96875 370.199219 144.214844 373.40625 L 145.660156 377.144531 L 162.097656 364.519531 L 164.28125 364.660156 L 169.972656 339.914062 L 139.730469 361.617188 Z M 140.542969 363.773438 " style=" stroke:none;fill-rule:nonzero;fill:rgb(92.941176%,42.745098%,40%);fill-opacity:1;" />
<path d="M 160.886719 307.367188 L 139.265625 324.503906 L 137.742188 324.886719 L 132.609375 341.800781 L 132.945312 342.734375 C 132.945312 342.734375 133.304688 343.78125 133.386719 344.003906 L 134.820312 348.011719 L 167.21875 321.457031 Z M 160.886719 307.367188 " style=" stroke:none;fill-rule:nonzero;fill:rgb(92.941176%,42.745098%,40%);fill-opacity:1;" />
<path d="M 144.402344 304.996094 C 144.585938 305.113281 144.875 305.289062 145.265625 305.425781 L 145.417969 305.472656 C 145.757812 305.566406 146.117188 305.613281 146.515625 305.613281 C 146.832031 305.613281 147.230469 305.574219 147.613281 305.527344 L 158.542969 304.125 L 165.148438 289.367188 L 160.429688 285.890625 L 141.128906 302.828125 Z M 144.402344 304.996094 " style=" stroke:none;fill-rule:nonzero;fill:rgb(92.941176%,42.745098%,40%);fill-opacity:1;" />
<path d="M 133.472656 283.722656 L 139.125 295.636719 L 156.855469 277.691406 L 159.683594 275.695312 L 148.898438 264.640625 Z M 133.472656 283.722656 " style=" stroke:none;fill-rule:nonzero;fill:rgb(92.941176%,42.745098%,40%);fill-opacity:1;" />
<path d="M 462.605469 35.855469 C 383.949219 32.773438 303.789062 31.210938 224.351562 31.210938 C 202.664062 31.210938 180.703125 31.332031 159.011719 31.5625 L 156.027344 31.59375 L 156.015625 31.59375 L 153.011719 31.625 L 153.011719 31.628906 C 114.421875 32.066406 75.449219 32.878906 37.117188 34.054688 L 34.199219 34.144531 L 35.011719 282.96875 L 39.957031 278.679688 C 41.703125 277.164062 43.496094 275.75 45.039062 274.542969 C 54.945312 266.789062 64.308594 259.589844 73.367188 252.632812 C 82.398438 245.691406 90.574219 239.402344 99.214844 232.65625 L 99.875 232.144531 L 100.171875 231.363281 C 100.191406 231.304688 100.222656 231.253906 100.25 231.203125 L 101.523438 229.019531 L 99.585938 227.394531 C 91.359375 220.488281 84.464844 211.824219 79.652344 202.34375 L 78.582031 200.230469 L 76.277344 200.785156 C 75.078125 201.074219 73.824219 201.222656 72.550781 201.222656 C 67.570312 201.222656 62.820312 199.042969 59.84375 195.402344 C 55.359375 189.886719 55.160156 181.425781 59.375 175.722656 C 60.609375 174.0625 61.964844 172.8125 63.519531 171.902344 L 66.816406 169.976562 L 64.167969 167.230469 C 56.882812 159.675781 52.257812 149.390625 51.480469 139.007812 C 50.625 127.628906 54.234375 116 61.378906 107.101562 C 63.023438 105.046875 64.871094 103.117188 66.722656 101.191406 C 69.738281 98.039062 72.589844 95.0625 74.726562 91.441406 C 76.550781 88.328125 77.75 84.882812 78.914062 81.542969 C 79.746094 79.128906 80.511719 76.957031 81.46875 74.816406 C 85.960938 64.738281 94.738281 55.9375 106.183594 50.039062 C 115.382812 45.289062 126.1875 42.253906 140.183594 40.488281 C 145.703125 39.789062 151.066406 39.390625 156.117188 39.304688 L 156.121094 39.304688 C 156.847656 39.289062 157.570312 39.28125 158.289062 39.28125 C 171.628906 39.28125 183.019531 41.472656 193.117188 45.972656 C 210.964844 53.914062 223.453125 69.878906 224.929688 86.652344 C 225.027344 87.769531 225.085938 88.910156 225.128906 89.898438 L 225.136719 90.019531 C 225.289062 92.996094 225.449219 96.074219 226.550781 98.84375 C 227.714844 101.765625 229.847656 104.191406 231.953125 106.578125 C 232.636719 107.359375 233.320312 108.136719 233.964844 108.917969 C 246.210938 123.914062 246.5 147.855469 234.621094 163.421875 L 232.890625 165.6875 L 235.066406 167.53125 C 236.261719 168.542969 237.242188 169.78125 238.058594 171.3125 C 239.445312 173.925781 239.667969 177.105469 238.683594 180.25 C 237.398438 184.335938 234.34375 187.941406 230.511719 189.898438 C 227.121094 191.628906 223.117188 192.46875 218.269531 192.46875 C 216.777344 192.46875 215.21875 192.394531 213.5 192.234375 L 210.03125 191.914062 L 210.230469 195.394531 C 210.871094 206.617188 206.300781 218.613281 198.003906 227.484375 L 195.671875 229.976562 L 198.441406 231.96875 C 226.597656 252.199219 250.714844 271.289062 260.636719 300.078125 C 261.53125 302.667969 262.332031 305.464844 263.023438 308.398438 L 263.570312 310.726562 L 462.5 309.695312 L 465.515625 35.96875 Z M 462.605469 35.855469 " style=" stroke:none;fill-rule:nonzero;fill:rgb(58.039216%,77.647059%,40.784314%);fill-opacity:1;" />
<path d="M 67.722656 183.601562 C 68.863281 182.625 70.703125 182.457031 72 183.21875 C 72.742188 183.652344 73.308594 184.390625 73.601562 185.214844 C 71.730469 185.296875 69.894531 186.058594 68.554688 187.390625 C 67.765625 188.175781 67.761719 189.453125 68.546875 190.246094 C 68.941406 190.640625 69.460938 190.839844 69.980469 190.839844 C 70.496094 190.839844 71.011719 190.644531 71.402344 190.253906 C 72.328125 189.332031 73.832031 189 75.0625 189.4375 C 75.613281 189.632812 76.226562 189.582031 76.734375 189.292969 C 77.246094 189.003906 77.605469 188.507812 77.722656 187.933594 C 78.359375 184.746094 76.847656 181.375 74.042969 179.734375 C 71.242188 178.089844 67.5625 178.421875 65.09375 180.535156 C 64.246094 181.261719 64.148438 182.535156 64.875 183.382812 C 65.601562 184.226562 66.875 184.328125 67.722656 183.601562 Z M 67.722656 183.601562 " style=" stroke:none;fill-rule:nonzero;fill:rgb(0%,0%,0%);fill-opacity:1;" />
<path d="M 215.054688 183.734375 C 215.210938 183.734375 215.363281 183.714844 215.519531 183.679688 L 225.417969 181.359375 C 226.503906 181.105469 227.175781 180.015625 226.921875 178.929688 C 226.667969 177.84375 225.578125 177.167969 224.496094 177.425781 L 219.617188 178.570312 C 221.144531 176.957031 223.019531 175.675781 225.09375 174.863281 C 226.132812 174.457031 226.648438 173.285156 226.242188 172.25 C 225.835938 171.210938 224.664062 170.699219 223.625 171.101562 C 219.078125 172.878906 215.289062 176.4375 213.226562 180.859375 C 212.898438 181.5625 213 182.386719 213.488281 182.988281 C 213.878906 183.464844 214.457031 183.734375 215.054688 183.734375 Z M 215.054688 183.734375 " style=" stroke:none;fill-rule:nonzero;fill:rgb(0%,0%,0%);fill-opacity:1;" />
<path d="M 500.648438 3.914062 C 500.585938 2.007812 499.019531 0.5 497.117188 0.5 C 497 0.5 496.890625 0.503906 496.78125 0.515625 C 490.824219 0.738281 308.488281 1.667969 230.414062 2.066406 C 208.265625 2.179688 192.261719 2.261719 186.992188 2.292969 C 155.507812 2.476562 123.394531 2.109375 92.34375 1.75 C 71.074219 1.507812 49.082031 1.253906 27.453125 1.183594 C 22.539062 1.164062 10.976562 1.125 6.046875 9.359375 C 3.722656 13.242188 3.671875 17.675781 3.628906 21.238281 C 3.023438 72.585938 2.421875 126.773438 1.816406 180.960938 C 1.210938 235.144531 0.605469 289.328125 0 340.667969 C -0.0117188 341.617188 0.359375 342.527344 1.027344 343.199219 C 1.691406 343.867188 2.59375 344.242188 3.535156 344.242188 C 3.542969 344.242188 3.546875 344.242188 3.554688 344.242188 L 26.066406 344.132812 L 29.355469 444.433594 C 29.578125 451.210938 29.914062 461.457031 36.335938 468.269531 C 42.832031 475.167969 52.761719 476.003906 61.847656 476.003906 C 62.355469 476.003906 62.867188 476 63.371094 475.996094 L 242.035156 474.460938 C 248.273438 474.40625 261.253906 474.296875 267.296875 465.199219 C 270.789062 459.945312 270.710938 453.375 270.652344 448.578125 L 269.476562 348.972656 C 269.4375 345.734375 269.398438 342.476562 269.320312 339.203125 L 508.476562 338.339844 C 509.433594 338.335938 510.347656 337.945312 511.011719 337.257812 C 511.675781 336.566406 512.03125 335.640625 511.996094 334.683594 Z M 504.75 329.527344 L 466.609375 306.902344 L 469.578125 37.269531 C 469.613281 37.234375 469.65625 37.210938 469.6875 37.179688 L 493.894531 13.253906 Z M 263.480469 299.101562 C 253.386719 269.796875 228.914062 250.160156 200.199219 229.535156 C 209.148438 219.964844 213.921875 207.285156 213.230469 195.226562 C 219.40625 195.792969 226.023438 195.5625 231.882812 192.570312 C 236.417969 190.25 240.03125 185.980469 241.550781 181.152344 C 242.78125 177.226562 242.484375 173.230469 240.710938 169.902344 C 239.707031 168.015625 238.460938 166.476562 237.011719 165.242188 C 249.632812 148.703125 249.5 123.1875 236.289062 107.023438 C 235.605469 106.191406 234.890625 105.371094 234.175781 104.554688 C 232.183594 102.289062 230.304688 100.144531 229.34375 97.730469 C 228.414062 95.398438 228.277344 92.648438 228.132812 89.742188 C 228.078125 88.617188 228.023438 87.496094 227.921875 86.386719 C 226.347656 68.546875 213.167969 51.609375 194.34375 43.230469 C 179.492188 36.617188 161.652344 34.746094 139.808594 37.507812 C 125.464844 39.324219 114.34375 42.457031 104.8125 47.371094 C 92.761719 53.582031 83.5 62.894531 78.730469 73.59375 C 77.699219 75.90625 76.875 78.269531 76.078125 80.558594 C 74.90625 83.917969 73.800781 87.09375 72.136719 89.917969 C 70.179688 93.242188 67.441406 96.105469 64.539062 99.132812 C 62.691406 101.0625 60.785156 103.054688 59.042969 105.226562 C 51.425781 114.707031 47.582031 127.101562 48.492188 139.230469 C 49.332031 150.429688 54.222656 161.238281 62.011719 169.316406 C 60.230469 170.355469 58.527344 171.828125 56.976562 173.929688 C 51.964844 180.710938 52.203125 190.753906 57.527344 197.289062 C 62.109375 202.917969 70 205.382812 76.984375 203.703125 C 82.035156 213.652344 89.128906 222.527344 97.664062 229.695312 C 97.546875 229.882812 97.449219 230.082031 97.371094 230.289062 C 88.402344 237.292969 79.832031 243.882812 71.542969 250.253906 C 62.476562 257.21875 53.097656 264.425781 43.195312 272.183594 C 41.503906 273.503906 39.730469 274.902344 37.992188 276.414062 L 37.210938 37.050781 C 178.359375 32.730469 321.40625 33.332031 462.492188 38.847656 L 459.542969 306.710938 L 265.949219 307.707031 C 265.269531 304.820312 264.464844 301.945312 263.480469 299.101562 Z M 190.390625 314.421875 L 209.421875 331.375 L 162.417969 390.804688 L 196.804688 241.753906 L 213.277344 295.523438 L 190.941406 308.742188 C 189.96875 309.316406 189.332031 310.320312 189.222656 311.445312 C 189.113281 312.566406 189.546875 313.675781 190.390625 314.421875 Z M 102.972656 304.394531 L 79.597656 301.367188 L 100.191406 245.1875 C 112.34375 296.375 128.601562 346.820312 148.628906 395.460938 C 127.464844 379.992188 106.140625 361.105469 80.9375 335.542969 L 92.800781 322.539062 C 93.179688 322.121094 93.746094 321.421875 94.535156 320.457031 C 98.789062 315.214844 101.597656 312.175781 102.882812 311.414062 C 104.476562 311.25 105.808594 310.011719 106.023438 308.351562 C 106.273438 306.414062 104.910156 304.644531 102.972656 304.394531 Z M 68.789062 166.078125 C 61.148438 159.039062 56.316406 149.058594 55.539062 138.699219 C 54.761719 128.339844 58.046875 117.75 64.550781 109.652344 C 66.101562 107.722656 67.820312 105.925781 69.644531 104.023438 C 72.695312 100.835938 75.855469 97.539062 78.226562 93.503906 C 80.246094 90.078125 81.519531 86.421875 82.753906 82.882812 C 83.535156 80.636719 84.273438 78.511719 85.183594 76.476562 C 89.304688 67.238281 97.425781 59.132812 108.050781 53.65625 C 116.824219 49.132812 127.199219 46.230469 140.695312 44.523438 C 161.222656 41.925781 177.828125 43.617188 191.46875 49.6875 C 207.984375 57.039062 219.527344 71.6875 220.882812 87.007812 C 220.972656 88.03125 221.019531 89.058594 221.070312 90.09375 C 221.238281 93.449219 221.410156 96.921875 222.773438 100.347656 C 224.1875 103.894531 226.5625 106.601562 228.859375 109.21875 C 229.523438 109.972656 230.183594 110.726562 230.816406 111.5 C 242.359375 125.625 242.140625 148.160156 230.453125 162.136719 C 225.382812 161.117188 218.9375 162.171875 211.128906 165.359375 C 209.546875 166.003906 208.0625 165.953125 206.453125 165.199219 C 202.679688 163.425781 199.328125 158.113281 197.964844 153.78125 C 195.417969 145.679688 197.308594 137.308594 199.339844 131.710938 C 200.730469 127.894531 202.703125 123.84375 205.554688 118.964844 C 205.796875 118.554688 206.203125 117.984375 206.632812 117.378906 C 208.613281 114.609375 211.601562 110.425781 209.277344 106.242188 C 208.355469 104.582031 206.285156 103.949219 204.589844 104.808594 C 200.632812 106.816406 196.996094 109.226562 193.480469 111.554688 C 188.554688 114.820312 183.898438 117.902344 178.445312 119.960938 C 169.289062 123.417969 159.78125 125.277344 150.191406 125.492188 C 130.5625 125.953125 110.503906 119.1875 95.132812 106.992188 C 93.898438 106.015625 92.167969 105.96875 90.886719 106.878906 C 89.605469 107.789062 89.078125 109.441406 89.597656 110.925781 C 93.226562 121.332031 97.335938 133.125 96.054688 144.515625 C 95.074219 153.234375 90.199219 161.203125 83.636719 164.8125 C 80.847656 166.347656 77.585938 166.496094 74.136719 166.65625 C 72.625 166.726562 71.0625 166.800781 69.484375 166.992188 C 69.304688 166.660156 69.082031 166.347656 68.789062 166.078125 Z M 62.660156 178.128906 C 65.480469 174.308594 68.8125 173.976562 74.460938 173.714844 C 78.375 173.535156 82.8125 173.332031 87.039062 171.003906 C 95.683594 166.25 101.832031 156.402344 103.078125 145.304688 C 104.109375 136.132812 102.222656 127.15625 99.660156 118.757812 C 114.769531 127.996094 132.726562 132.945312 150.347656 132.5625 C 160.738281 132.328125 171.03125 130.316406 180.941406 126.574219 C 187.140625 124.234375 192.347656 120.785156 197.386719 117.449219 C 197.863281 117.128906 198.339844 116.816406 198.8125 116.5 C 196.078125 121.277344 194.125 125.371094 192.699219 129.296875 C 190.292969 135.921875 188.082031 145.910156 191.222656 155.902344 C 192.914062 161.285156 197.132812 168.628906 203.449219 171.597656 C 206.828125 173.183594 210.40625 173.289062 213.800781 171.90625 C 228.5 165.910156 232.640625 169.789062 234.476562 173.230469 C 235.597656 175.332031 235.273438 177.546875 234.808594 179.035156 C 233.859375 182.050781 231.507812 184.824219 228.667969 186.277344 C 223.121094 189.113281 216.273438 188.628906 209.703125 187.6875 C 208.574219 187.523438 207.445312 187.914062 206.65625 188.730469 C 205.871094 189.546875 205.519531 190.695312 205.722656 191.8125 C 207.816406 203.40625 203.378906 216.378906 194.140625 225.660156 C 185.808594 234.035156 173.683594 239.589844 160.003906 241.304688 C 144.1875 243.285156 127.820312 240.105469 113.902344 232.355469 C 99.984375 224.605469 88.664062 212.359375 82.023438 197.878906 C 81.632812 197.027344 80.917969 196.363281 80.035156 196.039062 C 79.640625 195.890625 79.222656 195.816406 78.808594 195.816406 C 78.300781 195.816406 77.796875 195.925781 77.328125 196.144531 C 72.589844 198.328125 66.300781 196.871094 63.007812 192.828125 C 59.710938 188.78125 59.558594 182.328125 62.660156 178.128906 Z M 161.925781 361.496094 C 161.457031 361.472656 160.980469 361.597656 160.582031 361.902344 L 147.003906 372.316406 C 145.773438 369.121094 144.554688 365.921875 143.355469 362.710938 L 165.273438 346.980469 Z M 160.675781 366.921875 L 154.875 392.066406 C 152.714844 386.8125 150.609375 381.53125 148.539062 376.234375 Z M 166.585938 341.296875 C 166.308594 341.351562 166.035156 341.460938 165.792969 341.636719 L 141.90625 358.78125 C 140.464844 354.875 139.046875 350.960938 137.652344 347.035156 L 165.257812 324.40625 L 168.710938 332.078125 Z M 135.769531 341.71875 L 140.121094 327.378906 C 140.40625 327.316406 140.683594 327.210938 140.929688 327.015625 L 159.726562 312.109375 L 163.542969 320.589844 L 136.210938 342.992188 C 136.0625 342.570312 135.917969 342.144531 135.769531 341.71875 Z M 146.410156 306.644531 C 146.453125 306.644531 146.496094 306.648438 146.539062 306.648438 C 147.050781 306.648438 147.519531 306.589844 147.914062 306.539062 L 156.710938 305.402344 L 158.015625 308.308594 L 142.066406 320.957031 Z M 156.484375 301.359375 L 147.394531 302.53125 C 146.964844 302.585938 146.480469 302.648438 146.234375 302.582031 C 146.175781 302.566406 146.113281 302.53125 146.054688 302.492188 L 162.40625 288.144531 Z M 144 298.921875 L 141.84375 294.367188 L 157.675781 278.339844 C 157.746094 278.269531 157.800781 278.191406 157.855469 278.113281 L 162.402344 282.769531 Z M 154.800781 275.5 L 140.003906 290.484375 L 136.996094 284.140625 L 149.109375 269.15625 L 155.082031 275.269531 C 154.984375 275.335938 154.890625 275.414062 154.800781 275.5 Z M 145.917969 262.660156 C 129.542969 262.144531 113.863281 251.386719 107.066406 236.515625 C 108.183594 237.210938 109.3125 237.890625 110.460938 238.53125 C 122.730469 245.363281 136.738281 248.945312 150.765625 248.945312 C 154.144531 248.945312 157.523438 248.738281 160.878906 248.316406 C 169.769531 247.203125 178.09375 244.59375 185.363281 240.738281 C 177.304688 254.195312 161.625 263.140625 145.917969 262.660156 Z M 145.789062 266.699219 C 145.828125 266.699219 145.863281 266.699219 145.898438 266.699219 L 121.359375 297.046875 C 116.277344 279.941406 111.660156 262.707031 107.511719 245.386719 C 116.140625 257.773438 130.699219 266.222656 145.789062 266.699219 Z M 134.175781 287.625 L 141.144531 302.324219 C 141.464844 303.007812 141.953125 304.007812 142.722656 304.878906 L 133.527344 335.199219 C 129.742188 324.113281 126.148438 312.957031 122.757812 301.746094 Z M 170.214844 325.570312 L 160.195312 303.304688 C 160.171875 303.25 160.136719 303.203125 160.105469 303.152344 L 167.089844 287.570312 L 176.707031 297.417969 Z M 177.789062 292.742188 L 152.101562 266.4375 C 167.535156 264.699219 182.101562 255.027344 189.621094 241.441406 Z M 27.097656 8.25 C 27.207031 8.25 27.316406 8.25 27.429688 8.25 C 49.027344 8.324219 71.007812 8.578125 92.261719 8.820312 C 123.34375 9.175781 155.480469 9.546875 187.03125 9.363281 C 192.300781 9.332031 208.304688 9.25 230.449219 9.136719 C 273.699219 8.914062 340.371094 8.578125 396.230469 8.265625 C 424.160156 8.109375 449.390625 7.960938 467.632812 7.839844 C 476.757812 7.777344 484.136719 7.722656 489.234375 7.675781 C 489.320312 7.675781 489.398438 7.675781 489.484375 7.675781 L 465 31.875 C 322.179688 26.238281 177.34375 25.628906 34.460938 30.0625 C 34.382812 29.964844 34.3125 29.863281 34.222656 29.773438 L 14.6875 10.480469 C 17.832031 8.585938 22.566406 8.25 27.097656 8.25 Z M 11.882812 337.132812 L 25.367188 322.734375 L 25.835938 337.066406 Z M 25.0625 313.265625 C 24.570312 313.453125 24.109375 313.734375 23.726562 314.144531 L 7.175781 331.816406 C 7.746094 283.140625 8.3125 232.09375 8.882812 181.039062 C 9.488281 126.851562 10.09375 72.664062 10.699219 21.320312 C 10.714844 19.824219 10.742188 18.226562 10.945312 16.71875 L 29.253906 34.804688 C 29.519531 35.0625 29.820312 35.261719 30.136719 35.421875 L 30.941406 282.421875 C 30.941406 282.898438 31.039062 283.347656 31.210938 283.761719 C 30.996094 284.066406 30.773438 284.363281 30.570312 284.679688 C 24.925781 293.496094 24.804688 304.207031 25.0625 313.265625 Z M 261.410156 461.289062 C 257.921875 466.535156 250.007812 467.324219 241.972656 467.394531 L 227.519531 467.519531 L 228.433594 365.652344 C 228.453125 363.699219 226.882812 362.101562 224.929688 362.085938 C 224.921875 362.085938 224.910156 362.085938 224.898438 362.085938 C 222.960938 362.085938 221.382812 363.648438 221.367188 365.585938 L 220.453125 467.578125 L 75.054688 468.828125 L 71.003906 370.792969 C 70.921875 368.84375 69.257812 367.320312 67.324219 367.410156 C 65.375 367.488281 63.859375 369.136719 63.9375 371.085938 L 67.980469 468.890625 L 63.308594 468.929688 C 54.953125 469.007812 46.386719 468.636719 41.480469 463.425781 C 37.242188 458.929688 36.667969 451.765625 36.421875 444.203125 L 32.195312 315.359375 C 31.855469 304.890625 31.945312 295.640625 36.519531 288.492188 C 39.226562 284.265625 43.457031 280.953125 47.550781 277.75 C 57.433594 270.011719 66.796875 262.816406 75.847656 255.859375 C 81.6875 251.371094 87.675781 246.765625 93.832031 241.996094 L 71.4375 303.085938 C 71.070312 304.09375 71.179688 305.214844 71.734375 306.136719 C 72.292969 307.054688 73.238281 307.667969 74.304688 307.808594 L 93.816406 310.335938 C 92.421875 311.894531 90.851562 313.777344 89.046875 316 C 88.414062 316.773438 87.820312 317.507812 87.574219 317.773438 L 73.460938 333.25 C 72.195312 334.636719 72.234375 336.765625 73.546875 338.105469 C 103.394531 368.578125 127.859375 389.871094 152.828125 407.117188 C 153.011719 407.367188 153.21875 407.605469 153.476562 407.808594 C 154.125 408.324219 154.898438 408.570312 155.664062 408.570312 C 156.707031 408.570312 157.742188 408.109375 158.4375 407.230469 L 217.03125 333.144531 C 218.191406 331.679688 218.007812 329.558594 216.609375 328.316406 L 198.703125 312.363281 L 219.269531 300.1875 C 220.675781 299.355469 221.328125 297.671875 220.851562 296.109375 L 203.972656 241.015625 C 228.207031 258.902344 248.285156 276.691406 256.800781 301.402344 C 262.023438 316.5625 262.21875 333.082031 262.40625 349.054688 L 263.585938 448.660156 C 263.644531 453.691406 263.519531 458.109375 261.410156 461.289062 Z M 267.351562 314.773438 L 463.054688 313.761719 C 463.402344 313.761719 463.726562 313.695312 464.042969 313.601562 L 493.917969 331.324219 L 269.066406 332.136719 C 268.789062 326.339844 268.289062 320.53125 267.351562 314.773438 Z M 267.351562 314.773438 " style=" stroke:none;fill-rule:nonzero;fill:rgb(0%,0%,0%);fill-opacity:1;" />
</g>
</svg>